<?xml version="1.0" standalone="no"?>
<!DOCTYPE svg PUBLIC "-//W3C//DTD SVG 1.1//EN" "http://www.w3.org/Graphics/SVG/1.1/DTD/svg11.dtd" >
<svg xmlns="http://www.w3.org/2000/svg" xmlns:xlink="http://www.w3.org/1999/xlink" version="1.1">
<metadata>
Created by FontForge 20170731 at Fri Aug 25 13:11:56 2023
 By Aleksey,,,
Copyright (c)2015, HK Grotesk Pro by Alfredo Marco Pradil (ammpradil@gmail.com).
</metadata>
<defs>
<font id="HKGroteskPro-Medium" horiz-adv-x="0" >
  <font-face 
    font-family="HK Grotesk Pro Medium"
    font-weight="500"
    font-stretch="normal"
    units-per-em="2048"
    panose-1="0 0 6 0 0 0 0 0 0 0"
    ascent="1638"
    descent="-410"
    x-height="999"
    cap-height="1413"
    bbox="-1460 -518 2642 2312"
    underline-thickness="88"
    underline-position="-333"
    unicode-range="U+0020-FB02"
  />
<missing-glyph horiz-adv-x="1161" 
d="M168 0v958h825v-958h-825zM244 76h676v807h-676v-807z" />
    <glyph glyph-name="fi" unicode="fi" horiz-adv-x="1075" 
d="M909 999v-999h-157v856h-379v-856h-168v856h-172v143h172v80q0 168 105.5 259.5t267.5 91.5q186 0 331 -99l-80 -119q-107 80 -243 80q-213 0 -213 -217v-76h536z" />
    <glyph glyph-name="fl" unicode="fl" horiz-adv-x="1153" 
d="M950 -16q-100 0 -146 53.5t-46 169.5v1036q-79 49 -185 49q-204 0 -204 -217v-76h215v-143h-215v-856h-170v856h-166v143h166v80q0 168 103.5 259.5t262.5 91.5q105 0 180.5 -21t180.5 -80v-1077q0 -57 21.5 -87t78.5 -30q18 0 76 8l2 -143q-94 -16 -154 -16z" />
    <glyph glyph-name="f_f" unicode="ff" horiz-adv-x="1230" 
d="M205 0v856h-172v143h172v86q0 157 112.5 251t278.5 94q139 0 250 -66q84 66 209 66q84 0 164 -39l-58 -140q-49 27 -90 27q-145 0 -145 -148v-131h284v-143h-284v-856h-176v856h-377v-856h-168zM373 999h379v148q0 58 22 104q-71 41 -170 41q-110 0 -170.5 -56.5
t-60.5 -152.5v-84z" />
    <glyph glyph-name="f_f_i" unicode="ffi" horiz-adv-x="1630" 
d="M205 0v856h-172v143h172v86q0 157 112.5 251t278.5 94q156 0 272 -80q103 80 256 80q187 0 332 -99l-80 -119q-107 80 -243 80q-213 0 -213 -217v-76h546v-999h-168v856h-378v-856h-170v856h-377v-856h-168zM373 999h377v80q0 97 36 164q-77 49 -182 49
q-110 0 -170.5 -56.5t-60.5 -152.5v-84z" />
    <glyph glyph-name="f_f_l" unicode="ffl" horiz-adv-x="1701" 
d="M1495 -16q-103 0 -150 53.5t-47 169.5v1046q-73 39 -165 39q-213 0 -213 -217v-76h215v-143h-215v-856h-170v856h-377v-856h-168v856h-172v143h172v86q0 157 112.5 251t278.5 94q158 0 274 -80q100 80 254 80q103 0 183 -25t159 -78v-1075q0 -57 22 -87t83 -30q22 0 80 8
l2 -143q-94 -16 -158 -16zM373 999h377v80q0 99 38 164q-77 49 -184 49q-110 0 -170.5 -56.5t-60.5 -152.5v-84z" />
    <glyph glyph-name="h_d_c_o.liga" unicode="hdco" horiz-adv-x="1777" 
d="M889 -61q-158 0 -301 61t-247 165t-165 247t-61 301t61 301t165 247t247 165t301 61t301 -61t247 -165t165 -247t61 -301t-61 -301t-165 -247t-247 -165t-301 -61zM889 10q143 0 273 55.5t224 149.5t149.5 224.5t55.5 273.5t-55.5 273t-149.5 224t-224 149.5t-273 55.5
t-273.5 -55.5t-224.5 -149.5t-149.5 -224t-55.5 -273q0 -191 94 -353t256 -256t353 -94zM485 410q-14 0 -24 9.5t-10 24.5v537q0 15 10 26t24 11q15 0 26 -11t11 -26v-537q0 -15 -11 -24.5t-26 -9.5zM889 410q-15 0 -25 9.5t-10 24.5v537q0 15 10 26t25 11t25 -11t10 -26
v-537q0 -15 -10 -24.5t-25 -9.5zM1290 410q-14 0 -22 10l-271 268q-8 11 -8 25q0 16 8 24l269 264q12 15 26 15t24.5 -11t10.5 -24q0 -15 -10 -25l-244 -243l244 -244q10 -10 10 -25q0 -13 -11.5 -23.5t-25.5 -10.5zM621 678q-15 0 -25 10t-10 25t10 25t25 10h133
q15 0 26 -10t11 -25t-11 -25t-26 -10h-133z" />
    <glyph glyph-name=".notdef" horiz-adv-x="1161" 
d="M168 0v958h825v-958h-825zM244 76h676v807h-676v-807z" />
    <glyph glyph-name=".null" 
 />
    <glyph glyph-name="nonmarkingreturn" horiz-adv-x="682" 
 />
    <glyph glyph-name="space" unicode=" " horiz-adv-x="514" 
 />
    <glyph glyph-name="exclam" unicode="!" horiz-adv-x="628" 
d="M250 408l-19 1005h168l-20 -1005h-129zM223 0v236h185v-236h-185z" />
    <glyph glyph-name="quotedbl" unicode="&#x22;" horiz-adv-x="872" 
d="M201 944v469h143v-469h-143zM528 944v469h144v-469h-144z" />
    <glyph glyph-name="numbersign" unicode="#" horiz-adv-x="1409" 
d="M258 0l88 424h-242v121h269l71 346h-256v127h283l88 395h135l-86 -399h320l84 399h135l-88 -399h248v-123h-275l-74 -346h265v-121h-289l-90 -424h-133l88 424h-320l-88 -424h-133zM508 545h319l72 346h-319z" />
    <glyph glyph-name="dollar" unicode="$" horiz-adv-x="1144" 
d="M1055 395q0 -175 -122 -285.5t-308 -121.5v-248l-76 -2v250q-179 9 -310 113t-161 282l176 43q17 -127 95.5 -198.5t199.5 -82.5v527q-53 21 -81 33t-75.5 35t-73.5 42t-59.5 49.5t-51 62.5t-30 75t-12.5 92q0 160 109 260t274 109v229h76v-232q243 -19 364 -231
l-145 -90q-81 143 -219 164v-451q164 -64 226 -100q165 -94 196 -243q8 -39 8 -81zM342 1069q0 -77 53.5 -127t153.5 -92v422q-90 -6 -148.5 -63t-58.5 -140zM625 145q117 9 185.5 74t68.5 162q0 40 -14 75t-35.5 60t-56.5 49t-68 40.5t-80 35.5v-496z" />
    <glyph glyph-name="percent" unicode="%" horiz-adv-x="1495" 
d="M397 788q-128 0 -202 94t-74 228q0 133 72.5 226.5t197.5 93.5q120 0 197.5 -91.5t77.5 -230.5q0 -138 -76 -229t-193 -91zM281 0l813 1413h120l-813 -1413h-120zM397 903q66 0 109 58t43 147t-42.5 148t-115.5 59q-74 0 -113.5 -59.5t-39.5 -145.5q0 -89 40 -148
t119 -59zM1106 -16q-127 0 -201 93.5t-74 227.5q0 133 72.5 226.5t196.5 93.5q119 0 196.5 -91.5t77.5 -230.5q0 -138 -75.5 -228.5t-192.5 -90.5zM1106 98q67 0 110.5 58t43.5 147t-43 148t-117 59t-114 -59.5t-40 -145.5q0 -88 41 -147.5t119 -59.5z" />
    <glyph glyph-name="ampersand" unicode="&#x26;" horiz-adv-x="1404" 
d="M1300 37l-118 -107l-189 220q-182 -168 -434 -168q-195 0 -317.5 91.5t-122.5 252.5q0 78 27.5 144t80 118t106 88.5t128.5 77.5q-33 36 -43.5 48.5t-44 57t-49 75t-30.5 77.5t-15 90q0 144 110 234.5t262 90.5q148 0 251.5 -93.5t103.5 -229.5q0 -66 -23 -123
t-68.5 -104t-93.5 -82t-116 -74l282 -324q66 132 72 293l166 -16q-15 -231 -129 -402zM442 1100q0 -16 3.5 -33t11 -35.5t14.5 -33.5t20 -35t21 -32t23.5 -32t21.5 -27t22 -26t17 -21q60 33 99.5 59t78 60t57.5 73.5t19 84.5q0 81 -54.5 136.5t-142.5 55.5q-91 0 -151 -53
t-60 -141zM555 127q199 0 338 139l-326 377q-67 -38 -110 -67t-87 -69t-65.5 -86t-21.5 -99q0 -92 73.5 -143.5t198.5 -51.5z" />
    <glyph glyph-name="quotesingle" unicode="'" horiz-adv-x="542" 
d="M201 944v469h143v-469h-143z" />
    <glyph glyph-name="parenleft" unicode="(" horiz-adv-x="563" 
d="M352 -137q-101 135 -163 362t-62 410q0 195 56 407t171 371h150q-116 -156 -175 -370.5t-59 -407.5q0 -184 64.5 -413.5t167.5 -358.5h-150z" />
    <glyph glyph-name="parenright" unicode=")" horiz-adv-x="565" 
d="M213 -137h-150q103 129 167.5 358.5t64.5 413.5q0 193 -59 407.5t-175 370.5h150q115 -159 171 -371t56 -407q0 -183 -62 -410t-163 -362z" />
    <glyph glyph-name="asterisk" unicode="*" horiz-adv-x="923" 
d="M346 840l-131 88l170 178l-242 33l52 145l219 -94l-31 223h160l-33 -223l221 94l51 -145l-241 -33l168 -178l-131 -88l-115 225z" />
    <glyph glyph-name="plus" unicode="+" horiz-adv-x="1247" 
d="M559 111v450h-448v129h448v449h129v-449h449v-129h-449v-450h-129z" />
    <glyph glyph-name="comma" unicode="," horiz-adv-x="647" 
d="M152 -311l184 573h194l-264 -573h-114z" />
    <glyph glyph-name="hyphen" unicode="-" horiz-adv-x="874" 
d="M160 551v129h555v-129h-555z" />
    <glyph glyph-name="period" unicode="." horiz-adv-x="632" 
d="M231 0v236h170v-236h-170z" />
    <glyph glyph-name="slash" unicode="/" horiz-adv-x="882" 
d="M-2 -428l727 1841h160l-727 -1841h-160z" />
    <glyph glyph-name="zero" unicode="0" horiz-adv-x="1161" 
d="M590 -16q-87 0 -159 24.5t-122.5 65.5t-89.5 99.5t-62.5 121.5t-38.5 136.5t-20.5 139.5t-5.5 136q0 71 5 137t19.5 140.5t37 137t60.5 121.5t87 99.5t119 65t155 24.5q108 0 194.5 -42t142 -111t92 -164.5t52 -196.5t15.5 -213q0 -111 -15 -211.5t-51 -195t-90 -163
t-137.5 -110t-187.5 -41.5zM586 150q72 0 127 33t88 86t54 128t28.5 149.5t7.5 160.5q0 88 -8 163t-30 150t-56 127t-91 84.5t-131 32.5q-309 0 -309 -557t320 -557z" />
    <glyph glyph-name="one" unicode="1" horiz-adv-x="1161" 
d="M598 1413h166v-1413h-174v1053h-346v135h223q131 0 131 115v110z" />
    <glyph glyph-name="two" unicode="2" horiz-adv-x="1161" 
d="M362 160h717v-160h-993v150q76 47 138.5 88.5t142 100.5t141.5 114t124.5 124t103.5 135.5t67 144t26 153.5q0 119 -66 189.5t-190 70.5q-75 0 -132 -27t-91.5 -75.5t-51.5 -109t-19 -132.5l-173 10q0 102 31.5 191.5t90 157t147 106.5t196.5 39q196 0 315.5 -112.5
t119.5 -311.5q0 -101 -41 -207t-106 -196t-151.5 -175.5t-172 -150.5t-173.5 -117z" />
    <glyph glyph-name="three" unicode="3" horiz-adv-x="1161" 
d="M569 -16q-221 0 -362 117t-141 329l167 8q0 -136 93 -214.5t245 -78.5q143 0 237.5 73.5t94.5 201.5q0 66 -25.5 114t-63.5 74.5t-95 41.5t-106 19t-111 3v141q164 -2 244.5 52t80.5 173q0 105 -73.5 166.5t-186.5 61.5q-121 0 -194.5 -66.5t-73.5 -179.5l-168 10
q0 183 123.5 291.5t310.5 108.5q179 0 305.5 -103t126.5 -268q0 -113 -65 -190t-182 -115q150 -30 235.5 -118.5t85.5 -229.5q0 -131 -69 -228.5t-181.5 -145.5t-251.5 -48z" />
    <glyph glyph-name="four" unicode="4" horiz-adv-x="1161" 
d="M895 496h229v-160h-229v-336h-174v336h-688v106l708 971h154v-917zM256 496h465v653z" />
    <glyph glyph-name="five" unicode="5" horiz-adv-x="1161" 
d="M608 952q127 0 233.5 -63.5t168 -173t61.5 -240.5q0 -132 -67 -245t-181.5 -179.5t-249.5 -66.5q-180 0 -314.5 116t-174.5 297l164 45q28 -131 111 -215t214 -84q136 0 228 99t92 235q0 135 -85.5 226.5t-223.5 91.5q-85 0 -161.5 -41.5t-127.5 -116.5l-168 43l133 733
h746v-162h-607l-71 -397q129 98 280 98z" />
    <glyph glyph-name="six" unicode="6" horiz-adv-x="1161" 
d="M582 936q133 0 246 -63.5t179 -173t66 -238.5q0 -130 -66 -240t-179 -173.5t-246 -63.5q-100 0 -190.5 37.5t-157 101.5t-105.5 152.5t-39 185.5q0 140 82 262l418 690h201l-293 -483q40 6 84 6zM582 147q132 0 225.5 92.5t93.5 221.5q0 128 -93.5 219.5t-225.5 91.5
t-226 -91.5t-94 -219.5q0 -130 94 -222t226 -92z" />
    <glyph glyph-name="seven" unicode="7" horiz-adv-x="1161" 
d="M74 1413h1013v-98l-671 -1315h-195l653 1251h-800v162z" />
    <glyph glyph-name="eight" unicode="8" horiz-adv-x="1161" 
d="M580 -16q-96 0 -183 26t-156.5 76t-111 131t-41.5 182q0 127 67 223.5t181 143.5q-80 46 -124 124.5t-44 176.5q0 111 60 195.5t152.5 126t199.5 41.5q173 0 293 -101t120 -266q0 -97 -46 -175t-124 -122q116 -50 180 -145t64 -222q0 -102 -41 -183t-110 -130.5
t-155 -75.5t-181 -26zM584 817q106 0 173.5 64t67.5 168q0 107 -67.5 170t-173.5 63q-102 0 -173 -59t-71 -166q0 -108 67 -174t177 -66zM578 135q134 0 224.5 72.5t90.5 208.5q0 130 -88 207t-227 77q-140 0 -229 -76.5t-89 -205.5q0 -137 92 -210t226 -73z" />
    <glyph glyph-name="nine" unicode="9" horiz-adv-x="1161" 
d="M1079 952q0 -126 -65 -237l-434 -715h-201l295 485q-39 -8 -86 -8q-99 0 -189.5 37.5t-156.5 101.5t-105 152t-39 184q0 130 65.5 240t178.5 174t246 64t246 -64t179 -174t66 -240zM270 952q0 -128 93 -219.5t225 -91.5t225.5 91.5t93.5 219.5q0 131 -93 222.5t-226 91.5
q-132 0 -225 -92.5t-93 -221.5z" />
    <glyph glyph-name="colon" unicode=":" horiz-adv-x="657" 
d="M236 719v235h184v-235h-184zM236 0v236h184v-236h-184z" />
    <glyph glyph-name="semicolon" unicode=";" horiz-adv-x="667" 
d="M293 719v235h184v-235h-184zM117 -311l184 573h195l-263 -573h-116z" />
    <glyph glyph-name="less" unicode="&#x3c;" horiz-adv-x="1292" 
d="M1106 23l-1022 583l1022 582l63 -111l-823 -471l823 -471z" />
    <glyph glyph-name="equal" unicode="=" horiz-adv-x="1304" 
d="M252 805v145h801v-145h-801zM252 393v146h801v-146h-801z" />
    <glyph glyph-name="greater" unicode="&#x3e;" horiz-adv-x="1292" 
d="M186 23l-63 112l823 471l-823 471l63 111l1022 -582z" />
    <glyph glyph-name="question" unicode="?" horiz-adv-x="1036" 
d="M438 403v160q0 63 19 110.5t50 76.5t68 52t74 44.5t68 47t50 65.5t19 94q0 116 -74 175.5t-206 59.5q-133 0 -203 -70t-70 -198h-151q1 192 115 301t305 109q190 0 312 -100.5t122 -280.5q0 -73 -19.5 -130t-50.5 -92.5t-69 -63.5t-76 -48.5t-69 -41t-50.5 -48.5
t-19.5 -64v-158h-144zM420 0v236h184v-236h-184z" />
    <glyph glyph-name="at" unicode="@" horiz-adv-x="2080" 
d="M1032 -352q-183 0 -345.5 61t-284 171t-192.5 275.5t-71 362.5q0 192 67 361.5t185.5 292t289.5 193.5t370 71t368 -70t283.5 -190.5t179 -282t64.5 -342.5q0 -94 -17.5 -182.5t-54.5 -168.5t-90 -140t-130 -95t-169 -35q-100 0 -160 51t-74 144q-8 44 -8 115
q-64 -87 -152 -138t-188 -51q-154 0 -237.5 105.5t-83.5 271.5q0 68 14.5 139.5t42 141.5t70.5 132t96 109.5t123 75t147 27.5q105 0 174 -51.5t94 -143.5l31 146l137 -3q-13 -70 -52.5 -236.5t-66 -303.5t-30.5 -223q-6 -84 20 -126t99 -42q86 0 151.5 42.5t103 113.5
t56 153.5t18.5 173.5q0 154 -54 291t-150.5 239.5t-240.5 162t-314 59.5q-171 0 -317.5 -60.5t-247 -166t-157.5 -250t-57 -308.5q0 -136 39.5 -254t109.5 -205t165.5 -149.5t209.5 -93.5t238 -31q135 0 260 43l47 -129q-148 -53 -309 -53zM913 186q89 0 163.5 47.5
t120 122.5t70.5 161t25 169q0 232 -198 232q-90 0 -165 -47t-120.5 -121.5t-70.5 -160t-25 -167.5q0 -114 50 -175t150 -61z" />
    <glyph glyph-name="A" unicode="A" horiz-adv-x="1314" 
d="M49 0l539 1413h141l537 -1413h-191l-119 330h-594l-120 -330h-193zM418 481h483l-242 680z" />
    <glyph glyph-name="B" unicode="B" horiz-adv-x="1271" 
d="M211 0v1413h448q89 0 165 -21t137 -64t96 -115.5t35 -168.5q0 -100 -52 -180t-129 -114q110 -31 180 -130.5t70 -222.5q0 -186 -127.5 -291.5t-326.5 -105.5h-496zM387 811h309q101 0 167.5 56t66.5 167q0 107 -71 163t-197 56h-275v-442zM387 168h322q136 0 207 62.5
t71 185.5q0 108 -69 174.5t-189 66.5h-342v-489z" />
    <glyph glyph-name="C" unicode="C" horiz-adv-x="1447" 
d="M770 -16q-160 0 -285.5 55.5t-205 153.5t-121 229t-41.5 287q0 155 41.5 285.5t121.5 228.5t207 153.5t289 55.5q209 0 358.5 -99t231.5 -291l-166 -65q-93 287 -426 287q-238 0 -360.5 -149t-122.5 -400q0 -122 28 -222.5t85 -177.5t150 -120t216 -43q159 0 264.5 69
t169.5 221l164 -67q-85 -192 -237 -291.5t-361 -99.5z" />
    <glyph glyph-name="D" unicode="D" horiz-adv-x="1439" 
d="M211 0v1413h389q353 0 540 -185.5t187 -531.5q0 -333 -189 -514.5t-540 -181.5h-387zM387 162h195q274 0 421.5 132t147.5 408q0 282 -134 415.5t-419 133.5h-211v-1089z" />
    <glyph glyph-name="E" unicode="E" horiz-adv-x="1263" 
d="M211 0v1413h928v-162h-752v-460h684v-164h-684v-461h752v-166h-928z" />
    <glyph glyph-name="F" unicode="F" horiz-adv-x="1251" 
d="M211 0v1413h969v-162h-793v-460h698v-164h-698v-627h-176z" />
    <glyph glyph-name="G" unicode="G" horiz-adv-x="1538" 
d="M770 -16q-160 0 -285.5 55.5t-205 153.5t-121 229t-41.5 287q0 124 25.5 232t79 198.5t130.5 155.5t185.5 101t238.5 36q209 0 359 -99t229 -291l-158 -65q-105 301 -432 301q-120 0 -213.5 -42.5t-151.5 -118.5t-88 -178t-30 -224q0 -97 17.5 -181.5t55 -157.5
t92.5 -124.5t135.5 -81t178.5 -29.5q182 0 296 93.5t138 271.5l4 90h-336v143h510v-739h-141l-14 236q-65 -120 -183 -186t-274 -66z" />
    <glyph glyph-name="H" unicode="H" horiz-adv-x="1472" 
d="M211 0v1413h176v-622h700v622h177v-1413h-177v629h-700v-629h-176z" />
    <glyph glyph-name="I" unicode="I" horiz-adv-x="595" 
d="M211 0v1413h176v-1413h-176z" />
    <glyph glyph-name="J" unicode="J" horiz-adv-x="1161" 
d="M522 -16q-200 0 -322.5 123t-136.5 315l173 18q9 -132 83 -212.5t203 -80.5q152 0 215.5 89.5t63.5 273.5v741h-559v162h735v-899q0 -163 -45.5 -279t-149 -183.5t-260.5 -67.5z" />
    <glyph glyph-name="K" unicode="K" horiz-adv-x="1464" 
d="M211 0v1413h176v-811l768 811h236l-549 -565l571 -848h-219l-475 731l-332 -346v-385h-176z" />
    <glyph glyph-name="L" unicode="L" horiz-adv-x="1069" 
d="M211 0v1413h176v-1247h631v-166h-807z" />
    <glyph glyph-name="M" unicode="M" horiz-adv-x="1783" 
d="M1333 1413h240v-1413h-168v1176l-428 -1057h-170l-428 1057v-1176h-168v1413h240l442 -1098z" />
    <glyph glyph-name="N" unicode="N" horiz-adv-x="1437" 
d="M1057 1413h170v-1413h-183l-665 1128v-1128h-168v1413h180l666 -1124v1124z" />
    <glyph glyph-name="O" unicode="O" horiz-adv-x="1548" 
d="M774 -16q-164 0 -292.5 58.5t-207 159.5t-119 229t-40.5 276t40.5 276t119 229t207 159.5t292.5 58.5t292.5 -58.5t207.5 -159.5t119.5 -229.5t40.5 -275.5t-40.5 -275.5t-119.5 -229.5t-207.5 -159.5t-292.5 -58.5zM774 139q122 0 215 45.5t148 125t82.5 179.5t27.5 218
q0 94 -16.5 176.5t-53.5 154.5t-91 124t-134 82t-178 30t-178 -30t-134 -82t-91 -124t-53.5 -154.5t-16.5 -176.5q0 -118 27.5 -218t82.5 -179.5t148 -125t215 -45.5z" />
    <glyph glyph-name="P" unicode="P" horiz-adv-x="1177" 
d="M211 0v1413h405q219 0 351.5 -108t132.5 -297q0 -190 -131.5 -295t-352.5 -105h-231v-608h-174zM385 772h231q155 0 232.5 60.5t77.5 175.5t-79 177t-231 62h-231v-475z" />
    <glyph glyph-name="Q" unicode="Q" horiz-adv-x="1576" 
d="M1341 -57l-172 161q-161 -120 -397 -120q-163 0 -291 58.5t-206.5 159.5t-119 229.5t-40.5 275.5t40.5 275.5t119 229.5t206.5 159.5t291 58.5q164 0 293 -58.5t208 -159.5t120 -229.5t41 -275.5q0 -299 -154 -494l170 -162zM772 139q157 0 270 82l-225 215l115 105
l215 -207q100 144 100 373q0 94 -16.5 176.5t-53.5 155t-91.5 124t-134.5 81.5t-179 30q-98 0 -178 -30t-134 -82t-91 -124t-53.5 -154.5t-16.5 -176.5q0 -118 27.5 -218t82.5 -179.5t148 -125t215 -45.5z" />
    <glyph glyph-name="R" unicode="R" horiz-adv-x="1265" 
d="M211 0v1413h416q207 0 341 -107t134 -294q0 -137 -78.5 -233t-212.5 -132l391 -647h-201l-360 629q-29 -2 -92 -2h-162v-627h-176zM387 772h254q137 3 212 65.5t75 172.5q0 115 -80 180t-221 65h-240v-483z" />
    <glyph glyph-name="S" unicode="S" horiz-adv-x="1144" 
d="M588 -14q-125 0 -231.5 44t-182 135.5t-96.5 217.5l176 43q18 -137 109 -210t227 -73q131 0 210 67.5t79 170.5q0 55 -24.5 99t-65.5 74t-94.5 56t-113 48.5t-118.5 47t-112.5 56.5t-94.5 71.5t-65.5 97.5t-24.5 130q0 167 119 268t295 101q276 0 409 -234l-145 -90
q-92 168 -271 168q-99 0 -165 -58t-66 -147q0 -50 24.5 -90t65.5 -68t94.5 -52t113 -46.5t118.5 -47t112.5 -58t94.5 -75t65.5 -102t24.5 -135.5q0 -122 -62.5 -216t-168.5 -143.5t-236 -49.5z" />
    <glyph glyph-name="T" unicode="T" horiz-adv-x="1228" 
d="M526 0v1255h-477v158h1129v-158h-476v-1255h-176z" />
    <glyph glyph-name="U" unicode="U" horiz-adv-x="1394" 
d="M696 -16q-258 0 -387 145t-129 408v876h176v-856q0 -202 79.5 -302.5t260.5 -100.5q182 0 262 101.5t80 303.5v854h176v-866q0 -269 -129 -416t-389 -147z" />
    <glyph glyph-name="V" unicode="V" horiz-adv-x="1355" 
d="M1114 1413h195l-561 -1413h-138l-561 1413h195l436 -1137z" />
    <glyph glyph-name="W" unicode="W" horiz-adv-x="1986" 
d="M473 0l-412 1413h183l329 -1159l351 1081h139l350 -1081l330 1159h184l-414 -1413h-174l-346 1057l-344 -1057h-176z" />
    <glyph glyph-name="X" unicode="X" horiz-adv-x="1331" 
d="M59 0l486 711l-479 702h210l390 -590l389 590h211l-480 -702l486 -711h-209l-399 592l-396 -592h-209z" />
    <glyph glyph-name="Y" unicode="Y" horiz-adv-x="1325" 
d="M571 0v543l-534 870h213l412 -698l413 698h213l-534 -870v-543h-183z" />
    <glyph glyph-name="Z" unicode="Z" horiz-adv-x="1294" 
d="M1202 1413v-133l-880 -1120h878v-160h-1120v129l885 1122h-838v162h1075z" />
    <glyph glyph-name="bracketleft" unicode="[" horiz-adv-x="653" 
d="M203 -137v1685h393v-114h-256v-1457h256v-114h-393z" />
    <glyph glyph-name="backslash" unicode="\" horiz-adv-x="917" 
d="M762 -428l-766 1941h160l766 -1941h-160z" />
    <glyph glyph-name="bracketright" unicode="]" horiz-adv-x="655" 
d="M451 -137h-392v114h254v1457h-254v114h392v-1685z" />
    <glyph glyph-name="asciicircum" unicode="^" horiz-adv-x="1185" 
d="M96 444l496 1031l498 -1031h-181l-317 707l-316 -707h-180z" />
    <glyph glyph-name="underscore" unicode="_" horiz-adv-x="1140" 
d="M160 -129v129h821v-129h-821z" />
    <glyph glyph-name="grave" unicode="`" horiz-adv-x="509" 
d="M324 1112l-275 301h180l222 -301h-127z" />
    <glyph glyph-name="a" unicode="a" horiz-adv-x="1060" 
d="M512 1016q193 0 301.5 -109.5t108.5 -298.5v-608h-142l-12 176q-52 -93 -145 -142.5t-199 -49.5q-157 0 -254.5 83t-97.5 228q0 287 411 287h283q0 151 -57.5 218.5t-196.5 67.5q-171 0 -270 -155l-131 94q77 104 172.5 156.5t228.5 52.5zM457 127q122 0 203.5 74
t105.5 192v66h-272q-122 0 -185 -45t-63 -123q0 -75 55 -119.5t156 -44.5z" />
    <glyph glyph-name="b" unicode="b" horiz-adv-x="1191" 
d="M678 -16q-106 0 -195.5 51t-138.5 145v-180h-174v1413h174v-594q49 94 137 145.5t195 51.5q133 0 231.5 -70.5t147.5 -186.5t49 -259q0 -142 -49 -258t-147 -187t-230 -71zM637 139q142 0 218.5 101t76.5 260q0 160 -76.5 261t-218.5 101q-143 0 -225 -102t-82 -260
t82 -259.5t225 -101.5z" />
    <glyph glyph-name="c" unicode="c" horiz-adv-x="1011" 
d="M545 -16q-109 0 -197.5 41.5t-145.5 112.5t-87.5 163.5t-30.5 196.5q0 80 17.5 154.5t55 141t91 116t129.5 78t166 28.5q143 0 249.5 -71.5t159.5 -209.5l-161 -63q-28 88 -93.5 139t-154.5 51q-95 0 -162 -53.5t-96 -133.5t-29 -177q0 -58 10.5 -110t33 -98t55.5 -80
t81 -53.5t107 -19.5q90 0 155.5 50.5t92.5 136.5l153 -58q-46 -133 -151.5 -207.5t-247.5 -74.5z" />
    <glyph glyph-name="d" unicode="d" horiz-adv-x="1200" 
d="M526 -16q-132 0 -233.5 70t-154 187t-52.5 259q0 141 52.5 258t153.5 187.5t232 70.5q106 0 195.5 -51.5t138.5 -145.5v594h172v-1413h-158l-8 188q-47 -97 -137.5 -150.5t-200.5 -53.5zM567 137q143 0 224 101.5t81 261.5q0 159 -81.5 260.5t-223.5 101.5
q-144 0 -226.5 -102.5t-82.5 -259.5q0 -159 82.5 -261t226.5 -102z" />
    <glyph glyph-name="e" unicode="e" horiz-adv-x="1073" 
d="M563 -16q-152 0 -262.5 70t-163.5 184.5t-53 257.5q0 104 30 197t86.5 165.5t146 115t200.5 42.5q97 0 175 -30t127 -77.5t82 -111t46.5 -127t13.5 -129.5q0 -60 -8 -92h-719q9 -147 86.5 -229.5t214.5 -82.5q86 0 150.5 27.5t124.5 93.5l118 -104q-85 -89 -178.5 -129.5
t-216.5 -40.5zM264 573h559q0 44 -4 64q-13 100 -83 167.5t-189 67.5q-123 0 -196 -81.5t-87 -217.5z" />
    <glyph glyph-name="f" unicode="f" horiz-adv-x="700" 
d="M233 0v856h-200v143h200v148q0 134 83 208.5t214 74.5q85 0 158 -39l-55 -140q-49 27 -88 27q-65 0 -101 -37t-36 -111v-131h272v-143h-272v-856h-175z" />
    <glyph glyph-name="g" unicode="g" horiz-adv-x="1044" 
d="M567 131q42 -6 67 -10t64 -12t63 -15.5t56.5 -19.5t52 -26t41.5 -34t34 -43.5t20 -54t8 -66.5q0 -76 -31.5 -131t-89.5 -87t-133 -47t-170 -15q-222 0 -341.5 80t-119.5 229q0 21 4 45l139 123q-120 62 -120 193q0 121 104 196q-86 95 -86 230q0 153 112.5 251.5
t276.5 98.5q144 0 246 -76l143 123l88 -109l-137 -114q49 -84 49 -185q0 -155 -110 -250.5t-275 -95.5q-117 0 -203 47q-61 -28 -61 -88q0 -65 83 -94q45 -16 206 -40q11 -2 20 -3zM524 885q-100 0 -160.5 -61.5t-60.5 -159.5q0 -97 59 -156t160 -59t159 59t58 156
q0 98 -58.5 159.5t-156.5 61.5zM557 -301q112 0 184 34t72 103q0 26 -9 46t-30 34.5t-43 24.5t-62.5 18t-72 13t-86.5 12q-147 21 -174 28l-94 -125q0 -4 1 -13t1 -13q12 -76 97 -119t216 -43z" />
    <glyph glyph-name="h" unicode="h" horiz-adv-x="1142" 
d="M170 0v1413h172v-565q50 83 129.5 125.5t173.5 42.5q89 0 157.5 -31t111 -86t64 -124.5t23.5 -151.5v-623h-172v592q0 270 -223 270q-126 0 -195 -86t-69 -227v-549h-172z" />
    <glyph glyph-name="i" unicode="i" horiz-adv-x="503" 
d="M164 1202v211h178v-211h-178zM168 0v999h168v-999h-168z" />
    <glyph glyph-name="j" unicode="j" horiz-adv-x="509" 
d="M166 1202v211h180v-211h-180zM68 -434q-83 0 -166 31l45 147q66 -25 104 -25q61 0 90 36.5t29 113.5v1130h172v-1118q0 -144 -69 -229.5t-205 -85.5z" />
    <glyph glyph-name="k" unicode="k" horiz-adv-x="1099" 
d="M170 0v1413h170v-915l467 501h221l-366 -378l419 -621h-200l-334 516l-207 -221v-295h-170z" />
    <glyph glyph-name="l" unicode="l" horiz-adv-x="557" 
d="M354 -16q-100 0 -146 53.5t-46 169.5v1206h170v-1161q0 -58 21 -87.5t79 -29.5q18 0 76 8l2 -143q-94 -16 -156 -16z" />
    <glyph glyph-name="m" unicode="m" horiz-adv-x="1742" 
d="M170 0l-2 999h164v-157q43 89 118.5 131.5t172.5 42.5q107 0 187.5 -50.5t115.5 -154.5q48 102 134 153.5t193 51.5q89 0 157 -32.5t109.5 -91t62 -134.5t20.5 -168v-590h-170v569q0 141 -49.5 215t-161.5 74q-115 0 -182.5 -78.5t-67.5 -201.5v-578h-170v594
q0 264 -211 264q-115 0 -183.5 -79t-68.5 -201v-578h-168z" />
    <glyph glyph-name="n" unicode="n" horiz-adv-x="1136" 
d="M168 0v999h170v-151q50 82 130.5 125t174.5 43q89 0 157.5 -31t110 -86t62.5 -124.5t22 -151.5v-623h-168v592q0 125 -59.5 196.5t-171.5 71.5q-121 0 -189.5 -73t-68.5 -212v-575h-170z" />
    <glyph glyph-name="o" unicode="o" horiz-adv-x="1144" 
d="M571 -16q-143 0 -256 69.5t-174 187.5t-61 261q0 142 61 259t174 186t256 69q216 0 355 -148.5t139 -365.5q0 -142 -61.5 -260t-175.5 -188t-257 -70zM571 131q150 0 234 106t84 265q0 158 -84 262t-234 104q-149 0 -232 -103.5t-83 -262.5t83.5 -265t231.5 -106z" />
    <glyph glyph-name="p" unicode="p" horiz-adv-x="1191" 
d="M170 -414v1413h174v-180q49 94 138.5 145.5t195.5 51.5q132 0 230 -71t147 -187t49 -258q0 -143 -49 -259t-147.5 -186.5t-231.5 -70.5q-107 0 -195 51t-137 145v-594h-174zM637 137q142 0 218.5 101.5t76.5 261.5q0 159 -76.5 259.5t-218.5 100.5q-143 0 -225 -101
t-82 -259t82.5 -260.5t224.5 -102.5z" />
    <glyph glyph-name="q" unicode="q" horiz-adv-x="1191" 
d="M1022 -414h-174v594q-49 -94 -137 -145t-195 -51q-133 0 -231.5 70.5t-147.5 186.5t-49 259q0 142 49 258t147 187t230 71q106 0 195.5 -51.5t138.5 -145.5v180h174v-1413zM555 137q142 0 224.5 102.5t82.5 260.5t-82 259t-225 101q-142 0 -218.5 -100.5t-76.5 -259.5
q0 -160 76.5 -261.5t218.5 -101.5z" />
    <glyph glyph-name="r" unicode="r" horiz-adv-x="800" 
d="M168 0v999h166v-196q34 102 117 157.5t178 55.5q101 0 164 -55l-78 -140q-57 31 -111 31q-50 0 -96.5 -21.5t-86.5 -64t-64.5 -116.5t-24.5 -169v-481h-164z" />
    <glyph glyph-name="s" unicode="s" horiz-adv-x="921" 
d="M467 -16q-149 0 -261 75.5t-151 192.5l138 59q30 -79 97 -132.5t169 -53.5q99 0 153 46t54 116q0 48 -30.5 80t-79.5 49.5t-107.5 31.5t-117.5 32.5t-108 45.5t-79.5 78.5t-30.5 124.5q0 135 100 211t250 76q121 0 213 -55t147 -156l-131 -72q-78 148 -233 148
q-84 0 -134.5 -35.5t-50.5 -93.5q0 -43 31 -72.5t80.5 -46.5t109 -32t119 -36t109 -51.5t80.5 -86t31 -132.5q0 -150 -106 -230.5t-261 -80.5z" />
    <glyph glyph-name="t" unicode="t" horiz-adv-x="718" 
d="M487 -16q-136 0 -210 77t-74 218v577h-164v143h166v275l168 123v-398h268v-143h-268v-549q0 -92 36.5 -133t106.5 -41q65 0 125 29l2 -156q-73 -22 -156 -22z" />
    <glyph glyph-name="u" unicode="u" horiz-adv-x="1136" 
d="M494 -16q-89 0 -157.5 31t-110 86t-63 124.5t-22.5 151.5v622h168v-591q0 -125 59.5 -197t170.5 -72q122 0 192 73.5t70 211.5v575h168v-999h-168v152q-51 -82 -132 -125t-175 -43z" />
    <glyph glyph-name="v" unicode="v" horiz-adv-x="1001" 
d="M430 0l-410 999h187l293 -782l295 782h184l-408 -999h-141z" />
    <glyph glyph-name="w" unicode="w" horiz-adv-x="1478" 
d="M336 0l-297 999h182l203 -743l242 743h149l242 -741l203 741h182l-299 -999h-156l-248 764l-247 -764h-156z" />
    <glyph glyph-name="x" unicode="x" horiz-adv-x="1013" 
d="M35 0l358 502l-358 497h207l264 -381l264 381h207l-359 -497l361 -502h-209l-264 385l-264 -385h-207z" />
    <glyph glyph-name="y" unicode="y" horiz-adv-x="1024" 
d="M266 -414l168 430l-414 983h187l317 -786l291 786h186l-550 -1413h-185z" />
    <glyph glyph-name="z" unicode="z" horiz-adv-x="987" 
d="M911 999v-129l-620 -727h616v-143h-844v119l633 737h-602v143h817z" />
    <glyph glyph-name="braceleft" unicode="{" horiz-adv-x="622" 
d="M420 -143q-102 0 -156.5 70t-54.5 192v336q0 66 -32.5 96.5t-92.5 52.5v121q60 18 92.5 51.5t32.5 108.5v356q0 126 55.5 193t163.5 67h123v-112h-68q-131 0 -131 -150v-356q0 -88 -33 -138t-98 -75v-11q64 -28 97.5 -75.5t33.5 -126.5v-336q0 -71 31.5 -112.5
t93.5 -41.5h72v-110h-129z" />
    <glyph glyph-name="bar" unicode="|" horiz-adv-x="636" 
d="M254 -512v2046h127v-2046h-127z" />
    <glyph glyph-name="braceright" unicode="}" horiz-adv-x="622" 
d="M203 -143h-129v110h71q62 0 93.5 41.5t31.5 112.5v336q0 79 33.5 126.5t97.5 75.5v11q-65 25 -98 75t-33 138v356q0 150 -131 150h-67v112h123q108 0 163.5 -67t55.5 -193v-356q0 -75 32.5 -108.5t92.5 -51.5v-121q-29 -11 -47 -20t-38 -26t-30 -42.5t-10 -60.5v-336
q0 -122 -54.5 -192t-156.5 -70z" />
    <glyph glyph-name="asciitilde" unicode="~" horiz-adv-x="1245" 
d="M799 358q-52 0 -93 18t-64.5 45t-47.5 59t-42 59t-46.5 45t-63.5 18q-55 0 -85.5 -51t-30.5 -141h-129q0 140 66.5 224.5t178.5 84.5q63 0 110.5 -25t75.5 -61t51.5 -72t53 -61t66.5 -25q55 0 89 59.5t34 155.5h129q0 -148 -69 -240t-183 -92z" />
    <glyph glyph-name="uni00A0" unicode="&#xa0;" horiz-adv-x="563" 
 />
    <glyph glyph-name="exclamdown" unicode="&#xa1;" horiz-adv-x="628" 
d="M223 1413h185v-235h-185v235zM250 1006h129l20 -1006h-168z" />
    <glyph glyph-name="cent" unicode="&#xa2;" horiz-adv-x="1159" 
d="M557 -213v201q-190 20 -296.5 163.5t-106.5 346.5q0 95 25.5 181.5t73.5 158t126.5 118.5t177.5 58v186h90v-184q129 -9 227 -80.5t150 -200.5l-162 -63q-28 79 -84.5 128t-130.5 58v-717q76 9 132 57.5t81 125.5l154 -58q-44 -125 -140.5 -199t-226.5 -83v-195zM557 145
v709q-114 -21 -172.5 -121t-58.5 -235q0 -88 23.5 -161t77 -126t130.5 -66z" />
    <glyph glyph-name="sterling" unicode="&#xa3;" horiz-adv-x="1247" 
d="M393 143h803v-143h-1034v156q113 36 189.5 116t76.5 170q0 20 -2.5 40.5t-10 46t-11.5 39t-15 45.5t-14 40h-207v144h172q-39 106 -39 227q0 177 113 294.5t303 117.5q141 0 245 -84t152 -219l-133 -50q-37 99 -105.5 154t-158.5 55q-126 0 -199.5 -72t-73.5 -198
q0 -118 43 -225h471v-144h-436q1 -4 7.5 -23.5l8.5 -25.5t7 -24t7 -27t5.5 -25t5 -27.5t3 -26t1.5 -28.5q0 -198 -174 -303z" />
    <glyph glyph-name="currency" unicode="&#xa4;" horiz-adv-x="1390" 
d="M313 160l-90 94l103 102q-95 120 -94.5 276.5t94.5 276.5l-101 101l90 94l103 -103q122 95 278 95t277 -95l102 103l92 -92l-102 -101q95 -122 95 -279t-95 -278l102 -100l-92 -94l-102 104q-121 -95 -277.5 -95t-279.5 95zM457 397q98 -100 237.5 -100t237.5 100
q97 99 97.5 236.5t-97.5 234.5q-98 98 -237.5 98t-237.5 -98q-97 -98 -97 -237t97 -234z" />
    <glyph glyph-name="yen" unicode="&#xa5;" horiz-adv-x="1447" 
d="M633 0v219h-346v139h346v177h-346v137h266l-455 741h213l412 -698l414 698h213l-455 -741h264v-137h-344v-177h344v-139h-344v-219h-182z" />
    <glyph glyph-name="brokenbar" unicode="&#xa6;" horiz-adv-x="649" 
d="M254 731v744h141v-744h-141zM254 -307v727h141v-727h-141z" />
    <glyph glyph-name="section" unicode="&#xa7;" horiz-adv-x="1165" 
d="M610 -16q-102 0 -190.5 26.5t-161.5 92t-100 163.5l159 49q35 -103 107 -147.5t182 -44.5q114 0 181 38.5t67 114.5q0 43 -28 74.5t-74 49.5t-104.5 36t-120 32t-120 38t-104.5 54t-74 81t-28 117q0 114 86 203q-86 71 -86 178q0 135 106.5 213t270.5 78q128 0 224.5 -49
t147.5 -132l-135 -78q-67 127 -244 127q-112 0 -169.5 -46.5t-57.5 -114.5q0 -41 28 -71t74 -47t104.5 -34t120 -31t120 -38.5t104.5 -55t74 -83t28 -120.5q0 -118 -82 -200q82 -70 82 -181q0 -74 -31 -131.5t-85 -92t-122.5 -51.5t-148.5 -17zM770 518q84 44 84 135
q0 40 -20 71.5t-50 52t-76.5 39t-89 30t-98.5 28t-94 31.5q-41 -25 -61.5 -63.5t-20.5 -79.5q0 -46 26 -79.5t75 -56t97.5 -37.5t117 -34.5t110.5 -36.5z" />
    <glyph glyph-name="dieresis" unicode="&#xa8;" horiz-adv-x="843" 
d="M164 1202v211h143v-211h-143zM537 1202v211h143v-211h-143z" />
    <glyph glyph-name="copyright" unicode="&#xa9;" horiz-adv-x="1712" 
d="M856 -23q-151 0 -288.5 58t-236.5 155.5t-157.5 233t-58.5 283.5t58.5 283t157.5 233t236.5 155.5t288.5 57.5t288.5 -57.5t236.5 -155.5t157.5 -233t58.5 -283t-58.5 -283.5t-157.5 -233t-236.5 -155.5t-288.5 -58zM856 86q172 0 318 83.5t230.5 226.5t84.5 311
q0 126 -50 241t-135 198t-202 132t-246 49t-246 -49t-202 -132t-135 -198t-50 -241q0 -168 84.5 -311t230.5 -226.5t318 -83.5zM879 252q-127 0 -220 62.5t-138.5 164t-45.5 226.5q0 88 25.5 169t73.5 145.5t126.5 103t176.5 38.5q124 0 217.5 -63t142.5 -183l-133 -53
q-28 79 -88.5 125.5t-138.5 46.5q-86 0 -146.5 -48t-87.5 -120.5t-27 -160.5q0 -65 16 -122.5t47 -103.5t82 -73t116 -27q81 0 139.5 45t83.5 123l127 -49q-40 -117 -131.5 -181.5t-216.5 -64.5z" />
    <glyph glyph-name="ordfeminine" unicode="&#xaa;" horiz-adv-x="1011" 
d="M428 705q-103 0 -172.5 59.5t-69.5 155.5q0 107 77.5 160t211.5 53h201q0 33 -4 47q-15 153 -180 153q-119 0 -199 -112l-84 57q58 82 124.5 117t160.5 35q135 0 209.5 -75.5t74.5 -207.5v-428h-94l-4 117q-94 -131 -252 -131zM446 803q70 0 127.5 39t90.5 104
q12 58 12 92h-195q-89 0 -135.5 -30.5t-46.5 -87.5q0 -52 42 -84.5t105 -32.5z" />
    <glyph glyph-name="guillemotleft" unicode="&#xab;" horiz-adv-x="1003" 
d="M461 166l-406 344l406 346v-149l-232 -197l232 -195v-149zM856 166l-405 344l405 346v-149l-231 -197l231 -195v-149z" />
    <glyph glyph-name="logicalnot" unicode="&#xac;" horiz-adv-x="1320" 
d="M909 291v354h-757v152h919v-506h-162z" />
    <glyph glyph-name="uni00AD" unicode="&#xad;" horiz-adv-x="1017" 
d="M160 551v129h698v-129h-698z" />
    <glyph glyph-name="registered" unicode="&#xae;" horiz-adv-x="1712" 
d="M856 -23q-151 0 -288.5 58t-236.5 155.5t-157.5 233t-58.5 283.5t58.5 283t157.5 233t236.5 155.5t288.5 57.5t288.5 -57.5t236.5 -155.5t157.5 -233t58.5 -283t-58.5 -283.5t-157.5 -233t-236.5 -155.5t-288.5 -58zM856 86q172 0 318 83.5t230.5 226.5t84.5 311
q0 126 -50 241t-135 198t-202 132t-246 49t-246 -49t-202 -132t-135 -198t-50 -241q0 -168 84.5 -311t230.5 -226.5t318 -83.5zM621 276v861h251q132 0 212.5 -67t80.5 -179q0 -82 -45 -140t-127 -81l236 -394h-131l-217 381q-16 -2 -52 -2h-96v-379h-112zM733 750h150
q81 1 125.5 37.5t44.5 101.5q0 69 -47 107t-132 38h-141v-284z" />
    <glyph glyph-name="macron" unicode="&#xaf;" horiz-adv-x="870" 
d="M160 1196v102h551v-102h-551z" />
    <glyph glyph-name="degree" unicode="&#xb0;" horiz-adv-x="937" 
d="M469 852q-119 0 -204 84.5t-85 204.5t85 204.5t204 84.5q120 0 204.5 -84.5t84.5 -204.5t-84.5 -204.5t-204.5 -84.5zM469 967q73 0 123.5 51t50.5 123t-50.5 123t-123.5 51q-72 0 -122 -51t-50 -123t50 -123t122 -51z" />
    <glyph glyph-name="plusminus" unicode="&#xb1;" horiz-adv-x="1341" 
d="M606 188v455h-469v129h469v453h131v-453h469v-129h-469v-455h-131zM137 -129v129h1061v-129h-1061z" />
    <glyph glyph-name="uni00B2" unicode="&#xb2;" horiz-adv-x="714" 
d="M219 1104h443v-105h-627v97q48 29 81.5 50.5t86 58t90 68t79.5 73.5t68.5 81t44 85.5t17.5 91.5q0 67 -38 108t-110 41q-83 0 -125 -57.5t-45 -145.5l-112 9q0 126 76 212.5t206 86.5q118 0 191 -68t73 -188q0 -75 -35.5 -150.5t-95.5 -139t-127 -115t-141 -93.5z" />
    <glyph glyph-name="uni00B3" unicode="&#xb3;" horiz-adv-x="712" 
d="M346 985q-132 0 -218.5 71t-86.5 199l111 9q0 -81 54.5 -126.5t141.5 -45.5q82 0 137.5 41.5t55.5 117.5q0 152 -234 152v78q189 0 189 125q0 67 -42 103t-106 36q-69 0 -113 -38.5t-45 -102.5l-108 8q0 111 75 176t187 65q108 0 185 -62t77 -163q0 -123 -131 -176
q82 -19 129 -74.5t47 -136.5q0 -120 -87.5 -188t-217.5 -68z" />
    <glyph glyph-name="acute" unicode="&#xb4;" horiz-adv-x="514" 
d="M59 1126l222 287h182l-277 -287h-127z" />
    <glyph glyph-name="uni00B5" unicode="&#xb5;" horiz-adv-x="1292" 
d="M252 -342v1341h168v-591q0 -125 59.5 -197t171.5 -72q121 0 190.5 73.5t69.5 211.5v575h168v-999h-168v152q-49 -82 -131 -125t-176 -43q-147 0 -213 94v-420h-139z" />
    <glyph glyph-name="paragraph" unicode="&#xb6;" horiz-adv-x="1277" 
d="M559 -246v869q-119 0 -220.5 45.5t-167 137.5t-65.5 212t65.5 212t167 137.5t220.5 45.5h121v-1659h-121zM901 -246v1659h121v-1659h-121z" />
    <glyph glyph-name="periodcentered" unicode="&#xb7;" horiz-adv-x="661" 
d="M330 596q-58 0 -97.5 40.5t-39.5 98.5t40 97.5t97 39.5q59 0 99 -39.5t40 -97.5q0 -57 -40.5 -98t-98.5 -41z" />
    <glyph glyph-name="cedilla" unicode="&#xb8;" horiz-adv-x="589" 
d="M281 -518q-72 0 -127.5 38t-73.5 111l96 39q11 -37 41 -62.5t68 -25.5q51 0 79.5 27.5t28.5 73.5q0 53 -46.5 86.5t-129.5 37.5h-82l115 191h104l-80 -121q26 0 62 -8q78 -19 119 -65t41 -115q0 -91 -60 -149t-155 -58z" />
    <glyph glyph-name="uni00B9" unicode="&#xb9;" horiz-adv-x="458" 
d="M215 1847h109v-848h-115v623h-205v90h129q82 0 82 74v61z" />
    <glyph glyph-name="ordmasculine" unicode="&#xba;" horiz-adv-x="1007" 
d="M504 715q-152 0 -250 103.5t-98 254.5q0 150 98 253.5t250 103.5q150 0 248 -103.5t98 -253.5q0 -151 -98 -254.5t-248 -103.5zM504 817q107 0 167 72.5t60 183.5t-60 182.5t-167 71.5q-109 0 -169.5 -71.5t-60.5 -182.5q0 -112 60.5 -184t169.5 -72z" />
    <glyph glyph-name="guillemotright" unicode="&#xbb;" horiz-adv-x="1003" 
d="M147 166v149l232 195l-232 197v149l406 -346zM543 166v149l231 195l-231 197v149l405 -346z" />
    <glyph glyph-name="onequarter" unicode="&#xbc;" horiz-adv-x="1452" 
d="M209 573v623h-205v90h129q82 0 82 74v61h109v-848h-115zM954 1413h123l-813 -1413h-123zM1282 309h137v-106h-137v-203h-115v203h-407v69l422 576h100v-539zM909 309h258v363z" />
    <glyph glyph-name="onehalf" unicode="&#xbd;" horiz-adv-x="1474" 
d="M209 573v623h-205v90h129q82 0 82 74v61h109v-848h-115zM954 1413h123l-813 -1413h-123zM979 104h442v-104h-626v96q48 29 81.5 50.5t86 58t90 68t79.5 73.5t68.5 81t44 85.5t17.5 91.5q0 67 -38 108.5t-110 41.5q-83 0 -125 -57.5t-45 -145.5l-113 8q0 126 76.5 212.5
t206.5 86.5q118 0 191 -68t73 -188q0 -75 -35.5 -150.5t-95.5 -139t-127 -115t-141 -93.5z" />
    <glyph glyph-name="threequarters" unicode="&#xbe;" horiz-adv-x="1705" 
d="M651 819q0 -120 -87.5 -188t-217.5 -68q-132 0 -218.5 71t-86.5 200l111 8q0 -81 54.5 -126.5t141.5 -45.5q82 0 137.5 41.5t55.5 117.5q0 152 -234 152v78q189 0 189 125q0 67 -42 103t-106 36q-69 0 -113 -38.5t-45 -102.5l-108 8q0 111 75 176.5t187 65.5
q108 0 185 -62.5t77 -163.5q0 -123 -131 -176q82 -19 129 -74.5t47 -136.5zM1208 1413h123l-813 -1413h-123zM1536 309h137v-106h-137v-203h-115v203h-407v69l422 576h100v-539zM1163 309h258v363z" />
    <glyph glyph-name="questiondown" unicode="&#xbf;" horiz-adv-x="1036" 
d="M616 1413v-235h-184v235h184zM598 1010v-160q0 -63 -19 -110.5t-50 -76.5t-68 -52t-74 -44.5t-68 -47t-50 -65.5t-19 -94q0 -116 74 -175.5t206 -59.5q133 0 203 70t70 198h151q-1 -192 -114.5 -300.5t-304.5 -108.5q-190 0 -312.5 100.5t-122.5 280.5q0 73 19.5 130
t51 92.5t69.5 63t75.5 48t69 41t51 48.5t19.5 64v158h143z" />
    <glyph glyph-name="Agrave" unicode="&#xc0;" horiz-adv-x="1314" 
d="M608 1526l-274 301h180l221 -301h-127zM49 0l539 1413h141l537 -1413h-191l-119 330h-594l-120 -330h-193zM418 481h483l-242 680z" />
    <glyph glyph-name="Aacute" unicode="&#xc1;" horiz-adv-x="1314" 
d="M573 1540l222 287h182l-277 -287h-127zM49 0l539 1413h141l537 -1413h-191l-119 330h-594l-120 -330h-193zM418 481h483l-242 680z" />
    <glyph glyph-name="Acircumflex" unicode="&#xc2;" horiz-adv-x="1314" 
d="M350 1522l305 329l308 -329h-138l-170 182l-170 -182h-135zM49 0l539 1413h141l537 -1413h-191l-119 330h-594l-120 -330h-193zM418 481h483l-242 680z" />
    <glyph glyph-name="Atilde" unicode="&#xc3;" horiz-adv-x="1314" 
d="M793 1546q-45 0 -81 17.5t-58.5 42t-41.5 49t-42 42t-50 17.5q-42 0 -66 -40.5t-24 -112.5h-98q0 124 51.5 192t142.5 68q42 0 75.5 -17t56 -41.5t43 -49t44 -41.5t50.5 -17q37 0 60.5 42.5t23.5 114.5h104q0 -124 -51 -195t-139 -71zM49 0l539 1413h141l537 -1413h-191
l-119 330h-594l-120 -330h-193zM418 481h483l-242 680z" />
    <glyph glyph-name="Adieresis" unicode="&#xc4;" horiz-adv-x="1314" 
d="M397 1616v211h144v-211h-144zM770 1616v211h143v-211h-143zM49 0l539 1413h141l537 -1413h-191l-119 330h-594l-120 -330h-193zM418 481h483l-242 680z" />
    <glyph glyph-name="Aring" unicode="&#xc5;" horiz-adv-x="1314" 
d="M653 1499q-86 0 -145 61t-59 146q0 86 59.5 146.5t144.5 60.5t146 -60.5t61 -146.5q0 -87 -60 -147t-147 -60zM653 1593q49 0 81 32.5t32 82.5q0 47 -31.5 79t-81.5 32q-47 0 -78.5 -32.5t-31.5 -78.5q0 -49 32 -82t78 -33zM49 0l539 1413h141l537 -1413h-191l-119 330
h-594l-120 -330h-193zM418 481h483l-242 680z" />
    <glyph glyph-name="AE" unicode="&#xc6;" horiz-adv-x="1894" 
d="M49 0l535 1413h1185v-156h-745v-475h651v-147h-651v-475h745v-160h-921v330h-490l-116 -330h-193zM414 467h434v797h-152z" />
    <glyph glyph-name="Ccedilla" unicode="&#xc7;" horiz-adv-x="1447" 
d="M1368 375q-77 -175 -210 -273.5t-316 -113.5l-72 -111q25 0 61 -8q78 -19 119 -65t41 -115q0 -91 -60 -149t-155 -58q-72 0 -127.5 38t-73.5 111l97 39q11 -37 40.5 -62.5t67.5 -25.5q51 0 80 27.5t29 73.5q0 53 -46.5 86.5t-129.5 37.5h-82l106 177q-152 6 -271 63.5
t-194.5 155.5t-115 226.5t-39.5 279.5q0 155 41.5 285.5t121.5 228.5t207 153.5t289 55.5q209 0 358.5 -99t231.5 -291l-166 -65q-93 287 -426 287q-238 0 -360.5 -149t-122.5 -400q0 -122 28 -222.5t85 -177.5t150 -120t216 -43q159 0 264.5 69t169.5 221z" />
    <glyph glyph-name="Egrave" unicode="&#xc8;" horiz-adv-x="1263" 
d="M629 1526l-275 301h181l221 -301h-127zM211 0v1413h928v-162h-752v-460h684v-164h-684v-461h752v-166h-928z" />
    <glyph glyph-name="Eacute" unicode="&#xc9;" horiz-adv-x="1263" 
d="M592 1540l221 287h182l-276 -287h-127zM211 0v1413h928v-162h-752v-460h684v-164h-684v-461h752v-166h-928z" />
    <glyph glyph-name="Ecircumflex" unicode="&#xca;" horiz-adv-x="1263" 
d="M369 1522l305 329l307 -329h-137l-170 182l-170 -182h-135zM211 0v1413h928v-162h-752v-460h684v-164h-684v-461h752v-166h-928z" />
    <glyph glyph-name="Edieresis" unicode="&#xcb;" horiz-adv-x="1263" 
d="M416 1616v211h143v-211h-143zM788 1616v211h144v-211h-144zM211 0v1413h928v-162h-752v-460h684v-164h-684v-461h752v-166h-928z" />
    <glyph glyph-name="Igrave" unicode="&#xcc;" horiz-adv-x="595" 
d="M250 1526l-275 301h181l221 -301h-127zM211 0v1413h176v-1413h-176z" />
    <glyph glyph-name="Iacute" unicode="&#xcd;" horiz-adv-x="595" 
d="M213 1540l221 287h182l-276 -287h-127zM211 0v1413h176v-1413h-176z" />
    <glyph glyph-name="Icircumflex" unicode="&#xce;" horiz-adv-x="595" 
d="M-8 1522l305 329l307 -329h-137l-170 182l-170 -182h-135zM211 0v1413h176v-1413h-176z" />
    <glyph glyph-name="Idieresis" unicode="&#xcf;" horiz-adv-x="595" 
d="M39 1616v211h143v-211h-143zM412 1616v211h143v-211h-143zM211 0v1413h176v-1413h-176z" />
    <glyph glyph-name="Eth" unicode="&#xd0;" horiz-adv-x="1439" 
d="M600 1413q353 0 540 -185.5t187 -531.5q0 -333 -189 -514.5t-540 -181.5h-387v649h-150v115h150v649h389zM582 162q274 0 421.5 132t147.5 408q0 282 -134 415.5t-419 133.5h-211v-487h309v-115h-309v-487h195z" />
    <glyph glyph-name="Ntilde" unicode="&#xd1;" horiz-adv-x="1437" 
d="M582 1714q-42 0 -66 -40.5t-24 -112.5h-99q0 124 52 192t143 68q42 0 75.5 -17t56 -41.5t42.5 -49t43.5 -41.5t50.5 -17q37 0 60.5 42.5t23.5 114.5h104q0 -124 -51 -195t-139 -71q-45 0 -81 17.5t-58 42t-41.5 49t-42 42t-49.5 17.5zM1057 1413h170v-1413h-183
l-665 1128v-1128h-168v1413h180l666 -1124v1124z" />
    <glyph glyph-name="Ograve" unicode="&#xd2;" horiz-adv-x="1548" 
d="M725 1526l-274 301h180l221 -301h-127zM774 -16q-164 0 -292.5 58.5t-207 159.5t-119 229t-40.5 276t40.5 276t119 229t207 159.5t292.5 58.5t292.5 -58.5t207.5 -159.5t119.5 -229.5t40.5 -275.5t-40.5 -275.5t-119.5 -229.5t-207.5 -159.5t-292.5 -58.5zM774 139
q122 0 215 45.5t148 125t82.5 179.5t27.5 218q0 94 -16.5 176.5t-53.5 154.5t-91 124t-134 82t-178 30t-178 -30t-134 -82t-91 -124t-53.5 -154.5t-16.5 -176.5q0 -118 27.5 -218t82.5 -179.5t148 -125t215 -45.5z" />
    <glyph glyph-name="Oacute" unicode="&#xd3;" horiz-adv-x="1548" 
d="M690 1540l221 287h183l-277 -287h-127zM774 -16q-164 0 -292.5 58.5t-207 159.5t-119 229t-40.5 276t40.5 276t119 229t207 159.5t292.5 58.5t292.5 -58.5t207.5 -159.5t119.5 -229.5t40.5 -275.5t-40.5 -275.5t-119.5 -229.5t-207.5 -159.5t-292.5 -58.5zM774 139
q122 0 215 45.5t148 125t82.5 179.5t27.5 218q0 94 -16.5 176.5t-53.5 154.5t-91 124t-134 82t-178 30t-178 -30t-134 -82t-91 -124t-53.5 -154.5t-16.5 -176.5q0 -118 27.5 -218t82.5 -179.5t148 -125t215 -45.5z" />
    <glyph glyph-name="Ocircumflex" unicode="&#xd4;" horiz-adv-x="1548" 
d="M467 1522l305 329l307 -329h-137l-170 182l-170 -182h-135zM774 -16q-164 0 -292.5 58.5t-207 159.5t-119 229t-40.5 276t40.5 276t119 229t207 159.5t292.5 58.5t292.5 -58.5t207.5 -159.5t119.5 -229.5t40.5 -275.5t-40.5 -275.5t-119.5 -229.5t-207.5 -159.5
t-292.5 -58.5zM774 139q122 0 215 45.5t148 125t82.5 179.5t27.5 218q0 94 -16.5 176.5t-53.5 154.5t-91 124t-134 82t-178 30t-178 -30t-134 -82t-91 -124t-53.5 -154.5t-16.5 -176.5q0 -118 27.5 -218t82.5 -179.5t148 -125t215 -45.5z" />
    <glyph glyph-name="Otilde" unicode="&#xd5;" horiz-adv-x="1548" 
d="M909 1546q-45 0 -81 17.5t-58 42t-41.5 49t-42 42t-49.5 17.5q-42 0 -66 -40.5t-24 -112.5h-98q0 124 51.5 192t142.5 68q42 0 75.5 -17t56 -41.5t42.5 -49t43.5 -41.5t50.5 -17q37 0 60.5 42.5t23.5 114.5h105q0 -124 -51.5 -195t-139.5 -71zM774 -16
q-164 0 -292.5 58.5t-207 159.5t-119 229t-40.5 276t40.5 276t119 229t207 159.5t292.5 58.5t292.5 -58.5t207.5 -159.5t119.5 -229.5t40.5 -275.5t-40.5 -275.5t-119.5 -229.5t-207.5 -159.5t-292.5 -58.5zM774 139q122 0 215 45.5t148 125t82.5 179.5t27.5 218
q0 94 -16.5 176.5t-53.5 154.5t-91 124t-134 82t-178 30t-178 -30t-134 -82t-91 -124t-53.5 -154.5t-16.5 -176.5q0 -118 27.5 -218t82.5 -179.5t148 -125t215 -45.5z" />
    <glyph glyph-name="Odieresis" unicode="&#xd6;" horiz-adv-x="1548" 
d="M514 1616v211h143v-211h-143zM887 1616v211h143v-211h-143zM774 -16q-164 0 -292.5 58.5t-207 159.5t-119 229t-40.5 276t40.5 276t119 229t207 159.5t292.5 58.5t292.5 -58.5t207.5 -159.5t119.5 -229.5t40.5 -275.5t-40.5 -275.5t-119.5 -229.5t-207.5 -159.5
t-292.5 -58.5zM774 139q122 0 215 45.5t148 125t82.5 179.5t27.5 218q0 94 -16.5 176.5t-53.5 154.5t-91 124t-134 82t-178 30t-178 -30t-134 -82t-91 -124t-53.5 -154.5t-16.5 -176.5q0 -118 27.5 -218t82.5 -179.5t148 -125t215 -45.5z" />
    <glyph glyph-name="multiply" unicode="&#xd7;" horiz-adv-x="1095" 
d="M866 215l-317 320l-320 -320l-90 92l318 318l-318 317l90 92l320 -317l315 317l92 -92l-317 -317l317 -318z" />
    <glyph glyph-name="Oslash" unicode="&#xd8;" horiz-adv-x="1548" 
d="M1196 1290q118 -99 178 -251t60 -332q0 -147 -40.5 -275.5t-119.5 -229.5t-207.5 -159.5t-292.5 -58.5q-195 0 -334 79l-39 -63h-129l78 125q-117 98 -176 250.5t-59 331.5q0 148 40.5 276t119 229t207 159.5t292.5 58.5q186 0 332 -78l37 61h129zM301 707
q0 -282 139 -435l580 940q-108 62 -246 62q-98 0 -178 -30t-134 -82t-91 -124t-53.5 -154.5t-16.5 -176.5zM774 139q122 0 215 45.5t148 125t82.5 179.5t27.5 218q0 283 -141 436l-580 -940q103 -64 248 -64z" />
    <glyph glyph-name="Ugrave" unicode="&#xd9;" horiz-adv-x="1394" 
d="M647 1526l-274 301h180l221 -301h-127zM696 -16q-258 0 -387 145t-129 408v876h176v-856q0 -202 79.5 -302.5t260.5 -100.5q182 0 262 101.5t80 303.5v854h176v-866q0 -269 -129 -416t-389 -147z" />
    <glyph glyph-name="Uacute" unicode="&#xda;" horiz-adv-x="1394" 
d="M612 1540l222 287h182l-277 -287h-127zM696 -16q-258 0 -387 145t-129 408v876h176v-856q0 -202 79.5 -302.5t260.5 -100.5q182 0 262 101.5t80 303.5v854h176v-866q0 -269 -129 -416t-389 -147z" />
    <glyph glyph-name="Ucircumflex" unicode="&#xdb;" horiz-adv-x="1394" 
d="M389 1522l305 329l307 -329h-137l-170 182l-170 -182h-135zM696 -16q-258 0 -387 145t-129 408v876h176v-856q0 -202 79.5 -302.5t260.5 -100.5q182 0 262 101.5t80 303.5v854h176v-866q0 -269 -129 -416t-389 -147z" />
    <glyph glyph-name="Udieresis" unicode="&#xdc;" horiz-adv-x="1394" 
d="M436 1616v211h144v-211h-144zM809 1616v211h143v-211h-143zM696 -16q-258 0 -387 145t-129 408v876h176v-856q0 -202 79.5 -302.5t260.5 -100.5q182 0 262 101.5t80 303.5v854h176v-866q0 -269 -129 -416t-389 -147z" />
    <glyph glyph-name="Yacute" unicode="&#xdd;" horiz-adv-x="1325" 
d="M578 1540l221 287h182l-276 -287h-127zM571 0v543l-534 870h213l412 -698l413 698h213l-534 -870v-543h-183z" />
    <glyph glyph-name="Thorn" unicode="&#xde;" horiz-adv-x="1177" 
d="M211 0v1413h176v-239h229q219 0 351.5 -108.5t132.5 -299.5q0 -189 -131.5 -294t-352.5 -105h-229v-367h-176zM387 532h229q310 0 310 234q0 117 -79 179.5t-231 62.5h-229v-476z" />
    <glyph glyph-name="germandbls" unicode="&#xdf;" horiz-adv-x="1155" 
d="M684 -16q-96 0 -217 41l51 145q91 -43 166 -43q89 0 139.5 52.5t50.5 144.5q0 47 -11.5 83.5t-38.5 68t-46 48t-59 45.5l-12 9q-38 31 -60 53t-41.5 60.5t-19.5 82.5q0 55 24.5 92t77.5 84q42 37 62 74.5t20 89.5q0 82 -47.5 128t-130.5 46q-52 0 -94 -21t-69.5 -58.5
t-47 -83.5t-29.5 -102.5t-14 -108t-4 -107.5v-807h-166v807q0 302 108 463.5t308 161.5q155 0 252.5 -90t97.5 -228q0 -77 -29.5 -130t-77.5 -101q-7 -7 -25 -24.5t-24.5 -24.5t-17 -19.5t-14 -21.5t-3.5 -19q0 -8 2.5 -16t9.5 -17t12.5 -15.5t18.5 -17.5t20 -17t24 -19
t24 -19q39 -29 66.5 -54.5t58.5 -65t47 -91.5t16 -114q0 -154 -97 -249t-261 -95z" />
    <glyph glyph-name="agrave" unicode="&#xe0;" horiz-adv-x="1060" 
d="M588 1112h-127l-275 301h181zM512 1016q193 0 301.5 -109.5t108.5 -298.5v-608h-142l-12 176q-52 -93 -145 -142.5t-199 -49.5q-157 0 -254.5 83t-97.5 228q0 287 411 287h283q0 151 -57.5 218.5t-196.5 67.5q-171 0 -270 -155l-131 94q77 104 172.5 156.5t228.5 52.5z
M457 127q122 0 203.5 74t105.5 192v66h-272q-122 0 -185 -45t-63 -123q0 -75 55 -119.5t156 -44.5z" />
    <glyph glyph-name="aacute" unicode="&#xe1;" horiz-adv-x="1060" 
d="M827 1413l-276 -287h-127l221 287h182zM512 1016q193 0 301.5 -109.5t108.5 -298.5v-608h-142l-12 176q-52 -93 -145 -142.5t-199 -49.5q-157 0 -254.5 83t-97.5 228q0 287 411 287h283q0 151 -57.5 218.5t-196.5 67.5q-171 0 -270 -155l-131 94q77 104 172.5 156.5
t228.5 52.5zM457 127q122 0 203.5 74t105.5 192v66h-272q-122 0 -185 -45t-63 -123q0 -75 55 -119.5t156 -44.5z" />
    <glyph glyph-name="acircumflex" unicode="&#xe2;" horiz-adv-x="1060" 
d="M506 1290l-170 -182h-135l305 330l307 -330h-137zM512 1016q193 0 301.5 -109.5t108.5 -298.5v-608h-142l-12 176q-52 -93 -145 -142.5t-199 -49.5q-157 0 -254.5 83t-97.5 228q0 287 411 287h283q0 151 -57.5 218.5t-196.5 67.5q-171 0 -270 -155l-131 94
q77 104 172.5 156.5t228.5 52.5zM457 127q122 0 203.5 74t105.5 192v66h-272q-122 0 -185 -45t-63 -123q0 -75 55 -119.5t156 -44.5z" />
    <glyph glyph-name="atilde" unicode="&#xe3;" horiz-adv-x="1060" 
d="M371 1300q-42 0 -66 -40.5t-24 -112.5h-99q0 124 52 192t143 68q42 0 75.5 -17t56 -41.5t42.5 -49t43.5 -41.5t50.5 -17q37 0 60.5 43t23.5 115h105q0 -124 -51.5 -195t-139.5 -71q-45 0 -81 17t-58 41.5t-41.5 49.5t-42 42t-49.5 17zM512 1016q193 0 301.5 -109.5
t108.5 -298.5v-608h-142l-12 176q-52 -93 -145 -142.5t-199 -49.5q-157 0 -254.5 83t-97.5 228q0 287 411 287h283q0 151 -57.5 218.5t-196.5 67.5q-171 0 -270 -155l-131 94q77 104 172.5 156.5t228.5 52.5zM457 127q122 0 203.5 74t105.5 192v66h-272q-122 0 -185 -45
t-63 -123q0 -75 55 -119.5t156 -44.5z" />
    <glyph glyph-name="adieresis" unicode="&#xe4;" horiz-adv-x="1060" 
d="M391 1413v-211h-143v211h143zM764 1413v-211h-143v211h143zM512 1016q193 0 301.5 -109.5t108.5 -298.5v-608h-142l-12 176q-52 -93 -145 -142.5t-199 -49.5q-157 0 -254.5 83t-97.5 228q0 287 411 287h283q0 151 -57.5 218.5t-196.5 67.5q-171 0 -270 -155l-131 94
q77 104 172.5 156.5t228.5 52.5zM457 127q122 0 203.5 74t105.5 192v66h-272q-122 0 -185 -45t-63 -123q0 -75 55 -119.5t156 -44.5z" />
    <glyph glyph-name="aring" unicode="&#xe5;" horiz-adv-x="1060" 
d="M506 1085q-86 0 -145.5 61t-59.5 146q0 86 60 146.5t145 60.5t146 -60.5t61 -146.5q0 -87 -60 -147t-147 -60zM506 1405q-47 0 -79 -32.5t-32 -78.5q0 -49 32.5 -81.5t78.5 -32.5q49 0 80.5 32t31.5 82q0 47 -31 79t-81 32zM512 1016q193 0 301.5 -109.5t108.5 -298.5
v-608h-142l-12 176q-52 -93 -145 -142.5t-199 -49.5q-157 0 -254.5 83t-97.5 228q0 287 411 287h283q0 151 -57.5 218.5t-196.5 67.5q-171 0 -270 -155l-131 94q77 104 172.5 156.5t228.5 52.5zM457 127q122 0 203.5 74t105.5 192v66h-272q-122 0 -185 -45t-63 -123
q0 -75 55 -119.5t156 -44.5z" />
    <glyph glyph-name="ae" unicode="&#xe6;" horiz-adv-x="1718" 
d="M416 -16q-148 0 -247 83t-99 220q0 152 107.5 219t305.5 67h281q0 43 -6 80q-12 109 -74 162t-180 53q-170 0 -271 -145l-120 88q76 104 171.5 153.5t225.5 49.5q131 0 221 -59.5t127 -168.5q53 106 140 166t204 60q95 0 171 -29t124.5 -76t80.5 -111.5t45 -131
t13 -138.5q0 -53 -8 -77h-702q6 -144 77 -227t201 -83q91 0 155.5 27.5t125.5 91.5l119 -104q-86 -89 -180 -127.5t-218 -38.5q-133 0 -228.5 57.5t-143.5 159.5q-70 -107 -168 -164t-250 -57zM924 573h544q3 34 -4 68q-13 97 -82.5 162t-193.5 65q-119 0 -190 -84.5
t-74 -210.5zM440 111q117 0 198.5 52t141.5 156q-12 47 -16 130h-272q-128 0 -195.5 -41.5t-67.5 -120.5t57.5 -127.5t153.5 -48.5z" />
    <glyph glyph-name="ccedilla" unicode="&#xe7;" horiz-adv-x="1011" 
d="M543 137q90 0 155.5 50.5t92.5 136.5l153 -58q-43 -123 -136.5 -196t-219.5 -84l-72 -109q26 0 62 -8q78 -19 118.5 -65t40.5 -115q0 -91 -60 -149t-155 -58q-72 0 -127 38t-73 111l96 39q11 -37 40.5 -62.5t67.5 -25.5q51 0 80 27.5t29 73.5q0 53 -46.5 86.5
t-129.5 37.5h-82l108 181q-127 14 -219.5 87.5t-137 182.5t-44.5 240q0 80 17.5 154.5t55 141t91 116t129.5 78t166 28.5q143 0 249.5 -71.5t159.5 -209.5l-161 -63q-28 88 -93.5 139t-154.5 51q-95 0 -162 -53.5t-96 -133.5t-29 -177q0 -58 10.5 -110t33 -98t55.5 -80
t81 -53.5t107 -19.5z" />
    <glyph glyph-name="egrave" unicode="&#xe8;" horiz-adv-x="1073" 
d="M485 1112l-274 301h180l221 -301h-127zM563 -16q-152 0 -262.5 70t-163.5 184.5t-53 257.5q0 104 30 197t86.5 165.5t146 115t200.5 42.5q97 0 175 -30t127 -77.5t82 -111t46.5 -127t13.5 -129.5q0 -60 -8 -92h-719q9 -147 86.5 -229.5t214.5 -82.5q86 0 150.5 27.5
t124.5 93.5l118 -104q-85 -89 -178.5 -129.5t-216.5 -40.5zM264 573h559q0 44 -4 64q-13 100 -83 167.5t-189 67.5q-123 0 -196 -81.5t-87 -217.5z" />
    <glyph glyph-name="eacute" unicode="&#xe9;" horiz-adv-x="1073" 
d="M449 1126l221 287h182l-277 -287h-126zM563 -16q-152 0 -262.5 70t-163.5 184.5t-53 257.5q0 104 30 197t86.5 165.5t146 115t200.5 42.5q97 0 175 -30t127 -77.5t82 -111t46.5 -127t13.5 -129.5q0 -60 -8 -92h-719q9 -147 86.5 -229.5t214.5 -82.5q86 0 150.5 27.5
t124.5 93.5l118 -104q-85 -89 -178.5 -129.5t-216.5 -40.5zM264 573h559q0 44 -4 64q-13 100 -83 167.5t-189 67.5q-123 0 -196 -81.5t-87 -217.5z" />
    <glyph glyph-name="ecircumflex" unicode="&#xea;" horiz-adv-x="1073" 
d="M225 1108l305 330l308 -330h-138l-170 182l-170 -182h-135zM563 -16q-152 0 -262.5 70t-163.5 184.5t-53 257.5q0 104 30 197t86.5 165.5t146 115t200.5 42.5q97 0 175 -30t127 -77.5t82 -111t46.5 -127t13.5 -129.5q0 -60 -8 -92h-719q9 -147 86.5 -229.5t214.5 -82.5
q86 0 150.5 27.5t124.5 93.5l118 -104q-85 -89 -178.5 -129.5t-216.5 -40.5zM264 573h559q0 44 -4 64q-13 100 -83 167.5t-189 67.5q-123 0 -196 -81.5t-87 -217.5z" />
    <glyph glyph-name="edieresis" unicode="&#xeb;" horiz-adv-x="1073" 
d="M272 1202v211h144v-211h-144zM645 1202v211h143v-211h-143zM563 -16q-152 0 -262.5 70t-163.5 184.5t-53 257.5q0 104 30 197t86.5 165.5t146 115t200.5 42.5q97 0 175 -30t127 -77.5t82 -111t46.5 -127t13.5 -129.5q0 -60 -8 -92h-719q9 -147 86.5 -229.5t214.5 -82.5
q86 0 150.5 27.5t124.5 93.5l118 -104q-85 -89 -178.5 -129.5t-216.5 -40.5zM264 573h559q0 44 -4 64q-13 100 -83 167.5t-189 67.5q-123 0 -196 -81.5t-87 -217.5z" />
    <glyph glyph-name="igrave" unicode="&#xec;" horiz-adv-x="505" 
d="M205 1112l-275 301h181l221 -301h-127zM168 0v999h170v-999h-170z" />
    <glyph glyph-name="iacute" unicode="&#xed;" horiz-adv-x="505" 
d="M168 1126l221 287h182l-276 -287h-127zM168 0v999h170v-999h-170z" />
    <glyph glyph-name="icircumflex" unicode="&#xee;" horiz-adv-x="505" 
d="M-53 1108l305 330l307 -330h-137l-170 182l-170 -182h-135zM168 0v999h170v-999h-170z" />
    <glyph glyph-name="idieresis" unicode="&#xef;" horiz-adv-x="505" 
d="M-6 1202v211h143v-211h-143zM367 1202v211h143v-211h-143zM168 0v999h170v-999h-170z" />
    <glyph glyph-name="eth" unicode="&#xf0;" horiz-adv-x="1122" 
d="M561 -16q-137 0 -250.5 65.5t-177 175t-63.5 236.5q0 129 66.5 236t178.5 167t244 60q70 0 121 -39l-152 250l-131 -117h-123l215 176l-137 219h187l79 -131l162 131h123l-246 -190l322 -523q72 -116 72 -243q0 -96 -39 -184t-104.5 -151t-156 -100.5t-190.5 -37.5z
M559 147q132 0 226 92t94 222q0 128 -94 219.5t-226 91.5q-130 0 -223.5 -91.5t-93.5 -219.5q0 -129 93.5 -221.5t223.5 -92.5z" />
    <glyph glyph-name="ntilde" unicode="&#xf1;" horiz-adv-x="1136" 
d="M711 1133q-45 0 -81 17t-58.5 41.5t-41.5 49.5t-42 42t-50 17q-42 0 -66 -40.5t-24 -112.5h-98q0 124 51.5 192t142.5 68q42 0 75.5 -17t56 -41.5t43 -49t44 -41.5t50.5 -17q37 0 60.5 43t23.5 115h104q0 -124 -51 -195t-139 -71zM168 0v999h170v-151q50 82 130.5 125
t174.5 43q89 0 157.5 -31t110 -86t62.5 -124.5t22 -151.5v-623h-168v592q0 125 -59.5 196.5t-171.5 71.5q-121 0 -189.5 -73t-68.5 -212v-575h-170z" />
    <glyph glyph-name="ograve" unicode="&#xf2;" horiz-adv-x="1144" 
d="M524 1112l-274 301h180l221 -301h-127zM571 -16q-143 0 -256 69.5t-174 187.5t-61 261q0 142 61 259t174 186t256 69q216 0 355 -148.5t139 -365.5q0 -142 -61.5 -260t-175.5 -188t-257 -70zM571 131q150 0 234 106t84 265q0 158 -84 262t-234 104q-149 0 -232 -103.5
t-83 -262.5t83.5 -265t231.5 -106z" />
    <glyph glyph-name="oacute" unicode="&#xf3;" horiz-adv-x="1144" 
d="M487 1126l222 287h182l-277 -287h-127zM571 -16q-143 0 -256 69.5t-174 187.5t-61 261q0 142 61 259t174 186t256 69q216 0 355 -148.5t139 -365.5q0 -142 -61.5 -260t-175.5 -188t-257 -70zM571 131q150 0 234 106t84 265q0 158 -84 262t-234 104q-149 0 -232 -103.5
t-83 -262.5t83.5 -265t231.5 -106z" />
    <glyph glyph-name="ocircumflex" unicode="&#xf4;" horiz-adv-x="1144" 
d="M266 1108l305 330l308 -330h-138l-170 182l-170 -182h-135zM571 -16q-143 0 -256 69.5t-174 187.5t-61 261q0 142 61 259t174 186t256 69q216 0 355 -148.5t139 -365.5q0 -142 -61.5 -260t-175.5 -188t-257 -70zM571 131q150 0 234 106t84 265q0 158 -84 262t-234 104
q-149 0 -232 -103.5t-83 -262.5t83.5 -265t231.5 -106z" />
    <glyph glyph-name="otilde" unicode="&#xf5;" horiz-adv-x="1144" 
d="M707 1133q-45 0 -81 17t-58.5 41.5t-41.5 49.5t-42 42t-50 17q-42 0 -66 -40.5t-24 -112.5h-98q0 124 51.5 192t142.5 68q42 0 75.5 -17t56 -41.5t43 -49t44 -41.5t50.5 -17q37 0 60.5 43t23.5 115h104q0 -124 -51 -195t-139 -71zM571 -16q-143 0 -256 69.5t-174 187.5
t-61 261q0 142 61 259t174 186t256 69q216 0 355 -148.5t139 -365.5q0 -142 -61.5 -260t-175.5 -188t-257 -70zM571 131q150 0 234 106t84 265q0 158 -84 262t-234 104q-149 0 -232 -103.5t-83 -262.5t83.5 -265t231.5 -106z" />
    <glyph glyph-name="odieresis" unicode="&#xf6;" horiz-adv-x="1144" 
d="M313 1202v211h144v-211h-144zM686 1202v211h143v-211h-143zM571 -16q-143 0 -256 69.5t-174 187.5t-61 261q0 142 61 259t174 186t256 69q216 0 355 -148.5t139 -365.5q0 -142 -61.5 -260t-175.5 -188t-257 -70zM571 131q150 0 234 106t84 265q0 158 -84 262t-234 104
q-149 0 -232 -103.5t-83 -262.5t83.5 -265t231.5 -106z" />
    <glyph glyph-name="divide" unicode="&#xf7;" horiz-adv-x="1003" 
d="M408 862v236h184v-236h-184zM115 563v131h768v-131h-768zM408 143v234h184v-234h-184z" />
    <glyph glyph-name="oslash" unicode="&#xf8;" horiz-adv-x="1144" 
d="M874 915q90 -71 140.5 -179t50.5 -234q0 -142 -61.5 -260t-175.5 -188t-257 -70q-130 0 -235 57l-27 -41h-90l51 84q-90 71 -140 180.5t-50 237.5q0 142 61 259t174 186t256 69q128 0 238 -58l25 41h92zM256 502q0 -179 98 -283l375 610q-70 39 -158 39
q-149 0 -232 -103.5t-83 -262.5zM571 131q150 0 234 106t84 265q0 177 -98 278l-375 -608q65 -41 155 -41z" />
    <glyph glyph-name="ugrave" unicode="&#xf9;" horiz-adv-x="1136" 
d="M518 1112l-274 301h180l221 -301h-127zM494 -16q-89 0 -157.5 31t-110 86t-63 124.5t-22.5 151.5v622h168v-591q0 -125 59.5 -197t170.5 -72q122 0 192 73.5t70 211.5v575h168v-999h-168v152q-51 -82 -132 -125t-175 -43z" />
    <glyph glyph-name="uacute" unicode="&#xfa;" horiz-adv-x="1136" 
d="M483 1126l222 287h182l-277 -287h-127zM494 -16q-89 0 -157.5 31t-110 86t-63 124.5t-22.5 151.5v622h168v-591q0 -125 59.5 -197t170.5 -72q122 0 192 73.5t70 211.5v575h168v-999h-168v152q-51 -82 -132 -125t-175 -43z" />
    <glyph glyph-name="ucircumflex" unicode="&#xfb;" horiz-adv-x="1136" 
d="M260 1108l305 330l307 -330h-137l-170 182l-170 -182h-135zM494 -16q-89 0 -157.5 31t-110 86t-63 124.5t-22.5 151.5v622h168v-591q0 -125 59.5 -197t170.5 -72q122 0 192 73.5t70 211.5v575h168v-999h-168v152q-51 -82 -132 -125t-175 -43z" />
    <glyph glyph-name="udieresis" unicode="&#xfc;" horiz-adv-x="1136" 
d="M307 1202v211h144v-211h-144zM680 1202v211h143v-211h-143zM494 -16q-89 0 -157.5 31t-110 86t-63 124.5t-22.5 151.5v622h168v-591q0 -125 59.5 -197t170.5 -72q122 0 192 73.5t70 211.5v575h168v-999h-168v152q-51 -82 -132 -125t-175 -43z" />
    <glyph glyph-name="yacute" unicode="&#xfd;" horiz-adv-x="1024" 
d="M426 1126l221 287h182l-276 -287h-127zM266 -414l168 430l-414 983h187l317 -786l291 786h186l-550 -1413h-185z" />
    <glyph glyph-name="thorn" unicode="&#xfe;" horiz-adv-x="1191" 
d="M170 -414v1827h174v-594q49 94 138.5 145.5t195.5 51.5q132 0 230 -71t147 -187t49 -258q0 -143 -49 -259t-147.5 -186.5t-231.5 -70.5q-107 0 -195 51t-137 145v-594h-174zM637 137q142 0 218.5 101.5t76.5 261.5q0 159 -76.5 259.5t-218.5 100.5q-143 0 -225 -101
t-82 -259t82.5 -260.5t224.5 -102.5z" />
    <glyph glyph-name="ydieresis" unicode="&#xff;" horiz-adv-x="1024" 
d="M250 1202v211h143v-211h-143zM623 1202v211h143v-211h-143zM266 -414l168 430l-414 983h187l317 -786l291 786h186l-550 -1413h-185z" />
    <glyph glyph-name="Amacron" unicode="&#x100;" horiz-adv-x="1314" 
d="M381 1610v102h551v-102h-551zM49 0l539 1413h141l537 -1413h-191l-119 330h-594l-120 -330h-193zM418 481h483l-242 680z" />
    <glyph glyph-name="amacron" unicode="&#x101;" horiz-adv-x="1060" 
d="M784 1298v-102h-551v102h551zM512 1016q193 0 301.5 -109.5t108.5 -298.5v-608h-142l-12 176q-52 -93 -145 -142.5t-199 -49.5q-157 0 -254.5 83t-97.5 228q0 287 411 287h283q0 151 -57.5 218.5t-196.5 67.5q-171 0 -270 -155l-131 94q77 104 172.5 156.5t228.5 52.5z
M457 127q122 0 203.5 74t105.5 192v66h-272q-122 0 -185 -45t-63 -123q0 -75 55 -119.5t156 -44.5z" />
    <glyph glyph-name="Abreve" unicode="&#x102;" horiz-adv-x="1314" 
d="M657 1561q-309 0 -309 266h121q0 -81 50.5 -122.5t137.5 -41.5q88 0 137.5 42t49.5 122h121q0 -266 -308 -266zM49 0l539 1413h141l537 -1413h-191l-119 330h-594l-120 -330h-193zM418 481h483l-242 680z" />
    <glyph glyph-name="abreve" unicode="&#x103;" horiz-adv-x="1060" 
d="M508 1147q-309 0 -309 266h120q0 -81 50.5 -122.5t138.5 -41.5t137 42t49 122h121q0 -266 -307 -266zM512 1016q193 0 301.5 -109.5t108.5 -298.5v-608h-142l-12 176q-52 -93 -145 -142.5t-199 -49.5q-157 0 -254.5 83t-97.5 228q0 287 411 287h283q0 151 -57.5 218.5
t-196.5 67.5q-171 0 -270 -155l-131 94q77 104 172.5 156.5t228.5 52.5zM457 127q122 0 203.5 74t105.5 192v66h-272q-122 0 -185 -45t-63 -123q0 -75 55 -119.5t156 -44.5z" />
    <glyph glyph-name="Aogonek" unicode="&#x104;" horiz-adv-x="1314" 
d="M1266 -274l88 -60q-83 -121 -217 -121q-96 0 -154.5 53t-58.5 142q0 52 22 99.5t55.5 79.5t65.5 52.5t57 28.5h-49l-119 330h-594l-120 -330h-193l539 1413h141l537 -1413q-33 -10 -71 -30t-77.5 -49.5t-65.5 -71.5t-26 -87q0 -57 29 -83.5t78 -26.5q80 0 133 74z
M418 481h483l-242 680z" />
    <glyph glyph-name="aogonek" unicode="&#x105;" horiz-adv-x="1060" 
d="M920 -274l88 -60q-83 -121 -217 -121q-96 0 -154.5 53t-58.5 142q0 52 22.5 100t56 80t66 52.5t57.5 27.5l-12 176q-52 -93 -145 -142.5t-199 -49.5q-157 0 -254.5 83t-97.5 228q0 287 411 287h283q0 151 -57.5 218.5t-196.5 67.5q-171 0 -270 -155l-131 94
q77 104 172.5 156.5t228.5 52.5q193 0 301.5 -109.5t108.5 -298.5v-608h-2q-33 -10 -71 -30t-77.5 -49.5t-65.5 -71.5t-26 -87q0 -110 106 -110q81 0 134 74zM457 127q122 0 203.5 74t105.5 192v66h-272q-122 0 -185 -45t-63 -123q0 -75 55 -119.5t156 -44.5z" />
    <glyph glyph-name="Cacute" unicode="&#x106;" horiz-adv-x="1447" 
d="M672 1540l221 287h182l-276 -287h-127zM770 -16q-160 0 -285.5 55.5t-205 153.5t-121 229t-41.5 287q0 155 41.5 285.5t121.5 228.5t207 153.5t289 55.5q209 0 358.5 -99t231.5 -291l-166 -65q-93 287 -426 287q-238 0 -360.5 -149t-122.5 -400q0 -122 28 -222.5
t85 -177.5t150 -120t216 -43q159 0 264.5 69t169.5 221l164 -67q-85 -192 -237 -291.5t-361 -99.5z" />
    <glyph glyph-name="cacute" unicode="&#x107;" horiz-adv-x="1011" 
d="M459 1126l221 287h182l-276 -287h-127zM545 -16q-109 0 -197.5 41.5t-145.5 112.5t-87.5 163.5t-30.5 196.5q0 80 17.5 154.5t55 141t91 116t129.5 78t166 28.5q143 0 249.5 -71.5t159.5 -209.5l-161 -63q-28 88 -93.5 139t-154.5 51q-95 0 -162 -53.5t-96 -133.5
t-29 -177q0 -58 10.5 -110t33 -98t55.5 -80t81 -53.5t107 -19.5q90 0 155.5 50.5t92.5 136.5l153 -58q-46 -133 -151.5 -207.5t-247.5 -74.5z" />
    <glyph glyph-name="Cdotaccent" unicode="&#x10a;" horiz-adv-x="1447" 
d="M666 1616v211h176v-211h-176zM770 -16q-160 0 -285.5 55.5t-205 153.5t-121 229t-41.5 287q0 155 41.5 285.5t121.5 228.5t207 153.5t289 55.5q209 0 358.5 -99t231.5 -291l-166 -65q-93 287 -426 287q-238 0 -360.5 -149t-122.5 -400q0 -122 28 -222.5t85 -177.5
t150 -120t216 -43q159 0 264.5 69t169.5 221l164 -67q-85 -192 -237 -291.5t-361 -99.5z" />
    <glyph glyph-name="cdotaccent" unicode="&#x10b;" horiz-adv-x="1011" 
d="M455 1202v211h176v-211h-176zM545 -16q-109 0 -197.5 41.5t-145.5 112.5t-87.5 163.5t-30.5 196.5q0 80 17.5 154.5t55 141t91 116t129.5 78t166 28.5q143 0 249.5 -71.5t159.5 -209.5l-161 -63q-28 88 -93.5 139t-154.5 51q-95 0 -162 -53.5t-96 -133.5t-29 -177
q0 -58 10.5 -110t33 -98t55.5 -80t81 -53.5t107 -19.5q90 0 155.5 50.5t92.5 136.5l153 -58q-46 -133 -151.5 -207.5t-247.5 -74.5z" />
    <glyph glyph-name="Ccaron" unicode="&#x10c;" horiz-adv-x="1447" 
d="M754 1511l-308 316h138l170 -176l170 176h137zM770 -16q-160 0 -285.5 55.5t-205 153.5t-121 229t-41.5 287q0 155 41.5 285.5t121.5 228.5t207 153.5t289 55.5q209 0 358.5 -99t231.5 -291l-166 -65q-93 287 -426 287q-238 0 -360.5 -149t-122.5 -400q0 -122 28 -222.5
t85 -177.5t150 -120t216 -43q159 0 264.5 69t169.5 221l164 -67q-85 -192 -237 -291.5t-361 -99.5z" />
    <glyph glyph-name="ccaron" unicode="&#x10d;" horiz-adv-x="1011" 
d="M543 1098l-307 315h137l170 -176l170 176h137zM545 -16q-109 0 -197.5 41.5t-145.5 112.5t-87.5 163.5t-30.5 196.5q0 80 17.5 154.5t55 141t91 116t129.5 78t166 28.5q143 0 249.5 -71.5t159.5 -209.5l-161 -63q-28 88 -93.5 139t-154.5 51q-95 0 -162 -53.5t-96 -133.5
t-29 -177q0 -58 10.5 -110t33 -98t55.5 -80t81 -53.5t107 -19.5q90 0 155.5 50.5t92.5 136.5l153 -58q-46 -133 -151.5 -207.5t-247.5 -74.5z" />
    <glyph glyph-name="Dcaron" unicode="&#x10e;" horiz-adv-x="1439" 
d="M737 1511l-307 316h137l170 -176l170 176h137zM211 0v1413h389q353 0 540 -185.5t187 -531.5q0 -333 -189 -514.5t-540 -181.5h-387zM387 162h195q274 0 421.5 132t147.5 408q0 282 -134 415.5t-419 133.5h-211v-1089z" />
    <glyph glyph-name="dcaron" unicode="&#x10f;" horiz-adv-x="1200" 
d="M526 -16q-132 0 -233.5 70t-154 187t-52.5 259q0 141 52.5 258t153.5 187.5t232 70.5q106 0 195.5 -51.5t138.5 -145.5v594h172v-1413h-158l-8 188q-47 -97 -137.5 -150.5t-200.5 -53.5zM1135 981l116 432h179l-191 -432h-104zM567 137q143 0 224 101.5t81 261.5
q0 159 -81.5 260.5t-223.5 101.5q-144 0 -226.5 -102.5t-82.5 -259.5q0 -159 82.5 -261t226.5 -102z" />
    <glyph glyph-name="Dcroat" unicode="&#x110;" horiz-adv-x="1439" 
d="M600 1413q353 0 540 -185.5t187 -531.5q0 -333 -189 -514.5t-540 -181.5h-387v649h-150v115h150v649h389zM582 162q274 0 421.5 132t147.5 408q0 282 -134 415.5t-419 133.5h-211v-487h309v-115h-309v-487h195z" />
    <glyph glyph-name="dcroat" unicode="&#x111;" horiz-adv-x="1200" 
d="M1165 1276v-115h-135v-1161h-158l-8 188q-47 -97 -137.5 -150.5t-200.5 -53.5q-132 0 -233.5 70t-154 187t-52.5 259q0 141 52.5 258t153.5 187.5t232 70.5q106 0 195.5 -51.5t138.5 -145.5v342h-328v115h328v137h172v-137h135zM567 137q143 0 224 101.5t81 261.5
q0 159 -81.5 260.5t-223.5 101.5q-144 0 -226.5 -102.5t-82.5 -259.5q0 -159 82.5 -261t226.5 -102z" />
    <glyph glyph-name="Emacron" unicode="&#x112;" horiz-adv-x="1263" 
d="M401 1610v102h551v-102h-551zM211 0v1413h928v-162h-752v-460h684v-164h-684v-461h752v-166h-928z" />
    <glyph glyph-name="emacron" unicode="&#x113;" horiz-adv-x="1073" 
d="M258 1196v102h551v-102h-551zM563 -16q-152 0 -262.5 70t-163.5 184.5t-53 257.5q0 104 30 197t86.5 165.5t146 115t200.5 42.5q97 0 175 -30t127 -77.5t82 -111t46.5 -127t13.5 -129.5q0 -60 -8 -92h-719q9 -147 86.5 -229.5t214.5 -82.5q86 0 150.5 27.5t124.5 93.5
l118 -104q-85 -89 -178.5 -129.5t-216.5 -40.5zM264 573h559q0 44 -4 64q-13 100 -83 167.5t-189 67.5q-123 0 -196 -81.5t-87 -217.5z" />
    <glyph glyph-name="Ebreve" unicode="&#x114;" horiz-adv-x="1263" 
d="M676 1561q-309 0 -309 266h120q0 -81 50.5 -122.5t138.5 -41.5t137 42t49 122h121q0 -266 -307 -266zM211 0v1413h928v-162h-752v-460h684v-164h-684v-461h752v-166h-928z" />
    <glyph glyph-name="ebreve" unicode="&#x115;" horiz-adv-x="1073" 
d="M532 1147q-309 0 -309 266h121q0 -81 50.5 -122.5t137.5 -41.5q88 0 137.5 42t49.5 122h121q0 -266 -308 -266zM563 -16q-152 0 -262.5 70t-163.5 184.5t-53 257.5q0 104 30 197t86.5 165.5t146 115t200.5 42.5q97 0 175 -30t127 -77.5t82 -111t46.5 -127t13.5 -129.5
q0 -60 -8 -92h-719q9 -147 86.5 -229.5t214.5 -82.5q86 0 150.5 27.5t124.5 93.5l118 -104q-85 -89 -178.5 -129.5t-216.5 -40.5zM264 573h559q0 44 -4 64q-13 100 -83 167.5t-189 67.5q-123 0 -196 -81.5t-87 -217.5z" />
    <glyph glyph-name="Edotaccent" unicode="&#x116;" horiz-adv-x="1263" 
d="M588 1616v211h176v-211h-176zM211 0v1413h928v-162h-752v-460h684v-164h-684v-461h752v-166h-928z" />
    <glyph glyph-name="edotaccent" unicode="&#x117;" horiz-adv-x="1073" 
d="M444 1202v211h177v-211h-177zM563 -16q-152 0 -262.5 70t-163.5 184.5t-53 257.5q0 104 30 197t86.5 165.5t146 115t200.5 42.5q97 0 175 -30t127 -77.5t82 -111t46.5 -127t13.5 -129.5q0 -60 -8 -92h-719q9 -147 86.5 -229.5t214.5 -82.5q86 0 150.5 27.5t124.5 93.5
l118 -104q-85 -89 -178.5 -129.5t-216.5 -40.5zM264 573h559q0 44 -4 64q-13 100 -83 167.5t-189 67.5q-123 0 -196 -81.5t-87 -217.5z" />
    <glyph glyph-name="Eogonek" unicode="&#x118;" horiz-adv-x="1263" 
d="M1139 -274l88 -60q-83 -121 -217 -121q-96 0 -154.5 53t-58.5 142q0 52 22 99.5t55.5 79.5t65.5 52.5t57 28.5h-786v1413h928v-162h-752v-460h684v-164h-684v-461h752v-166q-33 -10 -71 -30t-77.5 -49.5t-65.5 -71.5t-26 -87q0 -57 29 -83.5t78 -26.5q80 0 133 74z" />
    <glyph glyph-name="eogonek" unicode="&#x119;" horiz-adv-x="1073" 
d="M991 541q0 -60 -8 -92h-719q9 -147 86.5 -229.5t214.5 -82.5q86 0 150.5 27.5t124.5 93.5l118 -104q-108 -114 -235 -150q-143 -85 -143 -194q0 -57 28.5 -84t77.5 -27q80 0 133 74l88 -60q-83 -121 -217 -121q-96 0 -154.5 53t-58.5 142q0 112 96 197h-10
q-152 0 -262.5 70t-163.5 184.5t-53 257.5q0 104 30 197t86.5 165.5t146 115t200.5 42.5q97 0 175 -30t127 -77.5t82 -111t46.5 -127t13.5 -129.5zM264 573h559q0 44 -4 64q-13 100 -83 167.5t-189 67.5q-123 0 -196 -81.5t-87 -217.5z" />
    <glyph glyph-name="Ecaron" unicode="&#x11a;" horiz-adv-x="1263" 
d="M676 1511l-307 316h137l170 -176l170 176h137zM211 0v1413h928v-162h-752v-460h684v-164h-684v-461h752v-166h-928z" />
    <glyph glyph-name="ecaron" unicode="&#x11b;" horiz-adv-x="1073" 
d="M532 1098l-307 315h137l170 -176l170 176h138zM563 -16q-152 0 -262.5 70t-163.5 184.5t-53 257.5q0 104 30 197t86.5 165.5t146 115t200.5 42.5q97 0 175 -30t127 -77.5t82 -111t46.5 -127t13.5 -129.5q0 -60 -8 -92h-719q9 -147 86.5 -229.5t214.5 -82.5
q86 0 150.5 27.5t124.5 93.5l118 -104q-85 -89 -178.5 -129.5t-216.5 -40.5zM264 573h559q0 44 -4 64q-13 100 -83 167.5t-189 67.5q-123 0 -196 -81.5t-87 -217.5z" />
    <glyph glyph-name="Gcircumflex" unicode="&#x11c;" horiz-adv-x="1538" 
d="M465 1522l305 329l307 -329h-137l-170 182l-170 -182h-135zM770 -16q-160 0 -285.5 55.5t-205 153.5t-121 229t-41.5 287q0 124 25.5 232t79 198.5t130.5 155.5t185.5 101t238.5 36q209 0 359 -99t229 -291l-158 -65q-105 301 -432 301q-120 0 -213.5 -42.5
t-151.5 -118.5t-88 -178t-30 -224q0 -97 17.5 -181.5t55 -157.5t92.5 -124.5t135.5 -81t178.5 -29.5q182 0 296 93.5t138 271.5l4 90h-336v143h510v-739h-141l-14 236q-65 -120 -183 -186t-274 -66z" />
    <glyph glyph-name="gcircumflex" unicode="&#x11d;" horiz-adv-x="1044" 
d="M516 1290l-170 -182h-135l305 330l307 -330h-137zM567 131q42 -6 67 -10t64 -12t63 -15.5t56.5 -19.5t52 -26t41.5 -34t34 -43.5t20 -54t8 -66.5q0 -76 -31.5 -131t-89.5 -87t-133 -47t-170 -15q-222 0 -341.5 80t-119.5 229q0 21 4 45l139 123q-120 62 -120 193
q0 121 104 196q-86 95 -86 230q0 153 112.5 251.5t276.5 98.5q144 0 246 -76l143 123l88 -109l-137 -114q49 -84 49 -185q0 -155 -110 -250.5t-275 -95.5q-117 0 -203 47q-61 -28 -61 -88q0 -65 83 -94q45 -16 206 -40q11 -2 20 -3zM524 885q-100 0 -160.5 -61.5
t-60.5 -159.5q0 -97 59 -156t160 -59t159 59t58 156q0 98 -58.5 159.5t-156.5 61.5zM557 -301q112 0 184 34t72 103q0 26 -9 46t-30 34.5t-43 24.5t-62.5 18t-72 13t-86.5 12q-147 21 -174 28l-94 -125q0 -4 1 -13t1 -13q12 -76 97 -119t216 -43z" />
    <glyph glyph-name="Gbreve" unicode="&#x11e;" horiz-adv-x="1538" 
d="M772 1561q-309 0 -309 266h121q0 -81 50.5 -122.5t137.5 -41.5q88 0 137 42t49 122h121q0 -266 -307 -266zM770 -16q-160 0 -285.5 55.5t-205 153.5t-121 229t-41.5 287q0 124 25.5 232t79 198.5t130.5 155.5t185.5 101t238.5 36q209 0 359 -99t229 -291l-158 -65
q-105 301 -432 301q-120 0 -213.5 -42.5t-151.5 -118.5t-88 -178t-30 -224q0 -97 17.5 -181.5t55 -157.5t92.5 -124.5t135.5 -81t178.5 -29.5q182 0 296 93.5t138 271.5l4 90h-336v143h510v-739h-141l-14 236q-65 -120 -183 -186t-274 -66z" />
    <glyph glyph-name="gbreve" unicode="&#x11f;" horiz-adv-x="1050" 
d="M528 1147q-309 0 -309 266h121q0 -81 50.5 -122.5t137.5 -41.5q88 0 137.5 42t49.5 122h121q0 -266 -308 -266zM567 131q42 -6 67 -10t64 -12t63 -15.5t56.5 -19.5t52 -26t41.5 -34t34 -43.5t20 -54t8 -66.5q0 -76 -31.5 -131t-89.5 -87t-133 -47t-170 -15
q-222 0 -341.5 80t-119.5 229q0 21 4 45l139 123q-120 62 -120 193q0 121 104 196q-86 95 -86 230q0 153 112.5 251.5t276.5 98.5q144 0 246 -76l143 123l88 -109l-137 -114q49 -84 49 -185q0 -155 -110 -250.5t-275 -95.5q-117 0 -203 47q-61 -28 -61 -88q0 -65 83 -94
q45 -16 206 -40q11 -2 20 -3zM524 885q-100 0 -160.5 -61.5t-60.5 -159.5q0 -97 59 -156t160 -59t159 59t58 156q0 98 -58.5 159.5t-156.5 61.5zM557 -301q112 0 184 34t72 103q0 26 -9 46t-30 34.5t-43 24.5t-62.5 18t-72 13t-86.5 12q-147 21 -174 28l-94 -125q0 -4 1 -13
t1 -13q12 -76 97 -119t216 -43z" />
    <glyph glyph-name="Gdotaccent" unicode="&#x120;" horiz-adv-x="1538" 
d="M682 1616v211h176v-211h-176zM770 -16q-160 0 -285.5 55.5t-205 153.5t-121 229t-41.5 287q0 124 25.5 232t79 198.5t130.5 155.5t185.5 101t238.5 36q209 0 359 -99t229 -291l-158 -65q-105 301 -432 301q-120 0 -213.5 -42.5t-151.5 -118.5t-88 -178t-30 -224
q0 -97 17.5 -181.5t55 -157.5t92.5 -124.5t135.5 -81t178.5 -29.5q182 0 296 93.5t138 271.5l4 90h-336v143h510v-739h-141l-14 236q-65 -120 -183 -186t-274 -66z" />
    <glyph glyph-name="gdotaccent" unicode="&#x121;" horiz-adv-x="1050" 
d="M616 1413v-211h-178v211h178zM567 131q42 -6 67 -10t64 -12t63 -15.5t56.5 -19.5t52 -26t41.5 -34t34 -43.5t20 -54t8 -66.5q0 -76 -31.5 -131t-89.5 -87t-133 -47t-170 -15q-222 0 -341.5 80t-119.5 229q0 21 4 45l139 123q-120 62 -120 193q0 121 104 196
q-86 95 -86 230q0 153 112.5 251.5t276.5 98.5q144 0 246 -76l143 123l88 -109l-137 -114q49 -84 49 -185q0 -155 -110 -250.5t-275 -95.5q-117 0 -203 47q-61 -28 -61 -88q0 -65 83 -94q45 -16 206 -40q11 -2 20 -3zM524 885q-100 0 -160.5 -61.5t-60.5 -159.5
q0 -97 59 -156t160 -59t159 59t58 156q0 98 -58.5 159.5t-156.5 61.5zM557 -301q112 0 184 34t72 103q0 26 -9 46t-30 34.5t-43 24.5t-62.5 18t-72 13t-86.5 12q-147 21 -174 28l-94 -125q0 -4 1 -13t1 -13q12 -76 97 -119t216 -43z" />
    <glyph glyph-name="uni0122" unicode="&#x122;" horiz-adv-x="1538" 
d="M770 -16q-160 0 -285.5 55.5t-205 153.5t-121 229t-41.5 287q0 124 25.5 232t79 198.5t130.5 155.5t185.5 101t238.5 36q209 0 359 -99t229 -291l-158 -65q-105 301 -432 301q-120 0 -213.5 -42.5t-151.5 -118.5t-88 -178t-30 -224q0 -97 17.5 -181.5t55 -157.5
t92.5 -124.5t135.5 -81t178.5 -29.5q182 0 296 93.5t138 271.5l4 90h-336v143h510v-739h-141l-14 236q-65 -120 -183 -186t-274 -66zM539 -451l166 340h178l-242 -340h-102z" />
    <glyph glyph-name="uni0123" unicode="&#x123;" horiz-adv-x="1046" 
d="M748 1427l-166 -305h-179l242 305h103zM567 131q42 -6 67 -10t64 -12t63 -15.5t56.5 -19.5t52 -26t41.5 -34t34 -43.5t20 -54t8 -66.5q0 -76 -31.5 -131t-89.5 -87t-133 -47t-170 -15q-222 0 -341.5 80t-119.5 229q0 21 4 45l139 123q-120 62 -120 193q0 121 104 196
q-86 95 -86 230q0 153 112.5 251.5t276.5 98.5q144 0 246 -76l143 123l88 -109l-137 -114q49 -84 49 -185q0 -155 -110 -250.5t-275 -95.5q-117 0 -203 47q-61 -28 -61 -88q0 -65 83 -94q45 -16 206 -40q11 -2 20 -3zM524 885q-100 0 -160.5 -61.5t-60.5 -159.5
q0 -97 59 -156t160 -59t159 59t58 156q0 98 -58.5 159.5t-156.5 61.5zM557 -301q112 0 184 34t72 103q0 26 -9 46t-30 34.5t-43 24.5t-62.5 18t-72 13t-86.5 12q-147 21 -174 28l-94 -125q0 -4 1 -13t1 -13q12 -76 97 -119t216 -43z" />
    <glyph glyph-name="Hcircumflex" unicode="&#x124;" horiz-adv-x="1472" 
d="M430 1522l305 329l307 -329h-137l-170 182l-170 -182h-135zM211 0v1413h176v-622h700v622h177v-1413h-177v629h-700v-629h-176z" />
    <glyph glyph-name="hcircumflex" unicode="&#x125;" horiz-adv-x="1142" 
d="M-49 1522l305 329l307 -329h-137l-170 182l-170 -182h-135zM170 0v1413h172v-565q50 83 129.5 125.5t173.5 42.5q89 0 157.5 -31t111 -86t64 -124.5t23.5 -151.5v-623h-172v592q0 270 -223 270q-126 0 -195 -86t-69 -227v-549h-172z" />
    <glyph glyph-name="Hbar" unicode="&#x126;" horiz-adv-x="1472" 
d="M1386 1165v-102h-122v-1063h-177v629h-700v-629h-176v1063h-125v102h125v248h176v-248h700v248h177v-248h122zM1087 791v272h-700v-272h700z" />
    <glyph glyph-name="hbar" unicode="&#x127;" horiz-adv-x="1142" 
d="M645 1016q89 0 157.5 -31t111 -86t64 -124.5t23.5 -151.5v-623h-172v592q0 270 -223 270q-126 0 -195 -86t-69 -227v-549h-172v1130h-170v115h170v168h172v-168h293v-115h-293v-282q50 83 129.5 125.5t173.5 42.5z" />
    <glyph glyph-name="Itilde" unicode="&#x128;" horiz-adv-x="595" 
d="M432 1546q-45 0 -81 17.5t-58 42t-41.5 49t-42 42t-49.5 17.5q-42 0 -66 -40.5t-24 -112.5h-99q0 124 52 192t143 68q42 0 75.5 -17t56 -41.5t42.5 -49t43.5 -41.5t50.5 -17q37 0 60.5 42.5t23.5 114.5h105q0 -124 -51.5 -195t-139.5 -71zM211 0v1413h176v-1413h-176z
" />
    <glyph glyph-name="itilde" unicode="&#x129;" horiz-adv-x="505" 
d="M387 1133q-45 0 -81 17t-58 41.5t-41.5 49.5t-42 42t-49.5 17q-42 0 -66 -40.5t-24 -112.5h-99q0 124 52 192t143 68q42 0 75.5 -17t56 -41.5t42.5 -49t43.5 -41.5t50.5 -17q37 0 60.5 43t23.5 115h105q0 -124 -51.5 -195t-139.5 -71zM168 0v999h170v-999h-170z" />
    <glyph glyph-name="Imacron" unicode="&#x12a;" horiz-adv-x="595" 
d="M23 1610v102h550v-102h-550zM211 0v1413h176v-1413h-176z" />
    <glyph glyph-name="imacron" unicode="&#x12b;" horiz-adv-x="505" 
d="M-23 1196v102h551v-102h-551zM168 0v999h170v-999h-170z" />
    <glyph glyph-name="Ibreve" unicode="&#x12c;" horiz-adv-x="595" 
d="M299 1561q-309 0 -309 266h121q0 -81 50.5 -122.5t137.5 -41.5q88 0 137 42t49 122h121q0 -266 -307 -266zM211 0v1413h176v-1413h-176z" />
    <glyph glyph-name="ibreve" unicode="&#x12d;" horiz-adv-x="505" 
d="M254 1147q-309 0 -309 266h121q0 -81 50.5 -122.5t137.5 -41.5q88 0 137 42t49 122h121q0 -266 -307 -266zM168 0v999h170v-999h-170z" />
    <glyph glyph-name="Iogonek" unicode="&#x12e;" horiz-adv-x="595" 
d="M385 -274l88 -60q-83 -121 -217 -121q-96 0 -154.5 53t-58.5 142q0 52 22.5 99.5t55.5 79.5t65 52.5t58 28.5h-33v1413h176v-1413h-2q-33 -10 -71 -30t-77.5 -49.5t-65.5 -71.5t-26 -87q0 -57 29 -83.5t78 -26.5q80 0 133 74z" />
    <glyph glyph-name="iogonek" unicode="&#x12f;" horiz-adv-x="505" 
d="M340 1413v-211h-176v211h176zM336 -274l88 -60q-83 -121 -217 -121q-96 0 -154.5 53t-58.5 142q0 52 22.5 99.5t55.5 79.5t65 52.5t58 28.5h-27v999h170v-999h-2q-33 -10 -71 -30t-77.5 -49.5t-65.5 -71.5t-26 -87q0 -57 29 -83.5t78 -26.5q80 0 133 74z" />
    <glyph glyph-name="Idotaccent" unicode="&#x130;" horiz-adv-x="595" 
d="M209 1616v211h176v-211h-176zM211 0v1413h176v-1413h-176z" />
    <glyph glyph-name="dotlessi" unicode="&#x131;" horiz-adv-x="505" 
d="M168 0v999h170v-999h-170z" />
    <glyph glyph-name="IJ" unicode="&#x132;" horiz-adv-x="1757" 
d="M211 0v1413h176v-1413h-176zM1118 -16q-200 0 -322.5 123t-136.5 315l172 18q9 -132 83.5 -212.5t203.5 -80.5q152 0 215.5 89.5t63.5 273.5v741h-559v162h735v-899q0 -163 -45.5 -279t-149 -183.5t-260.5 -67.5z" />
    <glyph glyph-name="ij" unicode="&#x133;" horiz-adv-x="1024" 
d="M164 1202v211h178v-211h-178zM678 1202v211h180v-211h-180zM168 0v999h168v-999h-168zM580 -434q-83 0 -166 31l45 147q66 -25 104 -25q61 0 90 36.5t29 113.5v1130h172v-1118q0 -144 -69 -229.5t-205 -85.5z" />
    <glyph glyph-name="Jcircumflex" unicode="&#x134;" horiz-adv-x="1161" 
d="M268 1522l305 329l308 -329h-138l-170 182l-170 -182h-135zM522 -16q-200 0 -322.5 123t-136.5 315l173 18q9 -132 83 -212.5t203 -80.5q152 0 215.5 89.5t63.5 273.5v741h-559v162h735v-899q0 -163 -45.5 -279t-149 -183.5t-260.5 -67.5z" />
    <glyph glyph-name="jcircumflex" unicode="&#x135;" horiz-adv-x="509" 
d="M-55 1108l305 330l307 -330h-137l-170 182l-170 -182h-135zM68 -430q-83 0 -166 31l45 147q63 -24 104 -24q61 0 90 36t29 113v1126h172v-1114q0 -144 -69 -229.5t-205 -85.5z" />
    <glyph glyph-name="uni0136" unicode="&#x136;" horiz-adv-x="1464" 
d="M211 0v1413h176v-811l768 811h236l-549 -565l571 -848h-219l-475 731l-332 -346v-385h-176zM479 -451l166 340h178l-241 -340h-103z" />
    <glyph glyph-name="uni0137" unicode="&#x137;" horiz-adv-x="1099" 
d="M170 0v1413h170v-915l467 501h221l-366 -378l419 -621h-200l-334 516l-207 -221v-295h-170zM371 -451l166 340h178l-242 -340h-102z" />
    <glyph glyph-name="kgreenlandic" unicode="&#x138;" horiz-adv-x="1097" 
d="M168 0v999h170v-501l467 501h221l-367 -378l420 -621h-200l-334 516l-207 -221v-295h-170z" />
    <glyph glyph-name="Lacute" unicode="&#x139;" horiz-adv-x="1069" 
d="M215 1540l221 287h182l-276 -287h-127zM211 0v1413h176v-1247h631v-166h-807z" />
    <glyph glyph-name="lacute" unicode="&#x13a;" horiz-adv-x="557" 
d="M186 1538l222 287h182l-277 -287h-127zM354 -16q-100 0 -146 53.5t-46 169.5v1206h170v-1161q0 -58 21 -87.5t79 -29.5q18 0 76 8l2 -143q-94 -16 -156 -16z" />
    <glyph glyph-name="uni013B" unicode="&#x13b;" horiz-adv-x="1069" 
d="M211 0v1413h176v-1247h631v-166h-807zM375 -451l166 340h178l-242 -340h-102z" />
    <glyph glyph-name="uni013C" unicode="&#x13c;" horiz-adv-x="557" 
d="M354 -16q-100 0 -146 53.5t-46 169.5v1206h170v-1161q0 -58 21 -87.5t79 -29.5q18 0 76 8l2 -143q-94 -16 -156 -16zM123 -451l166 340h178l-242 -340h-102z" />
    <glyph glyph-name="Lcaron" unicode="&#x13d;" horiz-adv-x="1069" 
d="M211 0v1413h176v-1247h631v-166h-807zM643 981l117 432h178l-190 -432h-105z" />
    <glyph glyph-name="lcaron" unicode="&#x13e;" horiz-adv-x="557" 
d="M354 -16q-100 0 -146 53.5t-46 169.5v1206h170v-1161q0 -58 21 -87.5t79 -29.5q18 0 76 8l2 -143q-94 -16 -156 -16zM432 981l117 432h178l-190 -432h-105z" />
    <glyph glyph-name="Ldot" unicode="&#x13f;" horiz-adv-x="1103" 
d="M211 0v1413h176v-1247h631v-166h-807zM852 596q-58 0 -97.5 40.5t-39.5 98.5t40 97.5t97 39.5q59 0 99 -39.5t40 -97.5q0 -57 -40.5 -98t-98.5 -41z" />
    <glyph glyph-name="ldot" unicode="&#x140;" horiz-adv-x="757" 
d="M354 -16q-100 0 -146 53.5t-46 169.5v1206h170v-1161q0 -58 21 -87.5t79 -29.5q18 0 76 8l2 -143q-94 -16 -156 -16zM592 596q-58 0 -97.5 40.5t-39.5 98.5t40 97.5t97 39.5q59 0 99 -39.5t40 -97.5q0 -57 -40.5 -98t-98.5 -41z" />
    <glyph glyph-name="Lslash" unicode="&#x141;" horiz-adv-x="1069" 
d="M387 166h631v-166h-807v362l-139 -157v190l139 158v860h176v-661l289 327v-188l-289 -328v-397z" />
    <glyph glyph-name="lslash" unicode="&#x142;" horiz-adv-x="569" 
d="M512 143l2 -143q-94 -16 -156 -16q-100 0 -146 53.5t-46 169.5v260l-90 -92v162l90 92v784h170v-612l162 164v-162l-162 -164v-387q0 -58 21 -87.5t79 -29.5q18 0 76 8z" />
    <glyph glyph-name="Nacute" unicode="&#x143;" horiz-adv-x="1437" 
d="M1038 1827l-276 -287h-127l221 287h182zM1057 1413h170v-1413h-183l-665 1128v-1128h-168v1413h180l666 -1124v1124z" />
    <glyph glyph-name="nacute" unicode="&#x144;" horiz-adv-x="1136" 
d="M492 1126l221 287h182l-277 -287h-126zM168 0v999h170v-151q50 82 130.5 125t174.5 43q89 0 157.5 -31t110 -86t62.5 -124.5t22 -151.5v-623h-168v592q0 125 -59.5 196.5t-171.5 71.5q-121 0 -189.5 -73t-68.5 -212v-575h-170z" />
    <glyph glyph-name="uni0145" unicode="&#x145;" horiz-adv-x="1437" 
d="M1057 1413h170v-1413h-183l-665 1128v-1128h-168v1413h180l666 -1124v1124zM477 -451l166 340h178l-241 -340h-103z" />
    <glyph glyph-name="uni0146" unicode="&#x146;" horiz-adv-x="1136" 
d="M168 0v999h170v-151q50 82 130.5 125t174.5 43q89 0 157.5 -31t110 -86t62.5 -124.5t22 -151.5v-623h-168v592q0 125 -59.5 196.5t-171.5 71.5q-121 0 -189.5 -73t-68.5 -212v-575h-170zM334 -451l166 340h178l-242 -340h-102z" />
    <glyph glyph-name="Ncaron" unicode="&#x147;" horiz-adv-x="1437" 
d="M1024 1827l-307 -316l-307 316h137l170 -176l170 176h137zM1057 1413h170v-1413h-183l-665 1128v-1128h-168v1413h180l666 -1124v1124z" />
    <glyph glyph-name="ncaron" unicode="&#x148;" horiz-adv-x="1136" 
d="M573 1098l-307 315h137l170 -176l170 176h138zM168 0v999h170v-151q50 82 130.5 125t174.5 43q89 0 157.5 -31t110 -86t62.5 -124.5t22 -151.5v-623h-168v592q0 125 -59.5 196.5t-171.5 71.5q-121 0 -189.5 -73t-68.5 -212v-575h-170z" />
    <glyph glyph-name="napostrophe" unicode="&#x149;" horiz-adv-x="1292" 
d="M16 840l185 573h194l-264 -573h-115zM324 0v999h170v-151q50 82 130.5 125t174.5 43q89 0 157.5 -31t110 -86t62.5 -124.5t22 -151.5v-623h-168v592q0 125 -59.5 196.5t-171.5 71.5q-121 0 -189.5 -73t-68.5 -212v-575h-170z" />
    <glyph glyph-name="Eng" unicode="&#x14a;" horiz-adv-x="1437" 
d="M1057 1413h168v-1511q0 -71 -15 -128.5t-47.5 -104.5t-91.5 -73t-141 -26q-70 0 -146 18l4 113q58 -14 97 -14q91 0 139.5 42.5t48.5 120.5v97l-694 1188v-1135h-168v1413h180l666 -1128v1128z" />
    <glyph glyph-name="eng" unicode="&#x14b;" horiz-adv-x="1136" 
d="M711 -430q-75 0 -152 29l39 127q60 -17 109 -17q65 0 92.5 38t27.5 116v729q0 125 -59.5 196.5t-171.5 71.5q-121 0 -190.5 -73.5t-69.5 -211.5v-575h-168v999h168v-151q49 82 131 125t176 43q89 0 157.5 -31t110.5 -86t63 -124.5t21 -151.5v-742q0 -142 -72 -226.5
t-212 -84.5z" />
    <glyph glyph-name="Omacron" unicode="&#x14c;" horiz-adv-x="1548" 
d="M498 1610v102h551v-102h-551zM774 -16q-164 0 -292.5 58.5t-207 159.5t-119 229t-40.5 276t40.5 276t119 229t207 159.5t292.5 58.5t292.5 -58.5t207.5 -159.5t119.5 -229.5t40.5 -275.5t-40.5 -275.5t-119.5 -229.5t-207.5 -159.5t-292.5 -58.5zM774 139q122 0 215 45.5
t148 125t82.5 179.5t27.5 218q0 94 -16.5 176.5t-53.5 154.5t-91 124t-134 82t-178 30t-178 -30t-134 -82t-91 -124t-53.5 -154.5t-16.5 -176.5q0 -118 27.5 -218t82.5 -179.5t148 -125t215 -45.5z" />
    <glyph glyph-name="omacron" unicode="&#x14d;" horiz-adv-x="1144" 
d="M297 1196v102h551v-102h-551zM571 -16q-143 0 -256 69.5t-174 187.5t-61 261q0 142 61 259t174 186t256 69q216 0 355 -148.5t139 -365.5q0 -142 -61.5 -260t-175.5 -188t-257 -70zM571 131q150 0 234 106t84 265q0 158 -84 262t-234 104q-149 0 -232 -103.5t-83 -262.5
t83.5 -265t231.5 -106z" />
    <glyph glyph-name="Obreve" unicode="&#x14e;" horiz-adv-x="1548" 
d="M774 1561q-309 0 -309 266h121q0 -81 50.5 -122.5t137.5 -41.5q88 0 137.5 42t49.5 122h120q0 -266 -307 -266zM774 -16q-164 0 -292.5 58.5t-207 159.5t-119 229t-40.5 276t40.5 276t119 229t207 159.5t292.5 58.5t292.5 -58.5t207.5 -159.5t119.5 -229.5t40.5 -275.5
t-40.5 -275.5t-119.5 -229.5t-207.5 -159.5t-292.5 -58.5zM774 139q122 0 215 45.5t148 125t82.5 179.5t27.5 218q0 94 -16.5 176.5t-53.5 154.5t-91 124t-134 82t-178 30t-178 -30t-134 -82t-91 -124t-53.5 -154.5t-16.5 -176.5q0 -118 27.5 -218t82.5 -179.5t148 -125
t215 -45.5z" />
    <glyph glyph-name="obreve" unicode="&#x14f;" horiz-adv-x="1144" 
d="M573 1147q-309 0 -309 266h121q0 -81 50.5 -122.5t137.5 -41.5q88 0 137.5 42t49.5 122h121q0 -266 -308 -266zM571 -16q-143 0 -256 69.5t-174 187.5t-61 261q0 142 61 259t174 186t256 69q216 0 355 -148.5t139 -365.5q0 -142 -61.5 -260t-175.5 -188t-257 -70z
M571 131q150 0 234 106t84 265q0 158 -84 262t-234 104q-149 0 -232 -103.5t-83 -262.5t83.5 -265t231.5 -106z" />
    <glyph glyph-name="Ohungarumlaut" unicode="&#x150;" horiz-adv-x="1548" 
d="M530 1513l222 314h153l-248 -314h-127zM889 1513l219 314h182l-274 -314h-127zM774 -16q-164 0 -292.5 58.5t-207 159.5t-119 229t-40.5 276t40.5 276t119 229t207 159.5t292.5 58.5t292.5 -58.5t207.5 -159.5t119.5 -229.5t40.5 -275.5t-40.5 -275.5t-119.5 -229.5
t-207.5 -159.5t-292.5 -58.5zM774 139q122 0 215 45.5t148 125t82.5 179.5t27.5 218q0 94 -16.5 176.5t-53.5 154.5t-91 124t-134 82t-178 30t-178 -30t-134 -82t-91 -124t-53.5 -154.5t-16.5 -176.5q0 -118 27.5 -218t82.5 -179.5t148 -125t215 -45.5z" />
    <glyph glyph-name="ohungarumlaut" unicode="&#x151;" horiz-adv-x="1144" 
d="M330 1100l221 313h154l-248 -313h-127zM688 1100l219 313h183l-275 -313h-127zM571 -16q-143 0 -256 69.5t-174 187.5t-61 261q0 142 61 259t174 186t256 69q216 0 355 -148.5t139 -365.5q0 -142 -61.5 -260t-175.5 -188t-257 -70zM571 131q150 0 234 106t84 265
q0 158 -84 262t-234 104q-149 0 -232 -103.5t-83 -262.5t83.5 -265t231.5 -106z" />
    <glyph glyph-name="OE" unicode="&#x152;" horiz-adv-x="2310" 
d="M2185 1251h-751v-460h684v-164h-684v-461h751v-166h-928v182q-178 -198 -483 -198q-164 0 -292.5 58.5t-207 159.5t-119 229t-40.5 276t40.5 276t119 229t207 159.5t292.5 58.5q304 0 483 -199v182h928v-162zM774 139q122 0 215 45.5t148 125t82.5 179.5t27.5 218
q0 94 -16.5 176.5t-53.5 154.5t-91 124t-134 82t-178 30t-178 -30t-134 -82t-91 -124t-53.5 -154.5t-16.5 -176.5q0 -118 27.5 -218t82.5 -179.5t148 -125t215 -45.5z" />
    <glyph glyph-name="oe" unicode="&#x153;" horiz-adv-x="1878" 
d="M1796 541q0 -60 -8 -92h-719q9 -147 86.5 -229.5t214.5 -82.5q86 0 150.5 27.5t124.5 93.5l118 -104q-85 -89 -178.5 -129.5t-216.5 -40.5q-136 0 -236.5 53.5t-160.5 150.5q-66 -96 -169.5 -150t-230.5 -54q-143 0 -256 69.5t-174 187.5t-61 261q0 142 61 259t174 186
t256 69q127 0 230.5 -54.5t171.5 -150.5q59 96 155 150.5t224 54.5q97 0 175 -30t127 -77.5t82 -111t46.5 -127t13.5 -129.5zM1069 573h559q0 44 -4 64q-13 100 -83 167.5t-189 67.5q-123 0 -196 -81.5t-87 -217.5zM571 131q150 0 234 106t84 265q0 158 -84 262t-234 104
q-149 0 -232 -103.5t-83 -262.5t83.5 -265t231.5 -106z" />
    <glyph glyph-name="Racute" unicode="&#x154;" horiz-adv-x="1265" 
d="M539 1540l221 287h182l-276 -287h-127zM211 0v1413h416q207 0 341 -107t134 -294q0 -137 -78.5 -233t-212.5 -132l391 -647h-201l-360 629q-29 -2 -92 -2h-162v-627h-176zM387 772h254q137 3 212 65.5t75 172.5q0 115 -80 180t-221 65h-240v-483z" />
    <glyph glyph-name="racute" unicode="&#x155;" horiz-adv-x="800" 
d="M360 1126l222 287h182l-277 -287h-127zM168 0v999h166v-196q34 102 117 157.5t178 55.5q101 0 164 -55l-78 -140q-57 31 -111 31q-50 0 -96.5 -21.5t-86.5 -64t-64.5 -116.5t-24.5 -169v-481h-164z" />
    <glyph glyph-name="uni0156" unicode="&#x156;" horiz-adv-x="1265" 
d="M211 0v1413h416q207 0 341 -107t134 -294q0 -137 -78.5 -233t-212.5 -132l391 -647h-201l-360 629q-29 -2 -92 -2h-162v-627h-176zM387 772h254q137 3 212 65.5t75 172.5q0 115 -80 180t-221 65h-240v-483zM453 -451l165 340h179l-242 -340h-102z" />
    <glyph glyph-name="uni0157" unicode="&#x157;" horiz-adv-x="800" 
d="M168 0v999h166v-196q34 102 117 157.5t178 55.5q101 0 164 -55l-78 -140q-57 31 -111 31q-50 0 -96.5 -21.5t-86.5 -64t-64.5 -116.5t-24.5 -169v-481h-164zM160 -451l166 340h178l-242 -340h-102z" />
    <glyph glyph-name="Rcaron" unicode="&#x158;" horiz-adv-x="1265" 
d="M623 1511l-308 316h138l170 -176l170 176h137zM211 0v1413h416q207 0 341 -107t134 -294q0 -137 -78.5 -233t-212.5 -132l391 -647h-201l-360 629q-29 -2 -92 -2h-162v-627h-176zM387 772h254q137 3 212 65.5t75 172.5q0 115 -80 180t-221 65h-240v-483z" />
    <glyph glyph-name="rcaron" unicode="&#x159;" horiz-adv-x="800" 
d="M444 1098l-307 315h137l170 -176l170 176h138zM168 0v999h166v-196q34 102 117 157.5t178 55.5q101 0 164 -55l-78 -140q-57 31 -111 31q-50 0 -96.5 -21.5t-86.5 -64t-64.5 -116.5t-24.5 -169v-481h-164z" />
    <glyph glyph-name="Sacute" unicode="&#x15a;" horiz-adv-x="1144" 
d="M492 1540l221 287h182l-277 -287h-126zM588 -14q-125 0 -231.5 44t-182 135.5t-96.5 217.5l176 43q18 -137 109 -210t227 -73q131 0 210 67.5t79 170.5q0 55 -24.5 99t-65.5 74t-94.5 56t-113 48.5t-118.5 47t-112.5 56.5t-94.5 71.5t-65.5 97.5t-24.5 130q0 167 119 268
t295 101q276 0 409 -234l-145 -90q-92 168 -271 168q-99 0 -165 -58t-66 -147q0 -50 24.5 -90t65.5 -68t94.5 -52t113 -46.5t118.5 -47t112.5 -58t94.5 -75t65.5 -102t24.5 -135.5q0 -122 -62.5 -216t-168.5 -143.5t-236 -49.5z" />
    <glyph glyph-name="sacute" unicode="&#x15b;" horiz-adv-x="921" 
d="M358 1126l222 287h182l-277 -287h-127zM467 -16q-149 0 -261 75.5t-151 192.5l138 59q30 -79 97 -132.5t169 -53.5q99 0 153 46t54 116q0 48 -30.5 80t-79.5 49.5t-107.5 31.5t-117.5 32.5t-108 45.5t-79.5 78.5t-30.5 124.5q0 135 100 211t250 76q121 0 213 -55
t147 -156l-131 -72q-78 148 -233 148q-84 0 -134.5 -35.5t-50.5 -93.5q0 -43 31 -72.5t80.5 -46.5t109 -32t119 -36t109 -51.5t80.5 -86t31 -132.5q0 -150 -106 -230.5t-261 -80.5z" />
    <glyph glyph-name="Scedilla" unicode="&#x15e;" horiz-adv-x="1144" 
d="M1055 395q0 -178 -126.5 -289.5t-318.5 -119.5l-71 -109q25 0 61 -8q78 -19 119 -65t41 -115q0 -91 -60 -149t-155 -58q-72 0 -127.5 38t-73.5 111l96 39q11 -37 41 -62.5t68 -25.5q51 0 79.5 27.5t28.5 73.5q0 53 -46.5 86.5t-129.5 37.5h-82l111 183
q-167 21 -285.5 123.5t-146.5 269.5l176 43q18 -137 109 -210t227 -73q131 0 210 67.5t79 170.5q0 55 -24.5 99t-65.5 74t-94.5 56t-113 48.5t-118.5 47t-112.5 56.5t-94.5 71.5t-65.5 97.5t-24.5 130q0 167 119 268t295 101q276 0 409 -234l-145 -90q-92 168 -271 168
q-99 0 -165 -58t-66 -147q0 -50 24.5 -90t65.5 -68t94.5 -52t113 -46.5t118.5 -47t112.5 -58t94.5 -75t65.5 -102t24.5 -135.5z" />
    <glyph glyph-name="scedilla" unicode="&#x15f;" horiz-adv-x="921" 
d="M834 295q0 -131 -81.5 -209t-211.5 -98l-74 -111q25 0 61 -8q78 -19 119 -65t41 -115q0 -91 -60 -149t-155 -58q-72 0 -127.5 38t-73.5 111l97 39q11 -37 40.5 -62.5t67.5 -25.5q51 0 80 27.5t29 73.5q0 53 -46.5 86.5t-129.5 37.5h-82l106 177q-136 9 -238.5 83.5
t-140.5 184.5l138 59q30 -79 97 -132.5t169 -53.5q99 0 153 46t54 116q0 48 -30.5 80t-79.5 49.5t-107.5 31.5t-117.5 32.5t-108 45.5t-79.5 78.5t-30.5 124.5q0 135 100 211t250 76q121 0 213 -55t147 -156l-131 -72q-78 148 -233 148q-84 0 -134.5 -35.5t-50.5 -93.5
q0 -43 31 -72.5t80.5 -46.5t109 -32t119 -36t109 -51.5t80.5 -86t31 -132.5z" />
    <glyph glyph-name="Scaron" unicode="&#x160;" horiz-adv-x="1144" 
d="M573 1511l-307 316h137l170 -176l170 176h138zM588 -14q-125 0 -231.5 44t-182 135.5t-96.5 217.5l176 43q18 -137 109 -210t227 -73q131 0 210 67.5t79 170.5q0 55 -24.5 99t-65.5 74t-94.5 56t-113 48.5t-118.5 47t-112.5 56.5t-94.5 71.5t-65.5 97.5t-24.5 130
q0 167 119 268t295 101q276 0 409 -234l-145 -90q-92 168 -271 168q-99 0 -165 -58t-66 -147q0 -50 24.5 -90t65.5 -68t94.5 -52t113 -46.5t118.5 -47t112.5 -58t94.5 -75t65.5 -102t24.5 -135.5q0 -122 -62.5 -216t-168.5 -143.5t-236 -49.5z" />
    <glyph glyph-name="scaron" unicode="&#x161;" horiz-adv-x="921" 
d="M442 1098l-307 315h137l170 -176l170 176h138zM467 -16q-149 0 -261 75.5t-151 192.5l138 59q30 -79 97 -132.5t169 -53.5q99 0 153 46t54 116q0 48 -30.5 80t-79.5 49.5t-107.5 31.5t-117.5 32.5t-108 45.5t-79.5 78.5t-30.5 124.5q0 135 100 211t250 76q121 0 213 -55
t147 -156l-131 -72q-78 148 -233 148q-84 0 -134.5 -35.5t-50.5 -93.5q0 -43 31 -72.5t80.5 -46.5t109 -32t119 -36t109 -51.5t80.5 -86t31 -132.5q0 -150 -106 -230.5t-261 -80.5z" />
    <glyph glyph-name="uni0162" unicode="&#x162;" horiz-adv-x="1228" 
d="M526 0v1255h-477v158h1129v-158h-476v-1255h-176zM594 -518q-72 0 -127.5 38t-73.5 111l96 39q11 -37 41 -62.5t68 -25.5q51 0 80 27.5t29 73.5q0 53 -47 86.5t-130 37.5h-81l114 191h105l-80 -121q25 0 61 -8q78 -19 119 -65t41 -115q0 -91 -60 -149t-155 -58z" />
    <glyph glyph-name="uni0163" unicode="&#x163;" horiz-adv-x="718" 
d="M520 -131q78 -19 119 -65t41 -115q0 -91 -60 -149t-155 -58q-72 0 -127.5 38t-73.5 111l96 39q11 -37 41 -62.5t68 -25.5q51 0 80 27.5t29 73.5q0 53 -47 86.5t-130 37.5h-82l109 181q-109 15 -167 90.5t-58 200.5v577h-164v143h166v275l168 123v-398h268v-143h-268v-549
q0 -92 36.5 -133t106.5 -41q65 0 125 29l2 -156q-43 -14 -113 -20l-71 -109q25 0 61 -8z" />
    <glyph glyph-name="Tcaron" unicode="&#x164;" horiz-adv-x="1228" 
d="M614 1511l-307 316h137l170 -176l170 176h138zM526 0v1255h-477v158h1129v-158h-476v-1255h-176z" />
    <glyph glyph-name="tcaron" unicode="&#x165;" horiz-adv-x="718" 
d="M504 1130l117 433h178l-191 -433h-104zM487 -16q-136 0 -210 77t-74 218v577h-164v143h166v275l168 123v-398h268v-143h-268v-549q0 -92 36.5 -133t106.5 -41q65 0 125 29l2 -156q-73 -22 -156 -22z" />
    <glyph glyph-name="Tbar" unicode="&#x166;" horiz-adv-x="1228" 
d="M1178 1255h-476v-491h232v-115h-232v-649h-176v649h-227v115h227v491h-477v158h1129v-158z" />
    <glyph glyph-name="tbar" unicode="&#x167;" horiz-adv-x="718" 
d="M666 442h-293v-135q0 -92 36.5 -133t106.5 -41q65 0 125 29l2 -156q-73 -22 -156 -22q-136 0 -210 77t-74 218v163h-172v115h172v299h-164v143h166v275l168 123v-398h268v-143h-268v-299h293v-115z" />
    <glyph glyph-name="Utilde" unicode="&#x168;" horiz-adv-x="1394" 
d="M831 1546q-45 0 -81 17.5t-58 42t-41.5 49t-42 42t-49.5 17.5q-42 0 -66 -40.5t-24 -112.5h-98q0 124 51.5 192t142.5 68q42 0 75.5 -17t56 -41.5t43 -49t44 -41.5t50.5 -17q37 0 60.5 42.5t23.5 114.5h104q0 -124 -51.5 -195t-139.5 -71zM696 -16q-258 0 -387 145
t-129 408v876h176v-856q0 -202 79.5 -302.5t260.5 -100.5q182 0 262 101.5t80 303.5v854h176v-866q0 -269 -129 -416t-389 -147z" />
    <glyph glyph-name="utilde" unicode="&#x169;" horiz-adv-x="1136" 
d="M702 1133q-45 0 -81 17t-58 41.5t-41.5 49.5t-42 42t-49.5 17q-42 0 -66 -40.5t-24 -112.5h-98q0 124 51.5 192t142.5 68q42 0 75.5 -17t56 -41.5t43 -49t44 -41.5t50.5 -17q37 0 60 42.5t23 115.5h105q0 -124 -51.5 -195t-139.5 -71zM494 -16q-89 0 -157.5 31t-110 86
t-63 124.5t-22.5 151.5v622h168v-591q0 -125 59.5 -197t170.5 -72q122 0 192 73.5t70 211.5v575h168v-999h-168v152q-51 -82 -132 -125t-175 -43z" />
    <glyph glyph-name="Umacron" unicode="&#x16a;" horiz-adv-x="1394" 
d="M420 1610v102h551v-102h-551zM696 -16q-258 0 -387 145t-129 408v876h176v-856q0 -202 79.5 -302.5t260.5 -100.5q182 0 262 101.5t80 303.5v854h176v-866q0 -269 -129 -416t-389 -147z" />
    <glyph glyph-name="umacron" unicode="&#x16b;" horiz-adv-x="1136" 
d="M291 1196v102h551v-102h-551zM494 -16q-89 0 -157.5 31t-110 86t-63 124.5t-22.5 151.5v622h168v-591q0 -125 59.5 -197t170.5 -72q122 0 192 73.5t70 211.5v575h168v-999h-168v152q-51 -82 -132 -125t-175 -43z" />
    <glyph glyph-name="Uring" unicode="&#x16e;" horiz-adv-x="1394" 
d="M692 1499q-86 0 -145.5 61t-59.5 146q0 86 60 146.5t145 60.5t146 -60.5t61 -146.5q0 -87 -60 -147t-147 -60zM692 1593q49 0 81 32.5t32 82.5q0 47 -31.5 79t-81.5 32q-47 0 -78.5 -32.5t-31.5 -78.5q0 -49 32 -82t78 -33zM696 -16q-258 0 -387 145t-129 408v876h176
v-856q0 -202 79.5 -302.5t260.5 -100.5q182 0 262 101.5t80 303.5v854h176v-866q0 -269 -129 -416t-389 -147z" />
    <glyph glyph-name="uring" unicode="&#x16f;" horiz-adv-x="1136" 
d="M563 1085q-86 0 -145.5 61t-59.5 146q0 86 60 146.5t145 60.5t146 -60.5t61 -146.5q0 -87 -60 -147t-147 -60zM563 1180q49 0 81 32t32 82q0 47 -31.5 79t-81.5 32q-47 0 -78.5 -32.5t-31.5 -78.5q0 -49 32 -81.5t78 -32.5zM494 -16q-89 0 -157.5 31t-110 86t-63 124.5
t-22.5 151.5v622h168v-591q0 -125 59.5 -197t170.5 -72q122 0 192 73.5t70 211.5v575h168v-999h-168v152q-51 -82 -132 -125t-175 -43z" />
    <glyph glyph-name="Uhungarumlaut" unicode="&#x170;" horiz-adv-x="1394" 
d="M453 1513l221 314h153l-247 -314h-127zM811 1513l219 314h182l-274 -314h-127zM696 -16q-258 0 -387 145t-129 408v876h176v-856q0 -202 79.5 -302.5t260.5 -100.5q182 0 262 101.5t80 303.5v854h176v-866q0 -269 -129 -416t-389 -147z" />
    <glyph glyph-name="uhungarumlaut" unicode="&#x171;" horiz-adv-x="1136" 
d="M324 1100l221 313h153l-247 -313h-127zM682 1100l219 313h182l-274 -313h-127zM494 -16q-89 0 -157.5 31t-110 86t-63 124.5t-22.5 151.5v622h168v-591q0 -125 59.5 -197t170.5 -72q122 0 192 73.5t70 211.5v575h168v-999h-168v152q-51 -82 -132 -125t-175 -43z" />
    <glyph glyph-name="Uogonek" unicode="&#x172;" horiz-adv-x="1394" 
d="M1038 1413h176v-866q0 -444 -333 -541q-66 -36 -111 -87.5t-45 -113.5q0 -110 106 -110q81 0 134 74l88 -60q-83 -121 -217 -121q-96 0 -154.5 53t-58.5 142q0 114 102 201h-29q-258 0 -387 145t-129 408v876h176v-856q0 -202 79.5 -302.5t260.5 -100.5q182 0 262 101.5
t80 303.5v854z" />
    <glyph glyph-name="uogonek" unicode="&#x173;" horiz-adv-x="1136" 
d="M967 -274l88 -60q-83 -121 -217 -121q-96 0 -154.5 53t-58.5 142q0 52 22 99.5t55.5 79.5t65.5 52.5t57 28.5h-24v152q-51 -82 -132 -125t-175 -43q-89 0 -157.5 31t-110 86t-63 124.5t-22.5 151.5v622h168v-591q0 -125 59.5 -197t170.5 -72q122 0 192 73.5t70 211.5v575
h168v-999h-2q-33 -10 -71 -30t-77.5 -49.5t-65.5 -71.5t-26 -87q0 -57 29 -83.5t78 -26.5q80 0 133 74z" />
    <glyph glyph-name="Wcircumflex" unicode="&#x174;" horiz-adv-x="1986" 
d="M690 1511l305 330l308 -330h-138l-170 183l-170 -183h-135zM473 0l-412 1413h183l329 -1159l351 1081h139l350 -1081l330 1159h184l-414 -1413h-174l-346 1057l-344 -1057h-176z" />
    <glyph glyph-name="wcircumflex" unicode="&#x175;" horiz-adv-x="1478" 
d="M436 1108l305 330l308 -330h-138l-170 182l-170 -182h-135zM336 0l-297 999h182l203 -743l242 743h149l242 -741l203 741h182l-299 -999h-156l-248 764l-247 -764h-156z" />
    <glyph glyph-name="Ycircumflex" unicode="&#x176;" horiz-adv-x="1325" 
d="M354 1522l305 329l308 -329h-138l-170 182l-170 -182h-135zM571 0v543l-534 870h213l412 -698l413 698h213l-534 -870v-543h-183z" />
    <glyph glyph-name="ycircumflex" unicode="&#x177;" horiz-adv-x="1024" 
d="M203 1108l305 330l307 -330h-137l-170 182l-170 -182h-135zM266 -414l168 430l-414 983h187l317 -786l291 786h186l-550 -1413h-185z" />
    <glyph glyph-name="Ydieresis" unicode="&#x178;" horiz-adv-x="1325" 
d="M401 1616v211h144v-211h-144zM774 1616v211h144v-211h-144zM571 0v543l-534 870h213l412 -698l413 698h213l-534 -870v-543h-183z" />
    <glyph glyph-name="Zacute" unicode="&#x179;" horiz-adv-x="1294" 
d="M965 1827l-277 -287h-127l221 287h183zM1202 1413v-133l-880 -1120h878v-160h-1120v129l885 1122h-838v162h1075z" />
    <glyph glyph-name="zacute" unicode="&#x17a;" horiz-adv-x="987" 
d="M805 1413l-277 -287h-127l222 287h182zM911 999v-129l-620 -727h616v-143h-844v119l633 737h-602v143h817z" />
    <glyph glyph-name="Zdotaccent" unicode="&#x17b;" horiz-adv-x="1294" 
d="M731 1827v-211h-176v211h176zM1202 1413v-133l-880 -1120h878v-160h-1120v129l885 1122h-838v162h1075z" />
    <glyph glyph-name="zdotaccent" unicode="&#x17c;" horiz-adv-x="987" 
d="M573 1413v-211h-176v211h176zM911 999v-129l-620 -727h616v-143h-844v119l633 737h-602v143h817z" />
    <glyph glyph-name="Zcaron" unicode="&#x17d;" horiz-adv-x="1294" 
d="M950 1827l-307 -316l-307 316h137l170 -176l170 176h137zM1202 1413v-133l-880 -1120h878v-160h-1120v129l885 1122h-838v162h1075z" />
    <glyph glyph-name="zcaron" unicode="&#x17e;" horiz-adv-x="987" 
d="M793 1413l-308 -315l-307 315h137l170 -176l170 176h138zM911 999v-129l-620 -727h616v-143h-844v119l633 737h-602v143h817z" />
    <glyph glyph-name="florin" unicode="&#x192;" horiz-adv-x="997" 
d="M111 -449v130q155 0 217.5 64.5t62.5 229.5v895h-174v129h174v127q0 138 78.5 226t198.5 88q118 0 229 -94l-94 -109q-68 59 -135 59q-59 0 -96 -43.5t-37 -126.5v-127h258v-129h-258v-909q0 -210 -106.5 -310t-317.5 -100z" />
    <glyph glyph-name="Ohorn" unicode="&#x1a0;" horiz-adv-x="1548" 
d="M1489 1470q0 -245 -184 -301q129 -186 129 -462q0 -147 -40.5 -275.5t-119.5 -229.5t-207.5 -159.5t-292.5 -58.5t-292.5 58.5t-207 159.5t-119 229t-40.5 276t40.5 276t119 229t207 159.5t292.5 58.5q275 0 447 -162q73 7 106 59t33 131v105h129v-93zM774 139
q122 0 215 45.5t148 125t82.5 179.5t27.5 218q0 94 -16.5 176.5t-53.5 154.5t-91 124t-134 82t-178 30t-178 -30t-134 -82t-91 -124t-53.5 -154.5t-16.5 -176.5q0 -118 27.5 -218t82.5 -179.5t148 -125t215 -45.5z" />
    <glyph glyph-name="ohorn" unicode="&#x1a1;" horiz-adv-x="1144" 
d="M1090 1149h129v-92q0 -123 -52 -204t-159 -103q57 -114 57 -248q0 -142 -61.5 -260t-175.5 -188t-257 -70t-256 69.5t-174 187.5t-61 261q0 142 61 259t174 186t256 69q112 0 206.5 -42.5t160.5 -119.5q81 3 116.5 55t35.5 135v105zM571 131q150 0 234 106t84 265
q0 158 -84 262t-234 104q-149 0 -232 -103.5t-83 -262.5t83.5 -265t231.5 -106z" />
    <glyph glyph-name="Uhorn" unicode="&#x1af;" horiz-adv-x="1394" 
d="M1327 1563h129v-93q0 -133 -59.5 -216t-182.5 -97v-610q0 -269 -129 -416t-389 -147q-258 0 -387 145t-129 408v876h176v-856q0 -202 79.5 -302.5t260.5 -100.5q182 0 262 101.5t80 303.5v854h176v-139q113 24 113 184v105z" />
    <glyph glyph-name="uhorn" unicode="&#x1b0;" horiz-adv-x="1136" 
d="M1092 1149h129v-92q0 -135 -62.5 -219.5t-189.5 -94.5v-743h-168v152q-51 -82 -132 -125t-175 -43q-89 0 -157.5 31t-110 86t-63 124.5t-22.5 151.5v622h168v-591q0 -125 59.5 -197t170.5 -72q122 0 192 73.5t70 211.5v575h168v-141q123 21 123 186v105z" />
    <glyph glyph-name="uni01C3" unicode="&#x1c3;" horiz-adv-x="579" 
d="M225 408l-18 1005h166l-19 -1005h-129zM199 0v233h184v-233h-184z" />
    <glyph glyph-name="uni01C4" unicode="&#x1c4;" horiz-adv-x="2713" 
d="M2370 1827l-308 -316l-307 316h137l170 -176l170 176h138zM600 1413q353 0 540 -185.5t187 -531.5q0 -333 -189 -514.5t-540 -181.5h-387v1413h389zM2621 1413v-133l-880 -1120h878v-160h-1120v129l885 1122h-838v162h1075zM582 162q274 0 421.5 132t147.5 408
q0 282 -134 415.5t-419 133.5h-211v-1089h195z" />
    <glyph glyph-name="uni01C5" unicode="&#x1c5;" horiz-adv-x="2430" 
d="M600 1413q353 0 540 -185.5t187 -531.5q0 -333 -189 -514.5t-540 -181.5h-387v1413h389zM2236 1413l-307 -315l-307 315h137l170 -176l170 176h137zM582 162q274 0 421.5 132t147.5 408q0 282 -134 415.5t-419 133.5h-211v-1089h195zM2355 999v-129l-620 -727h616v-143
h-844v119l633 737h-602v143h817z" />
    <glyph glyph-name="uni01C6" unicode="&#x1c6;" horiz-adv-x="2187" 
d="M858 819v594h172v-1413h-158l-8 188q-47 -97 -137.5 -150.5t-200.5 -53.5q-132 0 -233.5 70t-154 187t-52.5 259q0 141 52.5 258t153.5 187.5t232 70.5q106 0 195.5 -51.5t138.5 -145.5zM1993 1413l-307 -315l-308 315h138l170 -176l169 176h138zM2111 999v-129
l-620 -727h616v-143h-843v119l632 737h-602v143h817zM567 137q143 0 224 101.5t81 261.5q0 159 -81.5 260.5t-223.5 101.5q-144 0 -226.5 -102.5t-82.5 -259.5q0 -159 82.5 -261t226.5 -102z" />
    <glyph glyph-name="uni01C7" unicode="&#x1c7;" horiz-adv-x="2267" 
d="M211 0v1413h176v-1247h631v-166h-807zM1628 -16q-200 0 -322.5 123t-136.5 315l172 18q9 -132 83.5 -212.5t203.5 -80.5q152 0 215.5 89.5t63.5 273.5v741h-559v162h735v-899q0 -163 -45.5 -279t-149 -183.5t-260.5 -67.5z" />
    <glyph glyph-name="uni01C8" unicode="&#x1c8;" horiz-adv-x="1589" 
d="M211 0v1413h176v-1247h631v-166h-807zM1243 1202v211h180v-211h-180zM1145 -434q-83 0 -166 31l45 147q66 -25 104 -25q61 0 90 36.5t29 113.5v1130h172v-1118q0 -144 -69 -229.5t-205 -85.5z" />
    <glyph glyph-name="uni01C9" unicode="&#x1c9;" horiz-adv-x="1069" 
d="M354 -16q-100 0 -146 53.5t-46 169.5v1206h170v-1161q0 -58 21 -87.5t79 -29.5q18 0 76 8l2 -143q-94 -16 -156 -16zM723 1202v211h180v-211h-180zM625 -434q-83 0 -166 31l45 147q66 -25 104 -25q61 0 90 36.5t29 113.5v1130h172v-1118q0 -144 -69 -229.5t-205 -85.5z
" />
    <glyph glyph-name="uni01CA" unicode="&#x1ca;" horiz-adv-x="2596" 
d="M1057 289v1124h170v-1413h-183l-665 1128v-1128h-168v1413h180zM1679 1413h736v-899q0 -163 -45.5 -279t-149 -183.5t-260.5 -67.5q-200 0 -322.5 123t-136.5 315l172 18q9 -132 83.5 -212.5t203.5 -80.5q152 0 215 89.5t63 273.5v741h-559v162z" />
    <glyph glyph-name="uni01CB" unicode="&#x1cb;" horiz-adv-x="1947" 
d="M1057 289v1124h170v-1413h-183l-665 1128v-1128h-168v1413h180zM1604 1413h180v-211h-180v211zM1608 -131v1130h172v-1118q0 -144 -69.5 -229.5t-205.5 -85.5q-83 0 -166 31l45 147q66 -25 105 -25q61 0 90 36.5t29 113.5z" />
    <glyph glyph-name="uni01CC" unicode="&#x1cc;" horiz-adv-x="1648" 
d="M1303 1202v211h180v-211h-180zM168 0v999h170v-151q50 82 130.5 125t174.5 43q89 0 157.5 -31t110 -86t62.5 -124.5t22 -151.5v-623h-168v592q0 125 -59.5 196.5t-171.5 71.5q-121 0 -189.5 -73t-68.5 -212v-575h-170zM1204 -434q-83 0 -166 31l45 147q66 -25 105 -25
q61 0 90 36.5t29 113.5v1130h172v-1118q0 -144 -69.5 -229.5t-205.5 -85.5z" />
    <glyph glyph-name="uni01CD" unicode="&#x1cd;" horiz-adv-x="1314" 
d="M655 1511l-307 316h137l170 -176l170 176h138zM49 0l539 1413h141l537 -1413h-191l-119 330h-594l-120 -330h-193zM418 481h483l-242 680z" />
    <glyph glyph-name="uni01CE" unicode="&#x1ce;" horiz-adv-x="1060" 
d="M815 1413l-307 -315l-307 315h137l170 -176l170 176h137zM512 1016q193 0 301.5 -109.5t108.5 -298.5v-608h-142l-12 176q-52 -93 -145 -142.5t-199 -49.5q-157 0 -254.5 83t-97.5 228q0 287 411 287h283q0 151 -57.5 218.5t-196.5 67.5q-171 0 -270 -155l-131 94
q77 104 172.5 156.5t228.5 52.5zM457 127q122 0 203.5 74t105.5 192v66h-272q-122 0 -185 -45t-63 -123q0 -75 55 -119.5t156 -44.5z" />
    <glyph glyph-name="uni01CF" unicode="&#x1cf;" horiz-adv-x="595" 
d="M297 1511l-307 316h137l170 -176l170 176h137zM211 0v1413h176v-1413h-176z" />
    <glyph glyph-name="uni01D0" unicode="&#x1d0;" horiz-adv-x="505" 
d="M252 1098l-307 315h137l170 -176l170 176h137zM168 0v999h170v-999h-170z" />
    <glyph glyph-name="uni01D1" unicode="&#x1d1;" horiz-adv-x="1548" 
d="M772 1511l-307 316h137l170 -176l170 176h137zM774 -16q-164 0 -292.5 58.5t-207 159.5t-119 229t-40.5 276t40.5 276t119 229t207 159.5t292.5 58.5t292.5 -58.5t207.5 -159.5t119.5 -229.5t40.5 -275.5t-40.5 -275.5t-119.5 -229.5t-207.5 -159.5t-292.5 -58.5z
M774 139q122 0 215 45.5t148 125t82.5 179.5t27.5 218q0 94 -16.5 176.5t-53.5 154.5t-91 124t-134 82t-178 30t-178 -30t-134 -82t-91 -124t-53.5 -154.5t-16.5 -176.5q0 -118 27.5 -218t82.5 -179.5t148 -125t215 -45.5z" />
    <glyph glyph-name="uni01D2" unicode="&#x1d2;" horiz-adv-x="1144" 
d="M571 1098l-307 315h137l170 -176l170 176h138zM571 -16q-143 0 -256 69.5t-174 187.5t-61 261q0 142 61 259t174 186t256 69q216 0 355 -148.5t139 -365.5q0 -142 -61.5 -260t-175.5 -188t-257 -70zM571 131q150 0 234 106t84 265q0 158 -84 262t-234 104
q-149 0 -232 -103.5t-83 -262.5t83.5 -265t231.5 -106z" />
    <glyph glyph-name="uni01D3" unicode="&#x1d3;" horiz-adv-x="1394" 
d="M694 1511l-307 316h137l170 -176l170 176h137zM696 -16q-258 0 -387 145t-129 408v876h176v-856q0 -202 79.5 -302.5t260.5 -100.5q182 0 262 101.5t80 303.5v854h176v-866q0 -269 -129 -416t-389 -147z" />
    <glyph glyph-name="uni01D4" unicode="&#x1d4;" horiz-adv-x="1136" 
d="M565 1098l-307 315h137l170 -176l170 176h137zM494 -16q-89 0 -157.5 31t-110 86t-63 124.5t-22.5 151.5v622h168v-591q0 -125 59.5 -197t170.5 -72q122 0 192 73.5t70 211.5v575h168v-999h-168v152q-51 -82 -132 -125t-175 -43z" />
    <glyph glyph-name="uni01D5" unicode="&#x1d5;" horiz-adv-x="1394" 
d="M420 2023v103h551v-103h-551zM436 1616v211h144v-211h-144zM809 1616v211h143v-211h-143zM696 -16q-258 0 -387 145t-129 408v876h176v-856q0 -202 79.5 -302.5t260.5 -100.5q182 0 262 101.5t80 303.5v854h176v-866q0 -269 -129 -416t-389 -147z" />
    <glyph glyph-name="uni01D6" unicode="&#x1d6;" horiz-adv-x="1136" 
d="M291 1610v102h551v-102h-551zM307 1202v211h144v-211h-144zM680 1202v211h143v-211h-143zM494 -16q-89 0 -157.5 31t-110 86t-63 124.5t-22.5 151.5v622h168v-591q0 -125 59.5 -197t170.5 -72q122 0 192 73.5t70 211.5v575h168v-999h-168v152q-51 -82 -132 -125t-175 -43
z" />
    <glyph glyph-name="uni01D7" unicode="&#x1d7;" horiz-adv-x="1394" 
d="M612 1954l222 287h182l-277 -287h-127zM436 1616v211h144v-211h-144zM809 1616v211h143v-211h-143zM696 -16q-258 0 -387 145t-129 408v876h176v-856q0 -202 79.5 -302.5t260.5 -100.5q182 0 262 101.5t80 303.5v854h176v-866q0 -269 -129 -416t-389 -147z" />
    <glyph glyph-name="uni01D8" unicode="&#x1d8;" horiz-adv-x="1136" 
d="M483 1540l222 287h182l-277 -287h-127zM307 1202v211h144v-211h-144zM680 1202v211h143v-211h-143zM494 -16q-89 0 -157.5 31t-110 86t-63 124.5t-22.5 151.5v622h168v-591q0 -125 59.5 -197t170.5 -72q122 0 192 73.5t70 211.5v575h168v-999h-168v152q-51 -82 -132 -125
t-175 -43z" />
    <glyph glyph-name="uni01D9" unicode="&#x1d9;" horiz-adv-x="1394" 
d="M694 1925l-307 316h137l170 -177l170 177h137zM436 1616v211h144v-211h-144zM809 1616v211h143v-211h-143zM696 -16q-258 0 -387 145t-129 408v876h176v-856q0 -202 79.5 -302.5t260.5 -100.5q182 0 262 101.5t80 303.5v854h176v-866q0 -269 -129 -416t-389 -147z" />
    <glyph glyph-name="uni01DA" unicode="&#x1da;" horiz-adv-x="1136" 
d="M565 1511l-307 316h137l170 -176l170 176h137zM307 1202v211h144v-211h-144zM680 1202v211h143v-211h-143zM494 -16q-89 0 -157.5 31t-110 86t-63 124.5t-22.5 151.5v622h168v-591q0 -125 59.5 -197t170.5 -72q122 0 192 73.5t70 211.5v575h168v-999h-168v152
q-51 -82 -132 -125t-175 -43z" />
    <glyph glyph-name="uni01DB" unicode="&#x1db;" horiz-adv-x="1394" 
d="M647 1939l-274 302h180l221 -302h-127zM436 1616v211h144v-211h-144zM809 1616v211h143v-211h-143zM696 -16q-258 0 -387 145t-129 408v876h176v-856q0 -202 79.5 -302.5t260.5 -100.5q182 0 262 101.5t80 303.5v854h176v-866q0 -269 -129 -416t-389 -147z" />
    <glyph glyph-name="uni01DC" unicode="&#x1dc;" horiz-adv-x="1136" 
d="M518 1526l-274 301h180l221 -301h-127zM307 1202v211h144v-211h-144zM680 1202v211h143v-211h-143zM494 -16q-89 0 -157.5 31t-110 86t-63 124.5t-22.5 151.5v622h168v-591q0 -125 59.5 -197t170.5 -72q122 0 192 73.5t70 211.5v575h168v-999h-168v152q-51 -82 -132 -125
t-175 -43z" />
    <glyph glyph-name="uni01DD" unicode="&#x1dd;" horiz-adv-x="1073" 
d="M510 1016q152 0 262.5 -70t163.5 -184.5t53 -257.5q0 -104 -30 -197t-86.5 -165.5t-146 -115t-200.5 -42.5q-97 0 -175 30t-127 77.5t-82 111t-46.5 127t-13.5 129.5q0 60 8 92h719q-9 147 -86.5 229t-214.5 82q-86 0 -150.5 -27.5t-124.5 -93.5l-118 105
q85 89 178.5 129.5t216.5 40.5zM809 426h-559q0 -44 4 -64q13 -100 83 -167.5t189 -67.5q123 0 196 81.5t87 217.5z" />
    <glyph glyph-name="Gcaron" unicode="&#x1e6;" horiz-adv-x="1538" 
d="M770 1511l-307 316h137l170 -176l170 176h137zM770 -16q-160 0 -285.5 55.5t-205 153.5t-121 229t-41.5 287q0 124 25.5 232t79 198.5t130.5 155.5t185.5 101t238.5 36q209 0 359 -99t229 -291l-158 -65q-105 301 -432 301q-120 0 -213.5 -42.5t-151.5 -118.5t-88 -178
t-30 -224q0 -97 17.5 -181.5t55 -157.5t92.5 -124.5t135.5 -81t178.5 -29.5q182 0 296 93.5t138 271.5l4 90h-336v143h510v-739h-141l-14 236q-65 -120 -183 -186t-274 -66z" />
    <glyph glyph-name="gcaron" unicode="&#x1e7;" horiz-adv-x="1044" 
d="M825 1413l-307 -315l-307 315h137l170 -176l170 176h137zM567 131q42 -6 67 -10t64 -12t63 -15.5t56.5 -19.5t52 -26t41.5 -34t34 -43.5t20 -54t8 -66.5q0 -76 -31.5 -131t-89.5 -87t-133 -47t-170 -15q-222 0 -341.5 80t-119.5 229q0 21 4 45l139 123q-120 62 -120 193
q0 121 104 196q-86 95 -86 230q0 153 112.5 251.5t276.5 98.5q144 0 246 -76l143 123l88 -109l-137 -114q49 -84 49 -185q0 -155 -110 -250.5t-275 -95.5q-117 0 -203 47q-61 -28 -61 -88q0 -65 83 -94q45 -16 206 -40q11 -2 20 -3zM524 885q-100 0 -160.5 -61.5
t-60.5 -159.5q0 -97 59 -156t160 -59t159 59t58 156q0 98 -58.5 159.5t-156.5 61.5zM557 -301q112 0 184 34t72 103q0 26 -9 46t-30 34.5t-43 24.5t-62.5 18t-72 13t-86.5 12q-147 21 -174 28l-94 -125q0 -4 1 -13t1 -13q12 -76 97 -119t216 -43z" />
    <glyph glyph-name="uni01EA" unicode="&#x1ea;" horiz-adv-x="1548" 
d="M922 -2q-34 -12 -70.5 -32.5t-74 -50t-61.5 -70t-24 -83.5q0 -57 29 -83.5t78 -26.5q80 0 133 74l88 -60q-83 -121 -217 -121q-96 0 -154.5 53t-58.5 142q0 82 50.5 146t113.5 98q-158 4 -282.5 63.5t-201 160t-116 227.5t-39.5 272q0 148 40.5 276t119 229t207 159.5
t292.5 58.5t292.5 -58.5t207.5 -159.5t119.5 -229.5t40.5 -275.5q0 -130 -31.5 -245.5t-93.5 -211t-161 -162t-226 -90.5zM301 707q0 -118 27.5 -218t82.5 -179.5t148 -125t215 -45.5t215 45.5t148 125t82.5 179.5t27.5 218q0 94 -16.5 176.5t-53.5 154.5t-91 124t-134 82
t-178 30t-178 -30t-134 -82t-91 -124t-53.5 -154.5t-16.5 -176.5z" />
    <glyph glyph-name="uni01EB" unicode="&#x1eb;" horiz-adv-x="1144" 
d="M682 -4q-34 -12 -70 -32.5t-72.5 -50t-59.5 -69.5t-23 -82q0 -110 106 -110q80 0 133 74l88 -60q-83 -121 -217 -121q-96 0 -154.5 53t-58.5 142q0 85 51.5 149.5t116.5 96.5q-197 19 -319.5 165t-122.5 351q0 142 61 259t174 186t256 69q216 0 355 -148.5t139 -365.5
q0 -187 -105.5 -328.5t-277.5 -177.5zM256 502q0 -159 83.5 -265t231.5 -106q150 0 234 106t84 265q0 158 -84 262t-234 104q-149 0 -232 -103.5t-83 -262.5z" />
    <glyph glyph-name="uni01F1" unicode="&#x1f1;" horiz-adv-x="2713" 
d="M600 1413q353 0 540 -185.5t187 -531.5q0 -333 -189 -514.5t-540 -181.5h-387v1413h389zM2621 1413v-133l-880 -1120h878v-160h-1120v129l885 1122h-838v162h1075zM582 162q274 0 421.5 132t147.5 408q0 282 -134 415.5t-419 133.5h-211v-1089h195z" />
    <glyph glyph-name="uni01F2" unicode="&#x1f2;" horiz-adv-x="2430" 
d="M600 1413q353 0 540 -185.5t187 -531.5q0 -333 -189 -514.5t-540 -181.5h-387v1413h389zM582 162q274 0 421.5 132t147.5 408q0 282 -134 415.5t-419 133.5h-211v-1089h195zM2355 999v-129l-620 -727h616v-143h-844v119l633 737h-602v143h817z" />
    <glyph glyph-name="uni01F3" unicode="&#x1f3;" horiz-adv-x="2187" 
d="M858 819v594h172v-1413h-158l-8 188q-47 -97 -137.5 -150.5t-200.5 -53.5q-132 0 -233.5 70t-154 187t-52.5 259q0 141 52.5 258t153.5 187.5t232 70.5q106 0 195.5 -51.5t138.5 -145.5zM2111 999v-129l-620 -727h616v-143h-843v119l632 737h-602v143h817zM567 137
q143 0 224 101.5t81 261.5q0 159 -81.5 260.5t-223.5 101.5q-144 0 -226.5 -102.5t-82.5 -259.5q0 -159 82.5 -261t226.5 -102z" />
    <glyph glyph-name="Aringacute" unicode="&#x1fa;" horiz-adv-x="1314" 
d="M653 1499q-86 0 -145 61t-59 146q0 86 59.5 146.5t144.5 60.5q57 0 111 -33l162 211h182l-274 -285q26 -47 26 -100q0 -87 -60 -147t-147 -60zM653 1819q-47 0 -78.5 -32.5t-31.5 -78.5q0 -49 32 -82t78 -33q49 0 81 32.5t32 82.5q0 68 -55 96h-6l2 2q-26 13 -54 13z
M729 1413l537 -1413h-191l-119 330h-594l-120 -330h-193l539 1413h141zM418 481h483l-242 680z" />
    <glyph glyph-name="aringacute" unicode="&#x1fb;" horiz-adv-x="1060" 
d="M506 1085q-86 0 -145.5 61t-59.5 146q0 86 60 146.5t145 60.5q55 0 108 -31l162 209h182l-272 -282q27 -52 27 -103q0 -87 -60 -147t-147 -60zM506 1405q-47 0 -79 -32.5t-32 -78.5q0 -49 32.5 -81.5t78.5 -32.5q49 0 80.5 32t31.5 82q0 31 -14.5 57.5t-40.5 39.5h-8l2 4
q-23 10 -51 10zM512 1016q193 0 301.5 -109.5t108.5 -298.5v-608h-142l-12 176q-52 -93 -145 -142.5t-199 -49.5q-157 0 -254.5 83t-97.5 228q0 287 411 287h283q0 151 -57.5 218.5t-196.5 67.5q-171 0 -270 -155l-131 94q77 104 172.5 156.5t228.5 52.5zM457 127
q122 0 203.5 74t105.5 192v66h-272q-122 0 -185 -45t-63 -123q0 -75 55 -119.5t156 -44.5z" />
    <glyph glyph-name="AEacute" unicode="&#x1fc;" horiz-adv-x="1894" 
d="M885 1540l221 287h182l-276 -287h-127zM49 0l535 1413h1185v-156h-745v-475h651v-147h-651v-475h745v-160h-921v330h-490l-116 -330h-193zM414 467h434v797h-152z" />
    <glyph glyph-name="aeacute" unicode="&#x1fd;" horiz-adv-x="1718" 
d="M758 1126l221 287h182l-276 -287h-127zM416 -16q-148 0 -247 83t-99 220q0 152 107.5 219t305.5 67h281q0 43 -6 80q-12 109 -74 162t-180 53q-170 0 -271 -145l-120 88q76 104 171.5 153.5t225.5 49.5q131 0 221 -59.5t127 -168.5q53 106 140 166t204 60q95 0 171 -29
t124.5 -76t80.5 -111.5t45 -131t13 -138.5q0 -53 -8 -77h-702q6 -144 77 -227t201 -83q91 0 155.5 27.5t125.5 91.5l119 -104q-86 -89 -180 -127.5t-218 -38.5q-133 0 -228.5 57.5t-143.5 159.5q-70 -107 -168 -164t-250 -57zM924 573h544q3 34 -4 68q-13 97 -82.5 162
t-193.5 65q-119 0 -190 -84.5t-74 -210.5zM440 111q117 0 198.5 52t141.5 156q-12 47 -16 130h-272q-128 0 -195.5 -41.5t-67.5 -120.5t57.5 -127.5t153.5 -48.5z" />
    <glyph glyph-name="Oslashacute" unicode="&#x1fe;" horiz-adv-x="1548" 
d="M1094 1827l-277 -287h-127l221 287h183zM1196 1290q118 -99 178 -251t60 -332q0 -147 -40.5 -275.5t-119.5 -229.5t-207.5 -159.5t-292.5 -58.5q-195 0 -334 79l-39 -63h-129l78 125q-117 98 -176 250.5t-59 331.5q0 148 40.5 276t119 229t207 159.5t292.5 58.5
q186 0 332 -78l37 61h129zM301 707q0 -282 139 -435l580 940q-108 62 -246 62q-98 0 -178 -30t-134 -82t-91 -124t-53.5 -154.5t-16.5 -176.5zM774 139q122 0 215 45.5t148 125t82.5 179.5t27.5 218q0 283 -141 436l-580 -940q103 -64 248 -64z" />
    <glyph glyph-name="oslashacute" unicode="&#x1ff;" horiz-adv-x="1144" 
d="M891 1413l-277 -287h-127l222 287h182zM874 915q90 -71 140.5 -179t50.5 -234q0 -142 -61.5 -260t-175.5 -188t-257 -70q-130 0 -235 57l-27 -41h-90l51 84q-90 71 -140 180.5t-50 237.5q0 142 61 259t174 186t256 69q128 0 238 -58l25 41h92zM256 502q0 -179 98 -283
l375 610q-70 39 -158 39q-149 0 -232 -103.5t-83 -262.5zM571 131q150 0 234 106t84 265q0 177 -98 278l-375 -608q65 -41 155 -41z" />
    <glyph glyph-name="uni0218" unicode="&#x218;" horiz-adv-x="1144" 
d="M588 -14q-125 0 -231.5 44t-182 135.5t-96.5 217.5l176 43q18 -137 109 -210t227 -73q131 0 210 67.5t79 170.5q0 55 -24.5 99t-65.5 74t-94.5 56t-113 48.5t-118.5 47t-112.5 56.5t-94.5 71.5t-65.5 97.5t-24.5 130q0 167 119 268t295 101q276 0 409 -234l-145 -90
q-92 168 -271 168q-99 0 -165 -58t-66 -147q0 -50 24.5 -90t65.5 -68t94.5 -52t113 -46.5t118.5 -47t112.5 -58t94.5 -75t65.5 -102t24.5 -135.5q0 -122 -62.5 -216t-168.5 -143.5t-236 -49.5zM326 -451l166 340h178l-242 -340h-102z" />
    <glyph glyph-name="uni0219" unicode="&#x219;" horiz-adv-x="921" 
d="M467 -16q-149 0 -261 75.5t-151 192.5l138 59q30 -79 97 -132.5t169 -53.5q99 0 153 46t54 116q0 48 -30.5 80t-79.5 49.5t-107.5 31.5t-117.5 32.5t-108 45.5t-79.5 78.5t-30.5 124.5q0 135 100 211t250 76q121 0 213 -55t147 -156l-131 -72q-78 148 -233 148
q-84 0 -134.5 -35.5t-50.5 -93.5q0 -43 31 -72.5t80.5 -46.5t109 -32t119 -36t109 -51.5t80.5 -86t31 -132.5q0 -150 -106 -230.5t-261 -80.5zM254 -451l166 340h178l-242 -340h-102z" />
    <glyph glyph-name="uni021A" unicode="&#x21a;" horiz-adv-x="1228" 
d="M526 0v1255h-477v158h1129v-158h-476v-1255h-176zM375 -451l166 340h178l-242 -340h-102z" />
    <glyph glyph-name="uni021B" unicode="&#x21b;" horiz-adv-x="718" 
d="M487 -16q-136 0 -210 77t-74 218v577h-164v143h166v275l168 123v-398h268v-143h-268v-549q0 -92 36.5 -133t106.5 -41q65 0 125 29l2 -156q-73 -22 -156 -22zM244 -451l166 340h178l-242 -340h-102z" />
    <glyph glyph-name="uni0232" unicode="&#x232;" horiz-adv-x="1325" 
d="M385 1610v102h551v-102h-551zM571 0v543l-534 870h213l412 -698l413 698h213l-534 -870v-543h-183z" />
    <glyph glyph-name="uni0233" unicode="&#x233;" horiz-adv-x="1024" 
d="M233 1196v102h551v-102h-551zM266 -414l168 430l-414 983h187l317 -786l291 786h186l-550 -1413h-185z" />
    <glyph glyph-name="uni0237" unicode="&#x237;" horiz-adv-x="509" 
d="M68 -430q-83 0 -166 31l45 147q63 -24 104 -24q61 0 90 36t29 113v1126h172v-1114q0 -144 -69 -229.5t-205 -85.5z" />
    <glyph glyph-name="uni0250" unicode="&#x250;" horiz-adv-x="1060" 
d="M549 131q170 0 270 156l131 -94q-77 -104 -172.5 -156.5t-228.5 -52.5q-194 0 -302 109t-108 298v608h142l12 -176q52 93 145 143t199 50q157 0 254.5 -83t97.5 -228q0 -287 -411 -287h-283q0 -151 58 -219t196 -68zM604 872q-122 0 -203.5 -74t-105.5 -192v-65h272
q122 0 185 45t63 123q0 75 -55 119t-156 44z" />
    <glyph glyph-name="uni0254" unicode="&#x254;" horiz-adv-x="1011" 
d="M467 -16q-142 0 -247.5 74.5t-151.5 207.5l153 58q27 -86 92.5 -136.5t155.5 -50.5q59 0 107 19.5t81 53.5t55.5 80t33 98t10.5 110q0 97 -29 177t-96 133.5t-162 53.5q-89 0 -154.5 -51t-93.5 -139l-162 63q53 138 160 209.5t250 71.5q90 0 166 -28.5t129.5 -78t91 -116
t55 -141t17.5 -154.5q0 -104 -30.5 -196.5t-87.5 -163.5t-145.5 -112.5t-197.5 -41.5z" />
    <glyph glyph-name="uni0258" unicode="&#x258;" horiz-adv-x="1073" 
d="M510 -16q-123 0 -216.5 40.5t-178.5 129.5l118 104q60 -66 124.5 -93.5t150.5 -27.5q137 0 214.5 82.5t86.5 229.5h-719q-8 32 -8 92q0 66 13.5 129.5t46.5 127t82 111t127 77.5t175 30q111 0 200.5 -42.5t146 -115t86.5 -165.5t30 -197q0 -143 -53 -257.5t-163.5 -184.5
t-262.5 -70zM809 573q-14 136 -87 217.5t-196 81.5q-119 0 -189 -67.5t-83 -167.5q-4 -20 -4 -64h559z" />
    <glyph glyph-name="uni0259" unicode="&#x259;" horiz-adv-x="1073" 
d="M510 1016q152 0 262.5 -70t163.5 -184.5t53 -257.5q0 -104 -30 -197t-86.5 -165.5t-146 -115t-200.5 -42.5q-97 0 -175 30t-127 77.5t-82 111t-46.5 127t-13.5 129.5q0 60 8 92h719q-9 147 -86.5 229t-214.5 82q-86 0 -150.5 -27.5t-124.5 -93.5l-118 105
q85 89 178.5 129.5t216.5 40.5zM809 426h-559q0 -44 4 -64q13 -100 83 -167.5t189 -67.5q123 0 196 81.5t87 217.5z" />
    <glyph glyph-name="uni0261" unicode="&#x261;" horiz-adv-x="1189" 
d="M543 -430q-152 0 -260.5 64t-173.5 176l129 94q39 -82 119.5 -134.5t187.5 -52.5q136 0 221.5 89.5t85.5 252.5v136q-49 -94 -137 -146.5t-195 -52.5q-133 0 -234.5 71t-153.5 186.5t-52 254.5q0 137 52 252t153 185.5t233 70.5q106 0 195.5 -51.5t138.5 -145.5v180h170
v-940q0 -226 -131.5 -357.5t-347.5 -131.5zM559 154q142 0 223.5 99.5t81.5 254.5q0 153 -81.5 253.5t-223.5 100.5t-224.5 -101t-82.5 -253q0 -154 82.5 -254t224.5 -100z" />
    <glyph glyph-name="uni0272" unicode="&#x272;" horiz-adv-x="1138" 
d="M55 -430q-74 0 -151 29l39 127q60 -17 108 -17q65 0 93 38t28 116v1136h168v-151q49 82 131 125t176 43q88 0 156 -31t109.5 -86t62.5 -124.5t22 -151.5v-625h-168v594q0 126 -58.5 197t-170.5 71q-121 0 -190.5 -73.5t-69.5 -211.5v-694q0 -142 -72.5 -226.5
t-212.5 -84.5z" />
    <glyph glyph-name="circumflex" unicode="&#x2c6;" horiz-adv-x="694" 
d="M41 1108l305 330l307 -330h-137l-170 182l-170 -182h-135z" />
    <glyph glyph-name="caron" unicode="&#x2c7;" horiz-adv-x="698" 
d="M350 1098l-307 315h137l170 -176l170 176h137z" />
    <glyph glyph-name="uni02D0" unicode="&#x2d0;" horiz-adv-x="573" 
d="M295 569l-244 430l463 17zM59 -16l220 446l243 -430z" />
    <glyph glyph-name="uni02D1" unicode="&#x2d1;" horiz-adv-x="583" 
d="M301 233l-244 431l461 16z" />
    <glyph glyph-name="breve" unicode="&#x2d8;" horiz-adv-x="841" 
d="M422 1147q-309 0 -309 266h120q0 -81 50.5 -122.5t138.5 -41.5t137 42t49 122h121q0 -266 -307 -266z" />
    <glyph glyph-name="dotaccent" unicode="&#x2d9;" horiz-adv-x="503" 
d="M164 1202v211h176v-211h-176z" />
    <glyph glyph-name="ring" unicode="&#x2da;" horiz-adv-x="636" 
d="M317 1085q-86 0 -145 61t-59 146q0 86 59.5 146.5t144.5 60.5t146 -60.5t61 -146.5q0 -87 -60 -147t-147 -60zM317 1180q49 0 81 32t32 82q0 47 -31.5 79t-81.5 32q-47 0 -78.5 -32.5t-31.5 -78.5q0 -49 32 -81.5t78 -32.5z" />
    <glyph glyph-name="ogonek" unicode="&#x2db;" horiz-adv-x="602" 
d="M319 -455q-96 0 -154.5 53t-58.5 142q0 54 24 103.5t59.5 81.5t68.5 52t57 25l134 -2q-33 -10 -71 -30t-77.5 -49.5t-65.5 -71.5t-26 -87q0 -110 106 -110q81 0 134 74l88 -60q-83 -121 -218 -121z" />
    <glyph glyph-name="tilde" unicode="&#x2dc;" horiz-adv-x="899" 
d="M584 1147q-45 0 -81 17.5t-58.5 42t-41.5 49t-42 42t-50 17.5q-41 0 -65.5 -41t-24.5 -113h-98q0 124 51.5 192t142.5 68q42 0 75.5 -17t56 -41.5t43 -49t44 -41.5t50.5 -17q37 0 60.5 43t23.5 115h104q0 -124 -51 -195t-139 -71z" />
    <glyph glyph-name="hungarumlaut" unicode="&#x2dd;" horiz-adv-x="870" 
d="M61 1100l222 313h153l-248 -313h-127zM420 1100l219 313h182l-274 -313h-127z" />
    <glyph glyph-name="uni02F5" unicode="&#x2f5;" horiz-adv-x="1107" 
d="M410 688l-279 311h182l224 -311h-127zM838 688l-283 311h182l228 -311h-127z" />
    <glyph glyph-name="uni02F6" unicode="&#x2f6;" horiz-adv-x="1107" 
d="M270 688h-127l228 311h182zM698 688h-127l224 311h182z" />
    <glyph glyph-name="gravecomb" unicode="&#x300;" 
d="M-186 1112l-275 301h180l222 -301h-127z" />
    <glyph glyph-name="acutecomb" unicode="&#x301;" 
d="M-455 1126l222 287h182l-277 -287h-127z" />
    <glyph glyph-name="uni0302" unicode="&#x302;" 
d="M-653 1108l305 330l307 -330h-137l-170 182l-170 -182h-135z" />
    <glyph glyph-name="tildecomb" unicode="&#x303;" 
d="M-315 1147q-45 0 -81 17.5t-58.5 42t-41.5 49t-42 42t-50 17.5q-41 0 -65.5 -41t-24.5 -113h-98q0 124 51.5 192t142.5 68q42 0 75.5 -17t56 -41.5t43 -49t44 -41.5t50.5 -17q37 0 60.5 43t23.5 115h104q0 -124 -51 -195t-139 -71z" />
    <glyph glyph-name="uni0304" unicode="&#x304;" 
d="M-711 1196v102h551v-102h-551z" />
    <glyph glyph-name="uni0306" unicode="&#x306;" 
d="M-420 1147q-309 0 -309 266h121q0 -81 50.5 -122.5t137.5 -41.5q88 0 137.5 42t49.5 122h120q0 -266 -307 -266z" />
    <glyph glyph-name="uni0307" unicode="&#x307;" 
d="M-340 1202v211h176v-211h-176z" />
    <glyph glyph-name="uni0308" unicode="&#x308;" 
d="M-680 1202v211h143v-211h-143zM-307 1202v211h143v-211h-143z" />
    <glyph glyph-name="hookabovecomb" unicode="&#x309;" 
d="M-342 1137v120q113 24 113 103q0 34 -22.5 55t-59.5 21q-47 0 -84 -37l-56 84q69 51 158 51q85 0 134.5 -45t49.5 -119q0 -119 -124 -153v-80h-109z" />
    <glyph glyph-name="uni030A" unicode="&#x30a;" 
d="M-319 1085q-86 0 -145.5 61t-59.5 146q0 86 60 146.5t145 60.5t145.5 -60.5t60.5 -146.5q0 -87 -59.5 -147t-146.5 -60zM-319 1180q49 0 80.5 32t31.5 82q0 47 -31 79t-81 32q-47 0 -79 -32.5t-32 -78.5q0 -49 32.5 -81.5t78.5 -32.5z" />
    <glyph glyph-name="uni030B" unicode="&#x30b;" 
d="M-809 1100l221 313h154l-248 -313h-127zM-451 1100l220 313h182l-275 -313h-127z" />
    <glyph glyph-name="uni030C" unicode="&#x30c;" 
d="M-348 1098l-307 315h137l170 -176l170 176h137z" />
    <glyph glyph-name="uni030F" unicode="&#x30f;" 
d="M-547 1100l-274 313h180l221 -313h-127zM-188 1100l-248 313h153l222 -313h-127z" />
    <glyph glyph-name="uni0312" unicode="&#x312;" 
d="M-434 1122l241 305h105l-168 -305h-178z" />
    <glyph glyph-name="uni031B" unicode="&#x31b;" 
d="M-412 741v113q85 0 122.5 52.5t37.5 137.5v105h129v-92q0 -145 -71.5 -230.5t-217.5 -85.5z" />
    <glyph glyph-name="dotbelowcomb" unicode="&#x323;" 
d="M-340 -414v211h176v-211h-176z" />
    <glyph glyph-name="uni0326" unicode="&#x326;" 
d="M-399 -451l166 340h178l-242 -340h-102z" />
    <glyph glyph-name="uni0327" unicode="&#x327;" 
d="M-309 -518q-72 0 -127.5 38t-73.5 111l96 39q11 -37 41 -62.5t68 -25.5q51 0 79.5 27.5t28.5 73.5q0 53 -46.5 86.5t-129.5 37.5h-82l115 191h104l-79 -121q25 0 61 -8q78 -19 119 -65t41 -115q0 -91 -60 -149t-155 -58z" />
    <glyph glyph-name="uni0328" unicode="&#x328;" 
d="M-283 -455q-96 0 -154.5 53t-58.5 142q0 54 24 103.5t59.5 81.5t68.5 52t57 25l133 -2q-33 -10 -71 -30t-77 -49.5t-65 -71.5t-26 -87q0 -110 106 -110q80 0 133 74l88 -60q-83 -121 -217 -121z" />
    <glyph glyph-name="uni0335" unicode="&#x335;" 
d="M-793 530v115h635v-115h-635z" />
    <glyph glyph-name="uni0336" unicode="&#x336;" 
d="M-1460 518v103h1300v-103h-1300z" />
    <glyph glyph-name="uni0337" unicode="&#x337;" 
d="M-643 279v190l604 684v-188z" />
    <glyph glyph-name="uni0338" unicode="&#x338;" 
d="M-993 0l870 1413h129l-870 -1413h-129z" />
    <glyph glyph-name="tonos" unicode="&#x384;" horiz-adv-x="442" 
d="M131 1126l66 287h139l-119 -287h-86z" />
    <glyph glyph-name="dieresistonos" unicode="&#x385;" horiz-adv-x="673" 
d="M279 1540l63 287h141l-121 -287h-83zM68 1202v211h143v-211h-143zM440 1202v211h144v-211h-144z" />
    <glyph glyph-name="uni03BC" unicode="&#x3bc;" horiz-adv-x="1292" 
d="M252 -342v1341h168v-591q0 -125 59.5 -197t171.5 -72q121 0 190.5 73.5t69.5 211.5v575h168v-999h-168v152q-49 -82 -131 -125t-176 -43q-147 0 -213 94v-420h-139z" />
    <glyph glyph-name="pi" unicode="&#x3c0;" horiz-adv-x="1050" 
d="M883 -16q-112 0 -171 100t-59 289v483h-321v-856h-144v856h-98v143h807v-143h-100v-463q0 -282 96 -282q34 0 61 14l45 -113q-52 -28 -116 -28z" />
    <glyph glyph-name="uni0483" unicode="&#x483;" 
d="M-973 1565v305h666v139h174v-299h-670v-145h-170z" />
    <glyph glyph-name="Wgrave" unicode="&#x1e80;" horiz-adv-x="1986" 
d="M948 1516l-274 301h180l221 -301h-127zM473 0l-412 1413h183l329 -1159l351 1081h139l350 -1081l330 1159h184l-414 -1413h-174l-346 1057l-344 -1057h-176z" />
    <glyph glyph-name="wgrave" unicode="&#x1e81;" horiz-adv-x="1478" 
d="M694 1112l-274 301h180l221 -301h-127zM336 0l-297 999h182l203 -743l242 743h149l242 -741l203 741h182l-299 -999h-156l-248 764l-247 -764h-156z" />
    <glyph glyph-name="Wacute" unicode="&#x1e82;" horiz-adv-x="1986" 
d="M913 1530l222 287h182l-277 -287h-127zM473 0l-412 1413h183l329 -1159l351 1081h139l350 -1081l330 1159h184l-414 -1413h-174l-346 1057l-344 -1057h-176z" />
    <glyph glyph-name="wacute" unicode="&#x1e83;" horiz-adv-x="1478" 
d="M657 1126l222 287h182l-277 -287h-127zM336 0l-297 999h182l203 -743l242 743h149l242 -741l203 741h182l-299 -999h-156l-248 764l-247 -764h-156z" />
    <glyph glyph-name="Wdieresis" unicode="&#x1e84;" horiz-adv-x="1986" 
d="M737 1606v211h144v-211h-144zM1110 1606v211h143v-211h-143zM473 0l-412 1413h183l329 -1159l351 1081h139l350 -1081l330 1159h184l-414 -1413h-174l-346 1057l-344 -1057h-176z" />
    <glyph glyph-name="wdieresis" unicode="&#x1e85;" horiz-adv-x="1478" 
d="M483 1202v211h144v-211h-144zM856 1202v211h143v-211h-143zM336 0l-297 999h182l203 -743l242 743h149l242 -741l203 741h182l-299 -999h-156l-248 764l-247 -764h-156z" />
    <glyph glyph-name="uni1E9E" unicode="&#x1e9e;" horiz-adv-x="1148" 
d="M696 -16q-97 0 -215 41l49 145q94 -43 168 -43q88 0 139.5 52.5t51.5 144.5q0 20 -3 39t-6 33.5t-12.5 31.5t-14 26.5t-19 25.5t-19 21.5t-23.5 21t-22.5 18.5t-25 19.5t-23.5 17.5q-60 46 -91.5 89.5t-31.5 106.5l215 400q-27 45 -80 79.5t-127 34.5q-52 0 -94 -21
t-69.5 -58.5t-47 -83.5t-29.5 -102.5t-14 -108t-4 -107.5v-807h-168v807q0 302 108.5 463.5t309.5 161.5q146 0 250.5 -78t128.5 -176l-221 -404q0 -17 14.5 -36t30.5 -32.5t50 -39.5q11 -9 17 -13q40 -30 66.5 -54.5t58 -64.5t48 -92t16.5 -114q0 -154 -98.5 -249
t-262.5 -95z" />
    <glyph glyph-name="uni1EA0" unicode="&#x1ea0;" horiz-adv-x="1314" 
d="M49 0l539 1413h141l537 -1413h-191l-119 330h-594l-120 -330h-193zM418 481h483l-242 680zM567 -414v211h176v-211h-176z" />
    <glyph glyph-name="uni1EA1" unicode="&#x1ea1;" horiz-adv-x="1060" 
d="M512 1016q193 0 301.5 -109.5t108.5 -298.5v-608h-142l-12 176q-52 -93 -145 -142.5t-199 -49.5q-157 0 -254.5 83t-97.5 228q0 287 411 287h283q0 151 -57.5 218.5t-196.5 67.5q-171 0 -270 -155l-131 94q77 104 172.5 156.5t228.5 52.5zM457 127q122 0 203.5 74
t105.5 192v66h-272q-122 0 -185 -45t-63 -123q0 -75 55 -119.5t156 -44.5zM420 -414v211h176v-211h-176z" />
    <glyph glyph-name="uni1EA2" unicode="&#x1ea2;" horiz-adv-x="1314" 
d="M602 1501v121q113 24 113 102q0 34 -22.5 55t-59.5 21q-47 0 -84 -37l-55 84q69 51 157 51q86 0 135.5 -44.5t49.5 -118.5q0 -120 -125 -154v-80h-109zM49 0l539 1413h141l537 -1413h-191l-119 330h-594l-120 -330h-193zM418 481h483l-242 680z" />
    <glyph glyph-name="uni1EA3" unicode="&#x1ea3;" horiz-adv-x="1060" 
d="M483 1386q-48 0 -84 -36l-55 84q69 51 158 51q85 0 134.5 -45t49.5 -119q0 -120 -125 -154v-80h-108v121q112 24 112 103q0 34 -22.5 54.5t-59.5 20.5zM512 1016q193 0 301.5 -109.5t108.5 -298.5v-608h-142l-12 176q-52 -93 -145 -142.5t-199 -49.5q-157 0 -254.5 83
t-97.5 228q0 287 411 287h283q0 151 -57.5 218.5t-196.5 67.5q-171 0 -270 -155l-131 94q77 104 172.5 156.5t228.5 52.5zM457 127q122 0 203.5 74t105.5 192v66h-272q-122 0 -185 -45t-63 -123q0 -75 55 -119.5t156 -44.5z" />
    <glyph glyph-name="uni1EA4" unicode="&#x1ea4;" horiz-adv-x="1314" 
d="M573 1952l222 286h182l-277 -286h-127zM350 1522l305 329l308 -329h-138l-170 182l-170 -182h-135zM49 0l539 1413h141l537 -1413h-191l-119 330h-594l-120 -330h-193zM418 481h483l-242 680z" />
    <glyph glyph-name="uni1EA5" unicode="&#x1ea5;" horiz-adv-x="1060" 
d="M827 1825l-276 -287h-127l221 287h182zM506 1290l-170 -182h-135l305 330l307 -330h-137zM512 1016q193 0 301.5 -109.5t108.5 -298.5v-608h-142l-12 176q-52 -93 -145 -142.5t-199 -49.5q-157 0 -254.5 83t-97.5 228q0 287 411 287h283q0 151 -57.5 218.5t-196.5 67.5
q-171 0 -270 -155l-131 94q77 104 172.5 156.5t228.5 52.5zM457 127q122 0 203.5 74t105.5 192v66h-272q-122 0 -185 -45t-63 -123q0 -75 55 -119.5t156 -44.5z" />
    <glyph glyph-name="uni1EA6" unicode="&#x1ea6;" horiz-adv-x="1314" 
d="M608 1937l-274 301h180l221 -301h-127zM350 1522l305 329l308 -329h-138l-170 182l-170 -182h-135zM49 0l539 1413h141l537 -1413h-191l-119 330h-594l-120 -330h-193zM418 481h483l-242 680z" />
    <glyph glyph-name="uni1EA7" unicode="&#x1ea7;" horiz-adv-x="1060" 
d="M588 1524h-127l-275 301h181zM201 1108l305 330l307 -330h-137l-170 182l-170 -182h-135zM512 1016q193 0 301.5 -109.5t108.5 -298.5v-608h-142l-12 176q-52 -93 -145 -142.5t-199 -49.5q-157 0 -254.5 83t-97.5 228q0 287 411 287h283q0 151 -57.5 218.5t-196.5 67.5
q-171 0 -270 -155l-131 94q77 104 172.5 156.5t228.5 52.5zM457 127q122 0 203.5 74t105.5 192v66h-272q-122 0 -185 -45t-63 -123q0 -75 55 -119.5t156 -44.5z" />
    <glyph glyph-name="uni1EA8" unicode="&#x1ea8;" horiz-adv-x="1314" 
d="M600 1915v121q113 21 113 102q0 33 -22 54.5t-58 21.5q-44 0 -84 -37l-55 82q61 51 157 51q85 0 135 -45t50 -119q0 -115 -125 -153v-78h-111zM348 1522l307 329l308 -329h-138l-170 182l-170 -182h-137zM49 0l539 1413h141l537 -1413h-191l-119 330h-594l-120 -330h-193
zM418 481h483l-242 680z" />
    <glyph glyph-name="uni1EA9" unicode="&#x1ea9;" horiz-adv-x="1060" 
d="M485 1800q-44 0 -84 -37l-55 82q61 51 158 51q85 0 134.5 -44.5t49.5 -118.5q0 -116 -125 -154v-78h-110v121q112 21 112 102q0 33 -22 54.5t-58 21.5zM508 1290l-170 -182h-137l307 330l307 -330h-137zM512 1016q193 0 301.5 -109.5t108.5 -298.5v-608h-142l-12 176
q-52 -93 -145 -142.5t-199 -49.5q-157 0 -254.5 83t-97.5 228q0 287 411 287h283q0 151 -57.5 218.5t-196.5 67.5q-171 0 -270 -155l-131 94q77 104 172.5 156.5t228.5 52.5zM457 127q122 0 203.5 74t105.5 192v66h-272q-122 0 -185 -45t-63 -123q0 -75 55 -119.5t156 -44.5
z" />
    <glyph glyph-name="uni1EAA" unicode="&#x1eaa;" horiz-adv-x="1314" 
d="M793 1960q-45 0 -81 17.5t-58.5 42t-41.5 49t-42 42t-50 17.5q-41 0 -65.5 -41t-24.5 -113h-98q0 124 51.5 192t142.5 68q42 0 75.5 -17t56 -41.5t43 -49t44 -41.5t50.5 -17q37 0 60.5 43t23.5 115h104q0 -124 -51 -195t-139 -71zM350 1522l305 329l308 -329h-138
l-170 182l-170 -182h-135zM49 0l539 1413h141l537 -1413h-191l-119 330h-594l-120 -330h-193zM418 481h483l-242 680z" />
    <glyph glyph-name="uni1EAB" unicode="&#x1eab;" horiz-adv-x="1060" 
d="M371 1714q-42 0 -66 -40.5t-24 -112.5h-99q0 124 52 192t143 68q42 0 75.5 -17t56 -41.5t42.5 -49t43.5 -41.5t50.5 -17q37 0 60.5 42.5t23.5 114.5h105q0 -124 -51.5 -195t-139.5 -71q-45 0 -81 17.5t-58 42t-41.5 49t-42 42t-49.5 17.5zM201 1108l305 330l307 -330
h-137l-170 182l-170 -182h-135zM512 1016q193 0 301.5 -109.5t108.5 -298.5v-608h-142l-12 176q-52 -93 -145 -142.5t-199 -49.5q-157 0 -254.5 83t-97.5 228q0 287 411 287h283q0 151 -57.5 218.5t-196.5 67.5q-171 0 -270 -155l-131 94q77 104 172.5 156.5t228.5 52.5z
M457 127q122 0 203.5 74t105.5 192v66h-272q-122 0 -185 -45t-63 -123q0 -75 55 -119.5t156 -44.5z" />
    <glyph glyph-name="uni1EAC" unicode="&#x1eac;" horiz-adv-x="1314" 
d="M350 1522l305 329l308 -329h-138l-170 182l-170 -182h-135zM49 0l539 1413h141l537 -1413h-191l-119 330h-594l-120 -330h-193zM418 481h483l-242 680zM567 -414v211h176v-211h-176z" />
    <glyph glyph-name="uni1EAD" unicode="&#x1ead;" horiz-adv-x="1060" 
d="M506 1290l-170 -182h-135l305 330l307 -330h-137zM512 1016q193 0 301.5 -109.5t108.5 -298.5v-608h-142l-12 176q-52 -93 -145 -142.5t-199 -49.5q-157 0 -254.5 83t-97.5 228q0 287 411 287h283q0 151 -57.5 218.5t-196.5 67.5q-171 0 -270 -155l-131 94
q77 104 172.5 156.5t228.5 52.5zM457 127q122 0 203.5 74t105.5 192v66h-272q-122 0 -185 -45t-63 -123q0 -75 55 -119.5t156 -44.5zM420 -414v211h176v-211h-176z" />
    <glyph glyph-name="uni1EAE" unicode="&#x1eae;" horiz-adv-x="1314" 
d="M573 1954l222 287h182l-277 -287h-127zM657 1561q-309 0 -309 266h121q0 -81 50.5 -122.5t137.5 -41.5q88 0 137.5 42t49.5 122h121q0 -266 -308 -266zM49 0l539 1413h141l537 -1413h-191l-119 330h-594l-120 -330h-193zM418 481h483l-242 680z" />
    <glyph glyph-name="uni1EAF" unicode="&#x1eaf;" horiz-adv-x="1060" 
d="M827 1827l-276 -287h-127l221 287h182zM508 1147q-309 0 -309 266h120q0 -81 50.5 -122.5t138.5 -41.5t137 42t49 122h121q0 -266 -307 -266zM512 1016q193 0 301.5 -109.5t108.5 -298.5v-608h-142l-12 176q-52 -93 -145 -142.5t-199 -49.5q-157 0 -254.5 83t-97.5 228
q0 287 411 287h283q0 151 -57.5 218.5t-196.5 67.5q-171 0 -270 -155l-131 94q77 104 172.5 156.5t228.5 52.5zM457 127q122 0 203.5 74t105.5 192v66h-272q-122 0 -185 -45t-63 -123q0 -75 55 -119.5t156 -44.5z" />
    <glyph glyph-name="uni1EB0" unicode="&#x1eb0;" horiz-adv-x="1314" 
d="M608 1939l-274 302h180l221 -302h-127zM657 1561q-309 0 -309 266h121q0 -81 50.5 -122.5t137.5 -41.5q88 0 137.5 42t49.5 122h121q0 -266 -308 -266zM49 0l539 1413h141l537 -1413h-191l-119 330h-594l-120 -330h-193zM418 481h483l-242 680z" />
    <glyph glyph-name="uni1EB1" unicode="&#x1eb1;" horiz-adv-x="1060" 
d="M588 1526h-127l-275 301h181zM319 1413q0 -81 50.5 -122.5t138.5 -41.5t137 42t49 122h121q0 -266 -307 -266q-309 0 -309 266h120zM512 1016q193 0 301.5 -109.5t108.5 -298.5v-608h-142l-12 176q-52 -93 -145 -142.5t-199 -49.5q-157 0 -254.5 83t-97.5 228
q0 287 411 287h283q0 151 -57.5 218.5t-196.5 67.5q-171 0 -270 -155l-131 94q77 104 172.5 156.5t228.5 52.5zM457 127q122 0 203.5 74t105.5 192v66h-272q-122 0 -185 -45t-63 -123q0 -75 55 -119.5t156 -44.5z" />
    <glyph glyph-name="uni1EB2" unicode="&#x1eb2;" horiz-adv-x="1314" 
d="M600 1915v121q113 24 113 102q0 34 -22 55t-58 21q-47 0 -84 -37l-55 84q65 51 157 51q85 0 135 -45t50 -119q0 -119 -125 -153v-80h-111zM655 1561q-307 0 -307 266h121q0 -81 49.5 -122.5t136.5 -41.5q89 0 138 41.5t49 122.5h123q0 -266 -310 -266zM49 0l539 1413h141
l537 -1413h-191l-119 330h-594l-120 -330h-193zM418 481h483l-242 680z" />
    <glyph glyph-name="uni1EB3" unicode="&#x1eb3;" horiz-adv-x="1060" 
d="M485 1800q-47 0 -84 -37l-55 84q65 51 158 51q85 0 134.5 -44.5t49.5 -118.5q0 -120 -125 -154v-80h-110v121q112 24 112 102q0 34 -22 55t-58 21zM508 1147q-307 0 -307 266h121q0 -81 49.5 -122.5t136.5 -41.5q89 0 137.5 41.5t48.5 122.5h123q0 -266 -309 -266z
M512 1016q193 0 301.5 -109.5t108.5 -298.5v-608h-142l-12 176q-52 -93 -145 -142.5t-199 -49.5q-157 0 -254.5 83t-97.5 228q0 287 411 287h283q0 151 -57.5 218.5t-196.5 67.5q-171 0 -270 -155l-131 94q77 104 172.5 156.5t228.5 52.5zM457 127q122 0 203.5 74t105.5 192
v66h-272q-122 0 -185 -45t-63 -123q0 -75 55 -119.5t156 -44.5z" />
    <glyph glyph-name="uni1EB4" unicode="&#x1eb4;" horiz-adv-x="1314" 
d="M793 1960q-45 0 -81 17.5t-58.5 42t-41.5 49t-42 42t-50 17.5q-41 0 -65.5 -41t-24.5 -113h-98q0 124 51.5 192t142.5 68q42 0 75.5 -17t56 -41.5t43 -49t44 -41.5t50.5 -17q37 0 60.5 43t23.5 115h104q0 -124 -51 -195t-139 -71zM657 1561q-309 0 -309 266h121
q0 -81 50.5 -122.5t137.5 -41.5q88 0 137.5 42t49.5 122h121q0 -266 -308 -266zM49 0l539 1413h141l537 -1413h-191l-119 330h-594l-120 -330h-193zM418 481h483l-242 680z" />
    <glyph glyph-name="uni1EB5" unicode="&#x1eb5;" horiz-adv-x="1060" 
d="M371 1714q-42 0 -66 -40.5t-24 -112.5h-99q0 124 52 192t143 68q42 0 75.5 -17t56 -41.5t42.5 -49t43.5 -41.5t50.5 -17q37 0 60.5 42.5t23.5 114.5h105q0 -124 -51.5 -195t-139.5 -71q-45 0 -81 17.5t-58 42t-41.5 49t-42 42t-49.5 17.5zM508 1249q88 0 137 42t49 122
h121q0 -266 -307 -266q-309 0 -309 266h120q0 -81 50.5 -122.5t138.5 -41.5zM512 1016q193 0 301.5 -109.5t108.5 -298.5v-608h-142l-12 176q-52 -93 -145 -142.5t-199 -49.5q-157 0 -254.5 83t-97.5 228q0 287 411 287h283q0 151 -57.5 218.5t-196.5 67.5q-171 0 -270 -155
l-131 94q77 104 172.5 156.5t228.5 52.5zM457 127q122 0 203.5 74t105.5 192v66h-272q-122 0 -185 -45t-63 -123q0 -75 55 -119.5t156 -44.5z" />
    <glyph glyph-name="uni1EB6" unicode="&#x1eb6;" horiz-adv-x="1314" 
d="M657 1561q-309 0 -309 266h121q0 -81 50.5 -122.5t137.5 -41.5q88 0 137.5 42t49.5 122h121q0 -266 -308 -266zM49 0l539 1413h141l537 -1413h-191l-119 330h-594l-120 -330h-193zM418 481h483l-242 680zM567 -414v211h176v-211h-176z" />
    <glyph glyph-name="uni1EB7" unicode="&#x1eb7;" horiz-adv-x="1060" 
d="M508 1147q-309 0 -309 266h120q0 -81 50.5 -122.5t138.5 -41.5t137 42t49 122h121q0 -266 -307 -266zM512 1016q193 0 301.5 -109.5t108.5 -298.5v-608h-142l-12 176q-52 -93 -145 -142.5t-199 -49.5q-157 0 -254.5 83t-97.5 228q0 287 411 287h283q0 151 -57.5 218.5
t-196.5 67.5q-171 0 -270 -155l-131 94q77 104 172.5 156.5t228.5 52.5zM457 127q122 0 203.5 74t105.5 192v66h-272q-122 0 -185 -45t-63 -123q0 -75 55 -119.5t156 -44.5zM420 -414v211h176v-211h-176z" />
    <glyph glyph-name="uni1EB8" unicode="&#x1eb8;" horiz-adv-x="1263" 
d="M211 0v1413h928v-162h-752v-460h684v-164h-684v-461h752v-166h-928zM588 -414v211h176v-211h-176z" />
    <glyph glyph-name="uni1EB9" unicode="&#x1eb9;" horiz-adv-x="1073" 
d="M563 -16q-152 0 -262.5 70t-163.5 184.5t-53 257.5q0 104 30 197t86.5 165.5t146 115t200.5 42.5q97 0 175 -30t127 -77.5t82 -111t46.5 -127t13.5 -129.5q0 -60 -8 -92h-719q9 -147 86.5 -229.5t214.5 -82.5q86 0 150.5 27.5t124.5 93.5l118 -104q-85 -89 -178.5 -129.5
t-216.5 -40.5zM264 573h559q0 44 -4 64q-13 100 -83 167.5t-189 67.5q-123 0 -196 -81.5t-87 -217.5zM444 -414v211h177v-211h-177z" />
    <glyph glyph-name="uni1EBA" unicode="&#x1eba;" horiz-adv-x="1263" 
d="M621 1501v121q112 24 112 102q0 34 -22.5 55t-59.5 21q-47 0 -84 -37l-55 84q69 51 158 51q85 0 134.5 -44.5t49.5 -118.5q0 -120 -125 -154v-80h-108zM211 0v1413h928v-162h-752v-460h684v-164h-684v-461h752v-166h-928z" />
    <glyph glyph-name="uni1EBB" unicode="&#x1ebb;" horiz-adv-x="1073" 
d="M477 1087v121q113 24 113 103q0 34 -22.5 54.5t-59.5 20.5q-48 0 -84 -36l-55 84q69 51 157 51q85 0 135 -45t50 -119q0 -120 -125 -154v-80h-109zM563 -16q-152 0 -262.5 70t-163.5 184.5t-53 257.5q0 104 30 197t86.5 165.5t146 115t200.5 42.5q97 0 175 -30t127 -77.5
t82 -111t46.5 -127t13.5 -129.5q0 -60 -8 -92h-719q9 -147 86.5 -229.5t214.5 -82.5q86 0 150.5 27.5t124.5 93.5l118 -104q-85 -89 -178.5 -129.5t-216.5 -40.5zM264 573h559q0 44 -4 64q-13 100 -83 167.5t-189 67.5q-123 0 -196 -81.5t-87 -217.5z" />
    <glyph glyph-name="uni1EBC" unicode="&#x1ebc;" horiz-adv-x="1263" 
d="M811 1546q-45 0 -81 17.5t-58 42t-41.5 49t-42 42t-49.5 17.5q-42 0 -66 -40.5t-24 -112.5h-99q0 124 52 192t143 68q42 0 75.5 -17t56 -41.5t42.5 -49t43.5 -41.5t50.5 -17q37 0 60.5 42.5t23.5 114.5h104q0 -124 -51 -195t-139 -71zM211 0v1413h928v-162h-752v-460h684
v-164h-684v-461h752v-166h-928z" />
    <glyph glyph-name="uni1EBD" unicode="&#x1ebd;" horiz-adv-x="1073" 
d="M668 1133q-45 0 -81 17t-58.5 41.5t-41.5 49.5t-42 42t-50 17q-42 0 -66 -40.5t-24 -112.5h-98q0 124 51.5 192t142.5 68q42 0 75.5 -17t56 -41.5t43 -49t44 -41.5t50.5 -17q37 0 60.5 43t23.5 115h104q0 -124 -51 -195t-139 -71zM563 -16q-152 0 -262.5 70t-163.5 184.5
t-53 257.5q0 104 30 197t86.5 165.5t146 115t200.5 42.5q97 0 175 -30t127 -77.5t82 -111t46.5 -127t13.5 -129.5q0 -60 -8 -92h-719q9 -147 86.5 -229.5t214.5 -82.5q86 0 150.5 27.5t124.5 93.5l118 -104q-85 -89 -178.5 -129.5t-216.5 -40.5zM264 573h559q0 44 -4 64
q-13 100 -83 167.5t-189 67.5q-123 0 -196 -81.5t-87 -217.5z" />
    <glyph glyph-name="uni1EBE" unicode="&#x1ebe;" horiz-adv-x="1263" 
d="M592 1952l221 286h182l-276 -286h-127zM369 1522l305 329l307 -329h-137l-170 182l-170 -182h-135zM211 0v1413h928v-162h-752v-460h684v-164h-684v-461h752v-166h-928z" />
    <glyph glyph-name="uni1EBF" unicode="&#x1ebf;" horiz-adv-x="1073" 
d="M449 1538l221 287h182l-277 -287h-126zM225 1108l305 330l308 -330h-138l-170 182l-170 -182h-135zM563 -16q-152 0 -262.5 70t-163.5 184.5t-53 257.5q0 104 30 197t86.5 165.5t146 115t200.5 42.5q97 0 175 -30t127 -77.5t82 -111t46.5 -127t13.5 -129.5q0 -60 -8 -92
h-719q9 -147 86.5 -229.5t214.5 -82.5q86 0 150.5 27.5t124.5 93.5l118 -104q-85 -89 -178.5 -129.5t-216.5 -40.5zM264 573h559q0 44 -4 64q-13 100 -83 167.5t-189 67.5q-123 0 -196 -81.5t-87 -217.5z" />
    <glyph glyph-name="uni1EC0" unicode="&#x1ec0;" horiz-adv-x="1263" 
d="M629 1937l-275 301h181l221 -301h-127zM369 1522l305 329l307 -329h-137l-170 182l-170 -182h-135zM211 0v1413h928v-162h-752v-460h684v-164h-684v-461h752v-166h-928z" />
    <glyph glyph-name="uni1EC1" unicode="&#x1ec1;" horiz-adv-x="1073" 
d="M485 1524l-274 301h180l221 -301h-127zM225 1108l305 330l308 -330h-138l-170 182l-170 -182h-135zM563 -16q-152 0 -262.5 70t-163.5 184.5t-53 257.5q0 104 30 197t86.5 165.5t146 115t200.5 42.5q97 0 175 -30t127 -77.5t82 -111t46.5 -127t13.5 -129.5q0 -60 -8 -92
h-719q9 -147 86.5 -229.5t214.5 -82.5q86 0 150.5 27.5t124.5 93.5l118 -104q-85 -89 -178.5 -129.5t-216.5 -40.5zM264 573h559q0 44 -4 64q-13 100 -83 167.5t-189 67.5q-123 0 -196 -81.5t-87 -217.5z" />
    <glyph glyph-name="uni1EC2" unicode="&#x1ec2;" horiz-adv-x="1263" 
d="M621 1915v121q112 21 112 102q0 33 -22 54.5t-58 21.5q-44 0 -84 -37l-55 82q61 51 158 51q85 0 134.5 -45t49.5 -119q0 -115 -125 -153v-78h-110zM369 1522l307 329l307 -329h-137l-170 182l-170 -182h-137zM211 0v1413h928v-162h-752v-460h684v-164h-684v-461h752v-166
h-928z" />
    <glyph glyph-name="uni1EC3" unicode="&#x1ec3;" horiz-adv-x="1073" 
d="M477 1501v121q113 21 113 102q0 33 -22 54.5t-58 21.5q-44 0 -84 -37l-55 82q61 51 157 51q86 0 135.5 -44.5t49.5 -118.5q0 -116 -125 -154v-78h-111zM225 1108l307 330l308 -330h-138l-170 182l-170 -182h-137zM563 -16q-152 0 -262.5 70t-163.5 184.5t-53 257.5
q0 104 30 197t86.5 165.5t146 115t200.5 42.5q97 0 175 -30t127 -77.5t82 -111t46.5 -127t13.5 -129.5q0 -60 -8 -92h-719q9 -147 86.5 -229.5t214.5 -82.5q86 0 150.5 27.5t124.5 93.5l118 -104q-85 -89 -178.5 -129.5t-216.5 -40.5zM264 573h559q0 44 -4 64
q-13 100 -83 167.5t-189 67.5q-123 0 -196 -81.5t-87 -217.5z" />
    <glyph glyph-name="uni1EC4" unicode="&#x1ec4;" horiz-adv-x="1263" 
d="M811 1960q-45 0 -81 17.5t-58 42t-41.5 49t-42 42t-49.5 17.5q-41 0 -65.5 -41t-24.5 -113h-99q0 124 52 192t143 68q42 0 75.5 -17t56 -41.5t42.5 -49t43.5 -41.5t50.5 -17q37 0 60.5 43t23.5 115h104q0 -124 -51 -195t-139 -71zM369 1522l305 329l307 -329h-137
l-170 182l-170 -182h-135zM211 0v1413h928v-162h-752v-460h684v-164h-684v-461h752v-166h-928z" />
    <glyph glyph-name="uni1EC5" unicode="&#x1ec5;" horiz-adv-x="1073" 
d="M668 1546q-45 0 -81 17.5t-58.5 42t-41.5 49t-42 42t-50 17.5q-42 0 -66 -40.5t-24 -112.5h-98q0 124 51.5 192t142.5 68q42 0 75.5 -17t56 -41.5t43 -49t44 -41.5t50.5 -17q37 0 60.5 42.5t23.5 114.5h104q0 -124 -51 -195t-139 -71zM225 1108l305 330l308 -330h-138
l-170 182l-170 -182h-135zM563 -16q-152 0 -262.5 70t-163.5 184.5t-53 257.5q0 104 30 197t86.5 165.5t146 115t200.5 42.5q97 0 175 -30t127 -77.5t82 -111t46.5 -127t13.5 -129.5q0 -60 -8 -92h-719q9 -147 86.5 -229.5t214.5 -82.5q86 0 150.5 27.5t124.5 93.5l118 -104
q-85 -89 -178.5 -129.5t-216.5 -40.5zM264 573h559q0 44 -4 64q-13 100 -83 167.5t-189 67.5q-123 0 -196 -81.5t-87 -217.5z" />
    <glyph glyph-name="uni1EC6" unicode="&#x1ec6;" horiz-adv-x="1263" 
d="M369 1522l305 329l307 -329h-137l-170 182l-170 -182h-135zM211 0v1413h928v-162h-752v-460h684v-164h-684v-461h752v-166h-928zM588 -414v211h176v-211h-176z" />
    <glyph glyph-name="uni1EC7" unicode="&#x1ec7;" horiz-adv-x="1073" 
d="M225 1108l305 330l308 -330h-138l-170 182l-170 -182h-135zM563 -16q-152 0 -262.5 70t-163.5 184.5t-53 257.5q0 104 30 197t86.5 165.5t146 115t200.5 42.5q97 0 175 -30t127 -77.5t82 -111t46.5 -127t13.5 -129.5q0 -60 -8 -92h-719q9 -147 86.5 -229.5t214.5 -82.5
q86 0 150.5 27.5t124.5 93.5l118 -104q-85 -89 -178.5 -129.5t-216.5 -40.5zM264 573h559q0 44 -4 64q-13 100 -83 167.5t-189 67.5q-123 0 -196 -81.5t-87 -217.5zM444 -414v211h177v-211h-177z" />
    <glyph glyph-name="uni1EC8" unicode="&#x1ec8;" horiz-adv-x="595" 
d="M244 1501v121q112 24 112 102q0 34 -22.5 55t-59.5 21q-47 0 -84 -37l-55 84q69 51 158 51q85 0 134.5 -44.5t49.5 -118.5q0 -120 -125 -154v-80h-108zM211 0v1413h176v-1413h-176z" />
    <glyph glyph-name="uni1EC9" unicode="&#x1ec9;" horiz-adv-x="505" 
d="M199 1087v121q112 24 112 103q0 34 -22.5 54.5t-59.5 20.5q-48 0 -84 -36l-55 84q69 51 158 51q85 0 134.5 -45t49.5 -119q0 -120 -125 -154v-80h-108zM168 0v999h170v-999h-170z" />
    <glyph glyph-name="uni1ECA" unicode="&#x1eca;" horiz-adv-x="595" 
d="M211 0v1413h176v-1413h-176zM209 -414v211h176v-211h-176z" />
    <glyph glyph-name="uni1ECB" unicode="&#x1ecb;" horiz-adv-x="503" 
d="M164 1202v211h178v-211h-178zM168 0v999h168v-999h-168zM166 -414v211h176v-211h-176z" />
    <glyph glyph-name="uni1ECC" unicode="&#x1ecc;" horiz-adv-x="1548" 
d="M774 -16q-164 0 -292.5 58.5t-207 159.5t-119 229t-40.5 276t40.5 276t119 229t207 159.5t292.5 58.5t292.5 -58.5t207.5 -159.5t119.5 -229.5t40.5 -275.5t-40.5 -275.5t-119.5 -229.5t-207.5 -159.5t-292.5 -58.5zM774 139q122 0 215 45.5t148 125t82.5 179.5t27.5 218
q0 94 -16.5 176.5t-53.5 154.5t-91 124t-134 82t-178 30t-178 -30t-134 -82t-91 -124t-53.5 -154.5t-16.5 -176.5q0 -118 27.5 -218t82.5 -179.5t148 -125t215 -45.5zM684 -414v211h176v-211h-176z" />
    <glyph glyph-name="uni1ECD" unicode="&#x1ecd;" horiz-adv-x="1144" 
d="M571 -16q-143 0 -256 69.5t-174 187.5t-61 261q0 142 61 259t174 186t256 69q216 0 355 -148.5t139 -365.5q0 -142 -61.5 -260t-175.5 -188t-257 -70zM571 131q150 0 234 106t84 265q0 158 -84 262t-234 104q-149 0 -232 -103.5t-83 -262.5t83.5 -265t231.5 -106z
M483 -414v211h176v-211h-176z" />
    <glyph glyph-name="uni1ECE" unicode="&#x1ece;" horiz-adv-x="1548" 
d="M719 1501v121q112 24 112 102q0 34 -22 55t-59 21q-47 0 -84 -37l-56 84q69 51 158 51q85 0 134.5 -44.5t49.5 -118.5q0 -120 -125 -154v-80h-108zM774 -16q-164 0 -292.5 58.5t-207 159.5t-119 229t-40.5 276t40.5 276t119 229t207 159.5t292.5 58.5t292.5 -58.5
t207.5 -159.5t119.5 -229.5t40.5 -275.5t-40.5 -275.5t-119.5 -229.5t-207.5 -159.5t-292.5 -58.5zM774 139q122 0 215 45.5t148 125t82.5 179.5t27.5 218q0 94 -16.5 176.5t-53.5 154.5t-91 124t-134 82t-178 30t-178 -30t-134 -82t-91 -124t-53.5 -154.5t-16.5 -176.5
q0 -118 27.5 -218t82.5 -179.5t148 -125t215 -45.5z" />
    <glyph glyph-name="uni1ECF" unicode="&#x1ecf;" horiz-adv-x="1144" 
d="M518 1087v121q113 24 113 103q0 34 -22.5 54.5t-59.5 20.5q-48 0 -84 -36l-55 84q69 51 157 51q85 0 135 -45t50 -119q0 -120 -125 -154v-80h-109zM571 -16q-143 0 -256 69.5t-174 187.5t-61 261q0 142 61 259t174 186t256 69q216 0 355 -148.5t139 -365.5
q0 -142 -61.5 -260t-175.5 -188t-257 -70zM571 131q150 0 234 106t84 265q0 158 -84 262t-234 104q-149 0 -232 -103.5t-83 -262.5t83.5 -265t231.5 -106z" />
    <glyph glyph-name="uni1ED0" unicode="&#x1ed0;" horiz-adv-x="1548" 
d="M690 1952l221 286h183l-277 -286h-127zM467 1522l305 329l307 -329h-137l-170 182l-170 -182h-135zM774 -16q-164 0 -292.5 58.5t-207 159.5t-119 229t-40.5 276t40.5 276t119 229t207 159.5t292.5 58.5t292.5 -58.5t207.5 -159.5t119.5 -229.5t40.5 -275.5t-40.5 -275.5
t-119.5 -229.5t-207.5 -159.5t-292.5 -58.5zM774 139q122 0 215 45.5t148 125t82.5 179.5t27.5 218q0 94 -16.5 176.5t-53.5 154.5t-91 124t-134 82t-178 30t-178 -30t-134 -82t-91 -124t-53.5 -154.5t-16.5 -176.5q0 -118 27.5 -218t82.5 -179.5t148 -125t215 -45.5z" />
    <glyph glyph-name="uni1ED1" unicode="&#x1ed1;" horiz-adv-x="1144" 
d="M487 1538l222 287h182l-277 -287h-127zM266 1108l305 330l308 -330h-138l-170 182l-170 -182h-135zM571 -16q-143 0 -256 69.5t-174 187.5t-61 261q0 142 61 259t174 186t256 69q216 0 355 -148.5t139 -365.5q0 -142 -61.5 -260t-175.5 -188t-257 -70zM571 131
q150 0 234 106t84 265q0 158 -84 262t-234 104q-149 0 -232 -103.5t-83 -262.5t83.5 -265t231.5 -106z" />
    <glyph glyph-name="uni1ED2" unicode="&#x1ed2;" horiz-adv-x="1548" 
d="M725 1937l-274 301h180l221 -301h-127zM467 1522l305 329l307 -329h-137l-170 182l-170 -182h-135zM774 -16q-164 0 -292.5 58.5t-207 159.5t-119 229t-40.5 276t40.5 276t119 229t207 159.5t292.5 58.5t292.5 -58.5t207.5 -159.5t119.5 -229.5t40.5 -275.5t-40.5 -275.5
t-119.5 -229.5t-207.5 -159.5t-292.5 -58.5zM774 139q122 0 215 45.5t148 125t82.5 179.5t27.5 218q0 94 -16.5 176.5t-53.5 154.5t-91 124t-134 82t-178 30t-178 -30t-134 -82t-91 -124t-53.5 -154.5t-16.5 -176.5q0 -118 27.5 -218t82.5 -179.5t148 -125t215 -45.5z" />
    <glyph glyph-name="uni1ED3" unicode="&#x1ed3;" horiz-adv-x="1144" 
d="M524 1524l-274 301h180l221 -301h-127zM266 1108l305 330l308 -330h-138l-170 182l-170 -182h-135zM571 -16q-143 0 -256 69.5t-174 187.5t-61 261q0 142 61 259t174 186t256 69q216 0 355 -148.5t139 -365.5q0 -142 -61.5 -260t-175.5 -188t-257 -70zM571 131
q150 0 234 106t84 265q0 158 -84 262t-234 104q-149 0 -232 -103.5t-83 -262.5t83.5 -265t231.5 -106z" />
    <glyph glyph-name="uni1ED4" unicode="&#x1ed4;" horiz-adv-x="1548" 
d="M717 1915v121q112 21 112 102q0 33 -21.5 54.5t-57.5 21.5q-44 0 -84 -37l-56 82q61 51 158 51q85 0 134.5 -45t49.5 -119q0 -115 -125 -153v-78h-110zM465 1522l307 329l307 -329h-137l-170 182l-170 -182h-137zM774 -16q-164 0 -292.5 58.5t-207 159.5t-119 229
t-40.5 276t40.5 276t119 229t207 159.5t292.5 58.5t292.5 -58.5t207.5 -159.5t119.5 -229.5t40.5 -275.5t-40.5 -275.5t-119.5 -229.5t-207.5 -159.5t-292.5 -58.5zM774 139q122 0 215 45.5t148 125t82.5 179.5t27.5 218q0 94 -16.5 176.5t-53.5 154.5t-91 124t-134 82
t-178 30t-178 -30t-134 -82t-91 -124t-53.5 -154.5t-16.5 -176.5q0 -118 27.5 -218t82.5 -179.5t148 -125t215 -45.5z" />
    <glyph glyph-name="uni1ED5" unicode="&#x1ed5;" horiz-adv-x="1144" 
d="M516 1501v121q113 21 113 102q0 33 -22 54.5t-58 21.5q-44 0 -84 -37l-55 82q61 51 157 51q86 0 135.5 -44.5t49.5 -118.5q0 -116 -125 -154v-78h-111zM264 1108l307 330l308 -330h-138l-170 182l-170 -182h-137zM571 -16q-143 0 -256 69.5t-174 187.5t-61 261
q0 142 61 259t174 186t256 69q216 0 355 -148.5t139 -365.5q0 -142 -61.5 -260t-175.5 -188t-257 -70zM571 131q150 0 234 106t84 265q0 158 -84 262t-234 104q-149 0 -232 -103.5t-83 -262.5t83.5 -265t231.5 -106z" />
    <glyph glyph-name="uni1ED6" unicode="&#x1ed6;" horiz-adv-x="1548" 
d="M909 1960q-45 0 -81 17.5t-58 42t-41.5 49t-42 42t-49.5 17.5q-41 0 -65.5 -41t-24.5 -113h-98q0 124 51.5 192t142.5 68q42 0 75.5 -17t56 -41.5t42.5 -49t43.5 -41.5t50.5 -17q37 0 60.5 43t23.5 115h105q0 -124 -51.5 -195t-139.5 -71zM467 1522l305 329l307 -329
h-137l-170 182l-170 -182h-135zM774 -16q-164 0 -292.5 58.5t-207 159.5t-119 229t-40.5 276t40.5 276t119 229t207 159.5t292.5 58.5t292.5 -58.5t207.5 -159.5t119.5 -229.5t40.5 -275.5t-40.5 -275.5t-119.5 -229.5t-207.5 -159.5t-292.5 -58.5zM774 139q122 0 215 45.5
t148 125t82.5 179.5t27.5 218q0 94 -16.5 176.5t-53.5 154.5t-91 124t-134 82t-178 30t-178 -30t-134 -82t-91 -124t-53.5 -154.5t-16.5 -176.5q0 -118 27.5 -218t82.5 -179.5t148 -125t215 -45.5z" />
    <glyph glyph-name="uni1ED7" unicode="&#x1ed7;" horiz-adv-x="1144" 
d="M707 1546q-45 0 -81 17.5t-58.5 42t-41.5 49t-42 42t-50 17.5q-42 0 -66 -40.5t-24 -112.5h-98q0 124 51.5 192t142.5 68q42 0 75.5 -17t56 -41.5t43 -49t44 -41.5t50.5 -17q37 0 60.5 42.5t23.5 114.5h104q0 -124 -51 -195t-139 -71zM266 1108l305 330l308 -330h-138
l-170 182l-170 -182h-135zM571 -16q-143 0 -256 69.5t-174 187.5t-61 261q0 142 61 259t174 186t256 69q216 0 355 -148.5t139 -365.5q0 -142 -61.5 -260t-175.5 -188t-257 -70zM571 131q150 0 234 106t84 265q0 158 -84 262t-234 104q-149 0 -232 -103.5t-83 -262.5
t83.5 -265t231.5 -106z" />
    <glyph glyph-name="uni1ED8" unicode="&#x1ed8;" horiz-adv-x="1548" 
d="M467 1522l305 329l307 -329h-137l-170 182l-170 -182h-135zM774 -16q-164 0 -292.5 58.5t-207 159.5t-119 229t-40.5 276t40.5 276t119 229t207 159.5t292.5 58.5t292.5 -58.5t207.5 -159.5t119.5 -229.5t40.5 -275.5t-40.5 -275.5t-119.5 -229.5t-207.5 -159.5
t-292.5 -58.5zM774 139q122 0 215 45.5t148 125t82.5 179.5t27.5 218q0 94 -16.5 176.5t-53.5 154.5t-91 124t-134 82t-178 30t-178 -30t-134 -82t-91 -124t-53.5 -154.5t-16.5 -176.5q0 -118 27.5 -218t82.5 -179.5t148 -125t215 -45.5zM684 -414v211h176v-211h-176z" />
    <glyph glyph-name="uni1ED9" unicode="&#x1ed9;" horiz-adv-x="1144" 
d="M266 1108l305 330l308 -330h-138l-170 182l-170 -182h-135zM571 -16q-143 0 -256 69.5t-174 187.5t-61 261q0 142 61 259t174 186t256 69q216 0 355 -148.5t139 -365.5q0 -142 -61.5 -260t-175.5 -188t-257 -70zM571 131q150 0 234 106t84 265q0 158 -84 262t-234 104
q-149 0 -232 -103.5t-83 -262.5t83.5 -265t231.5 -106zM483 -414v211h176v-211h-176z" />
    <glyph glyph-name="uni1EDA" unicode="&#x1eda;" horiz-adv-x="1548" 
d="M1094 1827l-277 -287h-127l221 287h183zM1489 1470q0 -245 -184 -301q129 -186 129 -462q0 -147 -40.5 -275.5t-119.5 -229.5t-207.5 -159.5t-292.5 -58.5t-292.5 58.5t-207 159.5t-119 229t-40.5 276t40.5 276t119 229t207 159.5t292.5 58.5q275 0 447 -162q73 7 106 59
t33 131v105h129v-93zM774 139q122 0 215 45.5t148 125t82.5 179.5t27.5 218q0 94 -16.5 176.5t-53.5 154.5t-91 124t-134 82t-178 30t-178 -30t-134 -82t-91 -124t-53.5 -154.5t-16.5 -176.5q0 -118 27.5 -218t82.5 -179.5t148 -125t215 -45.5z" />
    <glyph glyph-name="uni1EDB" unicode="&#x1edb;" horiz-adv-x="1144" 
d="M891 1413l-277 -287h-127l222 287h182zM1090 1149h129v-92q0 -123 -52 -204t-159 -103q57 -114 57 -248q0 -142 -61.5 -260t-175.5 -188t-257 -70t-256 69.5t-174 187.5t-61 261q0 142 61 259t174 186t256 69q112 0 206.5 -42.5t160.5 -119.5q81 3 116.5 55t35.5 135v105
zM571 131q150 0 234 106t84 265q0 158 -84 262t-234 104q-149 0 -232 -103.5t-83 -262.5t83.5 -265t231.5 -106z" />
    <glyph glyph-name="uni1EDC" unicode="&#x1edc;" horiz-adv-x="1548" 
d="M852 1526h-127l-274 301h180zM1489 1470q0 -245 -184 -301q129 -186 129 -462q0 -147 -40.5 -275.5t-119.5 -229.5t-207.5 -159.5t-292.5 -58.5t-292.5 58.5t-207 159.5t-119 229t-40.5 276t40.5 276t119 229t207 159.5t292.5 58.5q275 0 447 -162q73 7 106 59t33 131
v105h129v-93zM774 139q122 0 215 45.5t148 125t82.5 179.5t27.5 218q0 94 -16.5 176.5t-53.5 154.5t-91 124t-134 82t-178 30t-178 -30t-134 -82t-91 -124t-53.5 -154.5t-16.5 -176.5q0 -118 27.5 -218t82.5 -179.5t148 -125t215 -45.5z" />
    <glyph glyph-name="uni1EDD" unicode="&#x1edd;" horiz-adv-x="1144" 
d="M651 1112h-127l-274 301h180zM1090 1149h129v-92q0 -123 -52 -204t-159 -103q57 -114 57 -248q0 -142 -61.5 -260t-175.5 -188t-257 -70t-256 69.5t-174 187.5t-61 261q0 142 61 259t174 186t256 69q112 0 206.5 -42.5t160.5 -119.5q81 3 116.5 55t35.5 135v105zM571 131
q150 0 234 106t84 265q0 158 -84 262t-234 104q-149 0 -232 -103.5t-83 -262.5t83.5 -265t231.5 -106z" />
    <glyph glyph-name="uni1EDE" unicode="&#x1ede;" horiz-adv-x="1548" 
d="M750 1800q-47 0 -84 -37l-56 84q69 51 158 51q85 0 134.5 -44.5t49.5 -118.5q0 -120 -125 -154v-80h-108v121q112 24 112 102q0 34 -22 55t-59 21zM1489 1470q0 -245 -184 -301q129 -186 129 -462q0 -147 -40.5 -275.5t-119.5 -229.5t-207.5 -159.5t-292.5 -58.5
t-292.5 58.5t-207 159.5t-119 229t-40.5 276t40.5 276t119 229t207 159.5t292.5 58.5q275 0 447 -162q73 7 106 59t33 131v105h129v-93zM774 139q122 0 215 45.5t148 125t82.5 179.5t27.5 218q0 94 -16.5 176.5t-53.5 154.5t-91 124t-134 82t-178 30t-178 -30t-134 -82
t-91 -124t-53.5 -154.5t-16.5 -176.5q0 -118 27.5 -218t82.5 -179.5t148 -125t215 -45.5z" />
    <glyph glyph-name="uni1EDF" unicode="&#x1edf;" horiz-adv-x="1144" 
d="M549 1386q-48 0 -84 -36l-55 84q69 51 157 51q85 0 135 -45t50 -119q0 -120 -125 -154v-80h-109v121q113 24 113 103q0 34 -22.5 54.5t-59.5 20.5zM1090 1149h129v-92q0 -123 -52 -204t-159 -103q57 -114 57 -248q0 -142 -61.5 -260t-175.5 -188t-257 -70t-256 69.5
t-174 187.5t-61 261q0 142 61 259t174 186t256 69q112 0 206.5 -42.5t160.5 -119.5q81 3 116.5 55t35.5 135v105zM571 131q150 0 234 106t84 265q0 158 -84 262t-234 104q-149 0 -232 -103.5t-83 -262.5t83.5 -265t231.5 -106z" />
    <glyph glyph-name="uni1EE0" unicode="&#x1ee0;" horiz-adv-x="1548" 
d="M637 1714q-42 0 -66 -40.5t-24 -112.5h-98q0 124 51.5 192t142.5 68q42 0 75.5 -17t56 -41.5t42.5 -49t43.5 -41.5t50.5 -17q37 0 60.5 42.5t23.5 114.5h105q0 -124 -51.5 -195t-139.5 -71q-45 0 -81 17.5t-58 42t-41.5 49t-42 42t-49.5 17.5zM1489 1470
q0 -245 -184 -301q129 -186 129 -462q0 -147 -40.5 -275.5t-119.5 -229.5t-207.5 -159.5t-292.5 -58.5t-292.5 58.5t-207 159.5t-119 229t-40.5 276t40.5 276t119 229t207 159.5t292.5 58.5q275 0 447 -162q73 7 106 59t33 131v105h129v-93zM774 139q122 0 215 45.5t148 125
t82.5 179.5t27.5 218q0 94 -16.5 176.5t-53.5 154.5t-91 124t-134 82t-178 30t-178 -30t-134 -82t-91 -124t-53.5 -154.5t-16.5 -176.5q0 -118 27.5 -218t82.5 -179.5t148 -125t215 -45.5z" />
    <glyph glyph-name="uni1EE1" unicode="&#x1ee1;" horiz-adv-x="1144" 
d="M434 1300q-42 0 -66 -40.5t-24 -112.5h-98q0 124 51.5 192t142.5 68q42 0 75.5 -17t56 -41.5t43 -49t44 -41.5t50.5 -17q37 0 60.5 43t23.5 115h104q0 -124 -51 -195t-139 -71q-45 0 -81 17t-58.5 41.5t-41.5 49.5t-42 42t-50 17zM1090 1149h129v-92q0 -123 -52 -204
t-159 -103q57 -114 57 -248q0 -142 -61.5 -260t-175.5 -188t-257 -70t-256 69.5t-174 187.5t-61 261q0 142 61 259t174 186t256 69q112 0 206.5 -42.5t160.5 -119.5q81 3 116.5 55t35.5 135v105zM571 131q150 0 234 106t84 265q0 158 -84 262t-234 104q-149 0 -232 -103.5
t-83 -262.5t83.5 -265t231.5 -106z" />
    <glyph glyph-name="uni1EE2" unicode="&#x1ee2;" horiz-adv-x="1548" 
d="M1489 1470q0 -245 -184 -301q129 -186 129 -462q0 -147 -40.5 -275.5t-119.5 -229.5t-207.5 -159.5t-292.5 -58.5t-292.5 58.5t-207 159.5t-119 229t-40.5 276t40.5 276t119 229t207 159.5t292.5 58.5q275 0 447 -162q73 7 106 59t33 131v105h129v-93zM774 139
q122 0 215 45.5t148 125t82.5 179.5t27.5 218q0 94 -16.5 176.5t-53.5 154.5t-91 124t-134 82t-178 30t-178 -30t-134 -82t-91 -124t-53.5 -154.5t-16.5 -176.5q0 -118 27.5 -218t82.5 -179.5t148 -125t215 -45.5zM684 -414v211h176v-211h-176z" />
    <glyph glyph-name="uni1EE3" unicode="&#x1ee3;" horiz-adv-x="1144" 
d="M1090 1149h129v-92q0 -123 -52 -204t-159 -103q57 -114 57 -248q0 -142 -61.5 -260t-175.5 -188t-257 -70t-256 69.5t-174 187.5t-61 261q0 142 61 259t174 186t256 69q112 0 206.5 -42.5t160.5 -119.5q81 3 116.5 55t35.5 135v105zM571 131q150 0 234 106t84 265
q0 158 -84 262t-234 104q-149 0 -232 -103.5t-83 -262.5t83.5 -265t231.5 -106zM483 -414v211h176v-211h-176z" />
    <glyph glyph-name="uni1EE4" unicode="&#x1ee4;" horiz-adv-x="1394" 
d="M696 -16q-258 0 -387 145t-129 408v876h176v-856q0 -202 79.5 -302.5t260.5 -100.5q182 0 262 101.5t80 303.5v854h176v-866q0 -269 -129 -416t-389 -147zM606 -414v211h176v-211h-176z" />
    <glyph glyph-name="uni1EE5" unicode="&#x1ee5;" horiz-adv-x="1136" 
d="M494 -16q-89 0 -157.5 31t-110 86t-63 124.5t-22.5 151.5v622h168v-591q0 -125 59.5 -197t170.5 -72q122 0 192 73.5t70 211.5v575h168v-999h-168v152q-51 -82 -132 -125t-175 -43zM477 -414v211h176v-211h-176z" />
    <glyph glyph-name="uni1EE6" unicode="&#x1ee6;" horiz-adv-x="1394" 
d="M641 1501v121q113 24 113 102q0 34 -22.5 55t-59.5 21q-47 0 -84 -37l-56 84q69 51 158 51q85 0 134.5 -44.5t49.5 -118.5q0 -120 -124 -154v-80h-109zM696 -16q-258 0 -387 145t-129 408v876h176v-856q0 -202 79.5 -302.5t260.5 -100.5q182 0 262 101.5t80 303.5v854
h176v-866q0 -269 -129 -416t-389 -147z" />
    <glyph glyph-name="uni1EE7" unicode="&#x1ee7;" horiz-adv-x="1136" 
d="M512 1087v121q113 24 113 103q0 34 -22.5 54.5t-59.5 20.5q-48 0 -84 -36l-56 84q69 51 158 51q85 0 134.5 -45t49.5 -119q0 -120 -124 -154v-80h-109zM494 -16q-89 0 -157.5 31t-110 86t-63 124.5t-22.5 151.5v622h168v-591q0 -125 59.5 -197t170.5 -72q122 0 192 73.5
t70 211.5v575h168v-999h-168v152q-51 -82 -132 -125t-175 -43z" />
    <glyph glyph-name="uni1EE8" unicode="&#x1ee8;" horiz-adv-x="1394" 
d="M1016 1827l-277 -287h-127l222 287h182zM1327 1563h129v-93q0 -133 -59.5 -216t-182.5 -97v-610q0 -269 -129 -416t-389 -147q-258 0 -387 145t-129 408v876h176v-856q0 -202 79.5 -302.5t260.5 -100.5q182 0 262 101.5t80 303.5v854h176v-139q113 24 113 184v105z" />
    <glyph glyph-name="uni1EE9" unicode="&#x1ee9;" horiz-adv-x="1136" 
d="M887 1413l-277 -287h-127l222 287h182zM1092 1149h129v-92q0 -135 -62.5 -219.5t-189.5 -94.5v-743h-168v152q-51 -82 -132 -125t-175 -43q-89 0 -157.5 31t-110 86t-63 124.5t-22.5 151.5v622h168v-591q0 -125 59.5 -197t170.5 -72q122 0 192 73.5t70 211.5v575h168
v-141q123 21 123 186v105z" />
    <glyph glyph-name="uni1EEA" unicode="&#x1eea;" horiz-adv-x="1394" 
d="M774 1526h-127l-274 301h180zM1327 1563h129v-93q0 -133 -59.5 -216t-182.5 -97v-610q0 -269 -129 -416t-389 -147q-258 0 -387 145t-129 408v876h176v-856q0 -202 79.5 -302.5t260.5 -100.5q182 0 262 101.5t80 303.5v854h176v-139q113 24 113 184v105z" />
    <glyph glyph-name="uni1EEB" unicode="&#x1eeb;" horiz-adv-x="1136" 
d="M645 1112h-127l-274 301h180zM1092 1149h129v-92q0 -135 -62.5 -219.5t-189.5 -94.5v-743h-168v152q-51 -82 -132 -125t-175 -43q-89 0 -157.5 31t-110 86t-63 124.5t-22.5 151.5v622h168v-591q0 -125 59.5 -197t170.5 -72q122 0 192 73.5t70 211.5v575h168v-141
q123 21 123 186v105z" />
    <glyph glyph-name="uni1EEC" unicode="&#x1eec;" horiz-adv-x="1394" 
d="M672 1800q-47 0 -84 -37l-56 84q69 51 158 51q85 0 134.5 -44.5t49.5 -118.5q0 -120 -124 -154v-80h-109v121q113 24 113 102q0 34 -22.5 55t-59.5 21zM1327 1563h129v-93q0 -133 -59.5 -216t-182.5 -97v-610q0 -269 -129 -416t-389 -147q-258 0 -387 145t-129 408v876
h176v-856q0 -202 79.5 -302.5t260.5 -100.5q182 0 262 101.5t80 303.5v854h176v-139q113 24 113 184v105z" />
    <glyph glyph-name="uni1EED" unicode="&#x1eed;" horiz-adv-x="1136" 
d="M543 1386q-48 0 -84 -36l-56 84q69 51 158 51q85 0 134.5 -45t49.5 -119q0 -120 -124 -154v-80h-109v121q113 24 113 103q0 34 -22.5 54.5t-59.5 20.5zM1092 1149h129v-92q0 -135 -62.5 -219.5t-189.5 -94.5v-743h-168v152q-51 -82 -132 -125t-175 -43q-89 0 -157.5 31
t-110 86t-63 124.5t-22.5 151.5v622h168v-591q0 -125 59.5 -197t170.5 -72q122 0 192 73.5t70 211.5v575h168v-141q123 21 123 186v105z" />
    <glyph glyph-name="uni1EEE" unicode="&#x1eee;" horiz-adv-x="1394" 
d="M559 1714q-42 0 -66 -40.5t-24 -112.5h-98q0 124 51.5 192t142.5 68q42 0 75.5 -17t56 -41.5t43 -49t44 -41.5t50.5 -17q37 0 60.5 42.5t23.5 114.5h104q0 -124 -51.5 -195t-139.5 -71q-45 0 -81 17.5t-58 42t-41.5 49t-42 42t-49.5 17.5zM1327 1563h129v-93
q0 -133 -59.5 -216t-182.5 -97v-610q0 -269 -129 -416t-389 -147q-258 0 -387 145t-129 408v876h176v-856q0 -202 79.5 -302.5t260.5 -100.5q182 0 262 101.5t80 303.5v854h176v-139q113 24 113 184v105z" />
    <glyph glyph-name="uni1EEF" unicode="&#x1eef;" horiz-adv-x="1136" 
d="M430 1300q-42 0 -66 -40.5t-24 -112.5h-98q0 124 51.5 192t142.5 68q42 0 75.5 -17t56 -41.5t43 -49t44 -41.5t50.5 -17q37 0 60 42.5t23 115.5h105q0 -124 -51.5 -195t-139.5 -71q-45 0 -81 17t-58 41.5t-41.5 49.5t-42 42t-49.5 17zM1092 1149h129v-92
q0 -135 -62.5 -219.5t-189.5 -94.5v-743h-168v152q-51 -82 -132 -125t-175 -43q-89 0 -157.5 31t-110 86t-63 124.5t-22.5 151.5v622h168v-591q0 -125 59.5 -197t170.5 -72q122 0 192 73.5t70 211.5v575h168v-141q123 21 123 186v105z" />
    <glyph glyph-name="uni1EF0" unicode="&#x1ef0;" horiz-adv-x="1394" 
d="M1327 1563h129v-93q0 -133 -59.5 -216t-182.5 -97v-610q0 -269 -129 -416t-389 -147q-258 0 -387 145t-129 408v876h176v-856q0 -202 79.5 -302.5t260.5 -100.5q182 0 262 101.5t80 303.5v854h176v-139q113 24 113 184v105zM606 -414v211h176v-211h-176z" />
    <glyph glyph-name="uni1EF1" unicode="&#x1ef1;" horiz-adv-x="1136" 
d="M1092 1149h129v-92q0 -135 -62.5 -219.5t-189.5 -94.5v-743h-168v152q-51 -82 -132 -125t-175 -43q-89 0 -157.5 31t-110 86t-63 124.5t-22.5 151.5v622h168v-591q0 -125 59.5 -197t170.5 -72q122 0 192 73.5t70 211.5v575h168v-141q123 21 123 186v105zM477 -414v211
h176v-211h-176z" />
    <glyph glyph-name="Ygrave" unicode="&#x1ef2;" horiz-adv-x="1325" 
d="M612 1526l-274 301h180l221 -301h-127zM571 0v543l-534 870h213l412 -698l413 698h213l-534 -870v-543h-183z" />
    <glyph glyph-name="ygrave" unicode="&#x1ef3;" horiz-adv-x="1024" 
d="M461 1112l-275 301h181l221 -301h-127zM266 -414l168 430l-414 983h187l317 -786l291 786h186l-550 -1413h-185z" />
    <glyph glyph-name="uni1EF4" unicode="&#x1ef4;" horiz-adv-x="1325" 
d="M571 0v543l-534 870h213l412 -698l413 698h213l-534 -870v-543h-183zM571 -414v211h177v-211h-177z" />
    <glyph glyph-name="uni1EF5" unicode="&#x1ef5;" horiz-adv-x="1024" 
d="M266 -414l168 430l-414 983h187l317 -786l291 786h186l-550 -1413h-185zM709 -414v211h176v-211h-176z" />
    <glyph glyph-name="uni1EF6" unicode="&#x1ef6;" horiz-adv-x="1325" 
d="M606 1501v121q113 24 113 102q0 34 -22.5 55t-59.5 21q-47 0 -84 -37l-55 84q69 51 157 51q86 0 135.5 -44.5t49.5 -118.5q0 -120 -125 -154v-80h-109zM571 0v543l-534 870h213l412 -698l413 698h213l-534 -870v-543h-183z" />
    <glyph glyph-name="uni1EF7" unicode="&#x1ef7;" horiz-adv-x="1024" 
d="M455 1087v121q112 24 112 103q0 34 -22.5 54.5t-59.5 20.5q-48 0 -84 -36l-55 84q69 51 158 51q85 0 134.5 -45t49.5 -119q0 -120 -125 -154v-80h-108zM266 -414l168 430l-414 983h187l317 -786l291 786h186l-550 -1413h-185z" />
    <glyph glyph-name="uni1EF8" unicode="&#x1ef8;" horiz-adv-x="1325" 
d="M797 1546q-45 0 -81 17.5t-58.5 42t-41.5 49t-42 42t-50 17.5q-42 0 -66 -40.5t-24 -112.5h-98q0 124 51.5 192t142.5 68q42 0 75.5 -17t56 -41.5t43 -49t44 -41.5t50.5 -17q37 0 60.5 42.5t23.5 114.5h104q0 -124 -51 -195t-139 -71zM571 0v543l-534 870h213l412 -698
l413 698h213l-534 -870v-543h-183z" />
    <glyph glyph-name="uni1EF9" unicode="&#x1ef9;" horiz-adv-x="1024" 
d="M645 1133q-45 0 -81 17t-58 41.5t-41.5 49.5t-42 42t-49.5 17q-42 0 -66 -40.5t-24 -112.5h-99q0 124 52 192t143 68q42 0 75.5 -17t56 -41.5t42.5 -49t43.5 -41.5t50.5 -17q37 0 60.5 43t23.5 115h105q0 -124 -51.5 -195t-139.5 -71zM266 -414l168 430l-414 983h187
l317 -786l291 786h186l-550 -1413h-185z" />
    <glyph glyph-name="endash" unicode="&#x2013;" horiz-adv-x="1058" 
d="M160 551v129h739v-129h-739z" />
    <glyph glyph-name="emdash" unicode="&#x2014;" horiz-adv-x="2048" 
d="M0 551v129h2048v-129h-2048z" />
    <glyph glyph-name="uni2015" unicode="&#x2015;" horiz-adv-x="1550" 
d="M160 551v129h1231v-129h-1231z" />
    <glyph glyph-name="quoteleft" unicode="&#x2018;" horiz-adv-x="579" 
d="M82 840l264 573h115l-185 -573h-194z" />
    <glyph glyph-name="quoteright" unicode="&#x2019;" horiz-adv-x="579" 
d="M117 840l184 573h195l-263 -573h-116z" />
    <glyph glyph-name="quotesinglbase" unicode="&#x201a;" horiz-adv-x="579" 
d="M117 -311l184 573h195l-263 -573h-116z" />
    <glyph glyph-name="quotedblleft" unicode="&#x201c;" horiz-adv-x="933" 
d="M82 840l264 573h115l-185 -573h-194zM436 840l264 573h115l-184 -573h-195z" />
    <glyph glyph-name="quotedblright" unicode="&#x201d;" horiz-adv-x="933" 
d="M117 840l184 573h195l-263 -573h-116zM473 840l184 573h195l-264 -573h-115z" />
    <glyph glyph-name="quotedblbase" unicode="&#x201e;" horiz-adv-x="948" 
d="M117 -311l184 573h195l-263 -573h-116zM485 -311l185 573h194l-262 -573h-117z" />
    <glyph glyph-name="dagger" unicode="&#x2020;" horiz-adv-x="819" 
d="M334 -205v1065h-242v156h242v397h153v-397h240v-156h-240v-1065h-153z" />
    <glyph glyph-name="daggerdbl" unicode="&#x2021;" horiz-adv-x="909" 
d="M377 -205v398h-240v153h240v514h-240v156h240v397h155v-397h240v-156h-240v-514h240v-153h-240v-398h-155z" />
    <glyph glyph-name="bullet" unicode="&#x2022;" horiz-adv-x="821" 
d="M410 244q-98 0 -168 69.5t-70 167.5t70 168t168 70t167.5 -70t69.5 -168t-69.5 -167.5t-167.5 -69.5z" />
    <glyph glyph-name="uni2023" unicode="&#x2023;" horiz-adv-x="901" 
d="M236 182v664l573 -332z" />
    <glyph glyph-name="twodotenleader" unicode="&#x2025;" horiz-adv-x="1046" 
d="M231 0v236h170v-236h-170zM645 0v236h170v-236h-170z" />
    <glyph glyph-name="ellipsis" unicode="&#x2026;" horiz-adv-x="1460" 
d="M231 0v236h170v-236h-170zM645 0v236h170v-236h-170zM1059 0v236h170v-236h-170z" />
    <glyph glyph-name="perthousand" unicode="&#x2030;" horiz-adv-x="2129" 
d="M397 788q-128 0 -202 94t-74 228q0 133 72.5 226.5t197.5 93.5q120 0 197.5 -91.5t77.5 -230.5q0 -138 -76 -229t-193 -91zM281 0l813 1413h120l-813 -1413h-120zM397 903q66 0 109 58t43 147t-42.5 148t-115.5 59q-74 0 -113.5 -59.5t-39.5 -145.5q0 -89 40 -148
t119 -59zM1106 -16q-127 0 -201 93.5t-74 227.5q0 133 72.5 226.5t196.5 93.5q119 0 196.5 -91.5t77.5 -230.5q0 -138 -75.5 -228.5t-192.5 -90.5zM1741 -16q-128 0 -202.5 93.5t-74.5 227.5q0 133 73 226.5t198 93.5q119 0 196.5 -91.5t77.5 -230.5q0 -138 -75.5 -228.5
t-192.5 -90.5zM1106 98q67 0 110.5 58t43.5 147t-43 148t-117 59t-114 -59.5t-40 -145.5q0 -88 41 -147.5t119 -59.5zM1741 98q66 0 108.5 58t42.5 147t-42 148t-115 59q-74 0 -114 -59.5t-40 -145.5q0 -88 40.5 -147.5t119.5 -59.5z" />
    <glyph glyph-name="uni2031" unicode="&#x2031;" horiz-adv-x="2762" 
d="M397 788q-128 0 -202 94t-74 228q0 133 72.5 226.5t197.5 93.5q120 0 197.5 -91.5t77.5 -230.5q0 -138 -76 -229t-193 -91zM281 0l813 1413h120l-813 -1413h-120zM397 903q66 0 109 58t43 147t-42.5 148t-115.5 59q-74 0 -113.5 -59.5t-39.5 -145.5q0 -89 40 -148
t119 -59zM1106 -16q-127 0 -201 93.5t-74 227.5q0 133 72.5 226.5t196.5 93.5q119 0 196.5 -91.5t77.5 -230.5q0 -138 -75.5 -228.5t-192.5 -90.5zM1741 -16q-128 0 -202.5 93.5t-74.5 227.5q0 133 73 226.5t198 93.5q119 0 196.5 -91.5t77.5 -230.5q0 -138 -75.5 -228.5
t-192.5 -90.5zM2374 -16q-128 0 -202.5 93.5t-74.5 227.5q0 133 73 226.5t197 93.5q119 0 197 -91.5t78 -230.5q0 -138 -75.5 -228.5t-192.5 -90.5zM1106 98q67 0 110.5 58t43.5 147t-43 148t-117 59t-114 -59.5t-40 -145.5q0 -88 41 -147.5t119 -59.5zM1741 98
q66 0 108.5 58t42.5 147t-42 148t-115 59q-74 0 -114 -59.5t-40 -145.5q0 -88 40.5 -147.5t119.5 -59.5zM2374 98q66 0 108.5 58t42.5 147t-42.5 148t-115.5 59q-74 0 -113.5 -59.5t-39.5 -145.5q0 -88 41 -147.5t119 -59.5z" />
    <glyph glyph-name="guilsinglleft" unicode="&#x2039;" horiz-adv-x="608" 
d="M461 166l-406 344l406 346v-149l-232 -197l232 -195v-149z" />
    <glyph glyph-name="guilsinglright" unicode="&#x203a;" horiz-adv-x="608" 
d="M147 166v149l232 195l-232 197v149l406 -346z" />
    <glyph glyph-name="fraction" unicode="&#x2044;" horiz-adv-x="301" 
d="M-317 0l813 1413h122l-813 -1413h-122z" />
    <glyph glyph-name="Euro" unicode="&#x20ac;" horiz-adv-x="1331" 
d="M821 -16q-109 0 -199.5 39t-153 108t-103 156.5t-60.5 191.5h-172l60 127h94q-4 70 -4 101q0 11 6 110h-156l60 131h114q20 103 61.5 188.5t103.5 153t151 105t196 37.5q246 0 391 -199l-110 -86q-96 149 -279 149q-149 0 -240 -93.5t-122 -254.5h526l-59 -127h-490
q-1 -12 -2.5 -32.5t-2.5 -38t-1 -33.5q0 -55 6 -105h549l-59 -127h-467q29 -163 120.5 -262.5t241.5 -99.5q166 0 273 143l104 -102q-142 -180 -377 -180z" />
    <glyph glyph-name="uni20B1" unicode="&#x20b1;" horiz-adv-x="1382" 
d="M1276 1051v-76h-100q-10 -175 -140.5 -271t-341.5 -96h-231v-608h-174v975h-131v76h131v362h405q205 0 336 -96t146 -266h100zM463 1247v-196h538q-15 95 -93 145.5t-214 50.5h-231zM694 772q285 0 307 203h-538v-203h231z" />
    <glyph glyph-name="uni20B3" unicode="&#x20b3;" horiz-adv-x="1622" 
d="M203 0l108 289h-139v151h199l67 181h-266v151h328l241 641h142l241 -641h326v-151h-266l67 -181h199v-151h-139l108 -289h-190l-103 289h-626l-105 -289h-192zM676 772h274l-137 389zM555 440h516l-65 181h-385z" />
    <glyph glyph-name="uni20B4" unicode="&#x20b4;" horiz-adv-x="1472" 
d="M1130 934h181v-125h-1151v125h762q61 55 61 135q0 89 -66 147t-165 58q-182 0 -271 -168l-145 90q133 234 409 234q176 0 295 -101t119 -268q0 -71 -29 -127zM160 541v123h1151v-123h-779q-86 -69 -86 -166q0 -106 82.5 -169t214.5 -63q123 0 209 63.5t113 180.5l172 -39
q-40 -174 -178.5 -268t-327.5 -94q-128 0 -232.5 45.5t-166.5 130t-62 192.5q0 106 70 187h-180z" />
    <glyph glyph-name="uni20B8" unicode="&#x20b8;" horiz-adv-x="1429" 
d="M152 1268v145h1128v-145h-1128zM627 0v940h-475v145h1128v-145h-477v-940h-176z" />
    <glyph glyph-name="uni20BD" unicode="&#x20bd;" horiz-adv-x="1370" 
d="M344 0v297h-182v137h182v187h-182v151h182v641h406q219 0 351 -108t132 -297t-130 -288t-353 -99h-232v-187h328v-137h-328v-297h-174zM518 772h232q309 0 309 236q0 115 -78.5 177t-230.5 62h-232v-475z" />
    <glyph glyph-name="uni2116" unicode="&#x2116;" horiz-adv-x="2373" 
d="M1057 289v1124h170v-1413h-183l-665 1130v-1130h-168v1413h180zM1845 322q-180 0 -294.5 124.5t-114.5 309.5q0 118 50.5 215.5t145 156t213.5 58.5q180 0 297 -125t117 -305q0 -183 -117 -308.5t-297 -125.5zM1845 1063q-124 0 -195 -87.5t-71 -219.5q0 -135 71 -224.5
t195 -89.5q125 0 197 90t72 224q0 131 -72 219t-197 88zM1448 0v129h774v-129h-774z" />
    <glyph glyph-name="trademark" unicode="&#x2122;" horiz-adv-x="1257" 
d="M231 877v436h-151v100h412v-100h-152v-436h-109zM606 877v536h176l113 -356l111 356h172v-536h-107v421l-141 -397h-70l-145 402v-426h-109z" />
    <glyph glyph-name="uni2126" unicode="&#x2126;" horiz-adv-x="1667" 
d="M156 0v141h379l4 6q-155 92 -248.5 253t-93.5 335q0 118 44 234t119 198q89 95 217.5 151t256.5 56q127 0 255.5 -57t217.5 -152q74 -80 117.5 -197t43.5 -237q0 -187 -88 -348t-237 -242v-4h366v-137h-553v172q166 35 264.5 186t98.5 371q0 96 -31 186.5t-84 149.5
q-70 76 -170.5 121t-199.5 45t-199.5 -45.5t-171.5 -120.5q-54 -59 -85.5 -149t-31.5 -187q0 -214 98.5 -365t264.5 -192v-172h-553z" />
    <glyph glyph-name="arrowleft" unicode="&#x2190;" horiz-adv-x="2304" 
d="M1104 70l-1020 569l1020 565l57 -114l-694 -385l1731 -3v-131l-1733 2l696 -389z" />
    <glyph glyph-name="arrowright" unicode="&#x2192;" horiz-adv-x="2306" 
d="M1200 70l-57 114l696 389l-1733 -2v131l1731 3l-694 385l57 114l1020 -565z" />
    <glyph glyph-name="partialdiff" unicode="&#x2202;" horiz-adv-x="1331" 
d="M582 -12q-204 0 -324.5 126t-120.5 328q0 124 44 232.5t117.5 182.5t173 116.5t208.5 42.5q198 0 315 -209q3 80 -12 145q-18 175 -99.5 263t-215.5 88q-92 0 -168.5 -44.5t-114.5 -142.5l-127 41q53 129 163.5 199.5t262.5 70.5q164 0 274 -86.5t159.5 -235t49.5 -353.5
q0 -161 -38 -298.5t-109.5 -242t-184 -164t-253.5 -59.5zM592 135q88 0 162 33t122.5 88t77.5 123.5t37 144.5q3 49 -5 97.5t-30 95t-55 82t-85 57t-116 21.5q-124 0 -218 -61.5t-140.5 -158.5t-46.5 -213q0 -146 84.5 -227.5t212.5 -81.5z" />
    <glyph glyph-name="uni2206" unicode="&#x2206;" horiz-adv-x="1343" 
d="M88 0l584 1470l581 -1470h-1165zM297 143h747l-372 977z" />
    <glyph glyph-name="product" unicode="&#x220f;" horiz-adv-x="1347" 
d="M268 0v1270h-98v143h1008v-143h-99v-1270h-143v1270h-524v-1270h-144z" />
    <glyph glyph-name="summation" unicode="&#x2211;" horiz-adv-x="1316" 
d="M1182 1413v-162h-791l527 -544l-527 -545h791v-162h-1063v98l569 609l-569 608v98h1063z" />
    <glyph glyph-name="minus" unicode="&#x2212;" horiz-adv-x="1245" 
d="M246 563v131h753v-131h-753z" />
    <glyph glyph-name="radical" unicode="&#x221a;" horiz-adv-x="1251" 
d="M516 -170l-272 723h-154v143h256l178 -497l488 1214h153z" />
    <glyph glyph-name="infinity" unicode="&#x221e;" horiz-adv-x="1982" 
d="M559 356q-175 0 -281 105.5t-106 269.5q0 165 106 271t281 106q116 0 228 -69.5t200 -190.5q96 123 208.5 191.5t227.5 68.5q175 0 281 -106t106 -271q0 -164 -106 -269.5t-281 -105.5q-116 0 -229 68.5t-207 189.5q-89 -122 -200.5 -190t-227.5 -68zM580 494
q83 0 171.5 60.5t159.5 176.5q-72 117 -160.5 177.5t-170.5 60.5q-113 0 -184.5 -65.5t-71.5 -172.5q0 -105 71.5 -171t184.5 -66zM1403 494q113 0 184.5 66t71.5 171q0 107 -71.5 172.5t-184.5 65.5q-86 0 -176 -63.5t-162 -174.5q74 -111 163 -174t175 -63z" />
    <glyph glyph-name="integral" unicode="&#x222b;" horiz-adv-x="974" 
d="M80 -469v143q172 0 244.5 66t72.5 223v1170q0 132 84 219.5t207 87.5q119 0 215 -84l-90 -109q-60 49 -125 49q-63 0 -105 -44.5t-42 -123.5v-1169q0 -211 -120.5 -319.5t-340.5 -108.5z" />
    <glyph glyph-name="approxequal" unicode="&#x2248;" horiz-adv-x="1247" 
d="M799 709q-52 0 -93 18t-64.5 45t-47.5 58.5t-42 58.5t-46.5 45t-63.5 18q-55 0 -85.5 -51t-30.5 -141h-129q0 140 66.5 224.5t178.5 84.5q63 0 110.5 -25t75.5 -61t51.5 -72t53 -61t66.5 -25q55 0 89 59.5t34 155.5h129q0 -148 -69 -239.5t-183 -91.5zM799 250
q-52 0 -93 18t-64.5 45t-47.5 59t-42 59t-46.5 45t-63.5 18q-55 0 -85.5 -52t-30.5 -141h-129q0 139 66.5 223t178.5 84q63 0 110.5 -25t75.5 -60t51.5 -70.5t53 -60.5t66.5 -25q55 0 89 59.5t34 155.5h129q0 -148 -69 -240t-183 -92z" />
    <glyph glyph-name="notequal" unicode="&#x2260;" horiz-adv-x="1187" 
d="M129 0l223 393h-159v146h245l152 266h-397v145h485l264 463h121l-264 -463h192v-145h-278l-152 -266h430v-146h-518l-223 -393h-121z" />
    <glyph glyph-name="lessequal" unicode="&#x2264;" horiz-adv-x="1353" 
d="M1124 207l-1022 584l1022 581l66 -110l-825 -471l825 -472zM180 0h1053v-129h-1053v129z" />
    <glyph glyph-name="greaterequal" unicode="&#x2265;" horiz-adv-x="1353" 
d="M229 207l-65 112l825 472l-825 471l65 110l1022 -581zM1174 0v-129h-1053v129h1053z" />
    <glyph glyph-name="lozenge" unicode="&#x25ca;" horiz-adv-x="1193" 
d="M479 0l-377 707l377 706h236l377 -706l-377 -707h-236zM584 92h28l312 615l-312 614h-28l-314 -614z" />
    <glyph glyph-name="uniF8FF" unicode="&#xf8ff;" horiz-adv-x="1777" 
d="M889 -61q-158 0 -301 61t-247 165t-165 247t-61 301t61 301t165 247t247 165t301 61t301 -61t247 -165t165 -247t61 -301t-61 -301t-165 -247t-247 -165t-301 -61zM889 10q143 0 273 55.5t224 149.5t149.5 224.5t55.5 273.5t-55.5 273t-149.5 224t-224 149.5t-273 55.5
t-273.5 -55.5t-224.5 -149.5t-149.5 -224t-55.5 -273q0 -191 94 -353t256 -256t353 -94zM485 410q-14 0 -24 9.5t-10 24.5v537q0 15 10 26t24 11q15 0 26 -11t11 -26v-537q0 -15 -11 -24.5t-26 -9.5zM889 410q-15 0 -25 9.5t-10 24.5v537q0 15 10 26t25 11t25 -11t10 -26
v-537q0 -15 -10 -24.5t-25 -9.5zM1290 410q-14 0 -22 10l-271 268q-8 11 -8 25q0 16 8 24l271 269q9 12 22 12q14 0 25.5 -12t11.5 -25q0 -15 -10 -25l-244 -243l244 -244q10 -10 10 -25q0 -13 -11.5 -23.5t-25.5 -10.5zM621 678q-15 0 -25 10t-10 25t10 25t25 10h133
q15 0 26 -10t11 -25t-11 -25t-26 -10h-133z" />
    <glyph glyph-name="uni00A40301" horiz-adv-x="1161" 
d="M492 1540l221 287h182l-277 -287h-126zM522 -16q-200 0 -322.5 123t-136.5 315l173 18q9 -132 83 -212.5t203 -80.5q152 0 215.5 89.5t63.5 273.5v741h-559v162h735v-899q0 -163 -45.5 -279t-149 -183.5t-260.5 -67.5z" />
    <glyph glyph-name="i.loclTRK" horiz-adv-x="505" 
d="M164 1202v211h176v-211h-176zM168 0v999h170v-999h-170z" />
    <glyph glyph-name="uni006A0301" horiz-adv-x="509" 
d="M168 1126l221 287h182l-276 -287h-127zM68 -430q-83 0 -166 31l45 147q63 -24 104 -24q61 0 90 36t29 113v1126h172v-1114q0 -144 -69 -229.5t-205 -85.5z" />
    <glyph glyph-name="g.ss01" horiz-adv-x="1189" 
d="M543 -430q-152 0 -260.5 64t-173.5 176l129 94q39 -82 119.5 -134.5t187.5 -52.5q136 0 221.5 89.5t85.5 252.5v136q-49 -94 -137 -146.5t-195 -52.5q-133 0 -234.5 71t-153.5 186.5t-52 254.5q0 137 52 252t153 185.5t233 70.5q106 0 195.5 -51.5t138.5 -145.5v180h170
v-940q0 -226 -131.5 -357.5t-347.5 -131.5zM559 154q142 0 223.5 99.5t81.5 254.5q0 153 -81.5 253.5t-223.5 100.5t-224.5 -101t-82.5 -253q0 -154 82.5 -254t224.5 -100z" />
    <glyph glyph-name="gbreve.ss01" horiz-adv-x="1187" 
d="M594 1147q-309 0 -309 266h121q0 -81 50.5 -122.5t137.5 -41.5q88 0 137 42t49 122h121q0 -266 -307 -266zM543 -430q-152 0 -260.5 64t-173.5 176l129 94q39 -82 119.5 -134.5t187.5 -52.5q136 0 221.5 89.5t85.5 252.5v136q-49 -94 -137 -146.5t-195 -52.5
q-133 0 -234.5 71t-153.5 186.5t-52 254.5q0 137 52 252t153 185.5t233 70.5q106 0 195.5 -51.5t138.5 -145.5v180h170v-940q0 -226 -131.5 -357.5t-347.5 -131.5zM559 154q142 0 223.5 99.5t81.5 254.5q0 153 -81.5 253.5t-223.5 100.5t-224.5 -101t-82.5 -253
q0 -154 82.5 -254t224.5 -100z" />
    <glyph glyph-name="uni0123.ss01" horiz-adv-x="1187" 
d="M836 1403l-168 -305h-179l242 305h105zM543 -430q-152 0 -260.5 64t-173.5 176l129 94q39 -82 119.5 -134.5t187.5 -52.5q136 0 221.5 89.5t85.5 252.5v136q-49 -94 -137 -146.5t-195 -52.5q-133 0 -234.5 71t-153.5 186.5t-52 254.5q0 137 52 252t153 185.5t233 70.5
q106 0 195.5 -51.5t138.5 -145.5v180h170v-940q0 -226 -131.5 -357.5t-347.5 -131.5zM559 154q142 0 223.5 99.5t81.5 254.5q0 153 -81.5 253.5t-223.5 100.5t-224.5 -101t-82.5 -253q0 -154 82.5 -254t224.5 -100z" />
    <glyph glyph-name="gdotaccent.ss01" horiz-adv-x="1187" 
d="M504 1202v211h178v-211h-178zM543 -430q-152 0 -260.5 64t-173.5 176l129 94q39 -82 119.5 -134.5t187.5 -52.5q136 0 221.5 89.5t85.5 252.5v136q-49 -94 -137 -146.5t-195 -52.5q-133 0 -234.5 71t-153.5 186.5t-52 254.5q0 137 52 252t153 185.5t233 70.5
q106 0 195.5 -51.5t138.5 -145.5v180h170v-940q0 -226 -131.5 -357.5t-347.5 -131.5zM559 154q142 0 223.5 99.5t81.5 254.5q0 153 -81.5 253.5t-223.5 100.5t-224.5 -101t-82.5 -253q0 -154 82.5 -254t224.5 -100z" />
    <glyph glyph-name="g.ss02" horiz-adv-x="1062" 
d="M662 145q69 0 126 -13.5t104 -43.5t73 -83t26 -126q0 -149 -111 -230t-329 -81q-137 0 -242 31.5t-171 103.5t-66 178q0 41 12 76l147 80q-56 29 -93 81.5t-38 125.5q0 129 115 209q-72 91 -72 213q0 154 109.5 252t275.5 98q148 0 248 -78l154 133l86 -110l-150 -127
q45 -79 45 -175q0 -155 -109 -250.5t-274 -95.5q-122 0 -213 54q-58 -42 -55 -107q0 -115 182 -115h220zM532 881q-100 0 -159.5 -61.5t-59.5 -157.5q0 -94 58.5 -153.5t158.5 -59.5t159 59.5t59 153.5q0 96 -59 157.5t-157 61.5zM551 -301q278 0 278 170q0 75 -58 104
t-177 29h-236h-18l-111 -92v-27q0 -184 322 -184z" />
    <glyph glyph-name="gbreve.ss02" horiz-adv-x="1062" 
d="M530 1147q-309 0 -309 266h121q0 -81 50.5 -122.5t137.5 -41.5q88 0 137.5 42t49.5 122h121q0 -266 -308 -266zM662 145q69 0 126 -13.5t104 -43.5t73 -83t26 -126q0 -149 -111 -230t-329 -81q-137 0 -242 31.5t-171 103.5t-66 178q0 41 12 76l147 80q-56 29 -93 81.5
t-38 125.5q0 129 115 209q-72 91 -72 213q0 154 109.5 252t275.5 98q148 0 248 -78l154 133l86 -110l-150 -127q45 -79 45 -175q0 -155 -109 -250.5t-274 -95.5q-122 0 -213 54q-58 -42 -55 -107q0 -115 182 -115h220zM532 881q-100 0 -159.5 -61.5t-59.5 -157.5
q0 -94 58.5 -153.5t158.5 -59.5t159 59.5t59 153.5q0 96 -59 157.5t-157 61.5zM551 -301q278 0 278 170q0 75 -58 104t-177 29h-236h-18l-111 -92v-27q0 -184 322 -184z" />
    <glyph glyph-name="uni0123.ss02" horiz-adv-x="1062" 
d="M762 1427l-168 -305h-178l241 305h105zM662 145q69 0 126 -13.5t104 -43.5t73 -83t26 -126q0 -149 -111 -230t-329 -81q-137 0 -242 31.5t-171 103.5t-66 178q0 41 12 76l147 80q-56 29 -93 81.5t-38 125.5q0 129 115 209q-72 91 -72 213q0 154 109.5 252t275.5 98
q148 0 248 -78l154 133l86 -110l-150 -127q45 -79 45 -175q0 -155 -109 -250.5t-274 -95.5q-122 0 -213 54q-58 -42 -55 -107q0 -115 182 -115h220zM532 881q-100 0 -159.5 -61.5t-59.5 -157.5q0 -94 58.5 -153.5t158.5 -59.5t159 59.5t59 153.5q0 96 -59 157.5t-157 61.5z
M551 -301q278 0 278 170q0 75 -58 104t-177 29h-236h-18l-111 -92v-27q0 -184 322 -184z" />
    <glyph glyph-name="gdotaccent.ss02" horiz-adv-x="1062" 
d="M618 1413v-211h-176v211h176zM662 145q69 0 126 -13.5t104 -43.5t73 -83t26 -126q0 -149 -111 -230t-329 -81q-137 0 -242 31.5t-171 103.5t-66 178q0 41 12 76l147 80q-56 29 -93 81.5t-38 125.5q0 129 115 209q-72 91 -72 213q0 154 109.5 252t275.5 98q148 0 248 -78
l154 133l86 -110l-150 -127q45 -79 45 -175q0 -155 -109 -250.5t-274 -95.5q-122 0 -213 54q-58 -42 -55 -107q0 -115 182 -115h220zM532 881q-100 0 -159.5 -61.5t-59.5 -157.5q0 -94 58.5 -153.5t158.5 -59.5t159 59.5t59 153.5q0 96 -59 157.5t-157 61.5zM551 -301
q278 0 278 170q0 75 -58 104t-177 29h-236h-18l-111 -92v-27q0 -184 322 -184z" />
    <glyph glyph-name="T_h" horiz-adv-x="2111" 
d="M526 0v1255h-477v158h1262v-565q50 83 129.5 125.5t173.5 42.5q89 0 157.5 -31t111 -86t64 -124.5t23.5 -151.5v-623h-172v592q0 270 -223 270q-126 0 -195 -86t-69 -227v-549h-172v1255h-437v-1255h-176z" />
    <glyph glyph-name="f_t" horiz-adv-x="1234" 
d="M1004 -16q-138 0 -212.5 77t-74.5 218v577h-348v-856h-170v856h-166v143h166v80q0 168 103.5 259.5t262.5 91.5q189 0 320 -78v-353h272v-143h-272v-549q0 -92 37.5 -133t109.5 -41q63 0 123 29l2 -156q-73 -22 -153 -22zM369 999h352v256q-55 37 -148 37
q-204 0 -204 -217v-76z" />
    <glyph glyph-name="t_t" horiz-adv-x="1361" 
d="M516 -16q-146 0 -223.5 76.5t-77.5 218.5v577h-176v143h178v275l166 123v-398h442v275l164 123v-398h295v-143h-295v-549q0 -92 42 -133t122 -41q67 0 131 29v-156q-73 -22 -158 -22q-147 0 -225 76.5t-78 218.5v577h-440v-549q0 -92 40.5 -133t121.5 -41q65 0 129 29
l2 -156q-77 -22 -160 -22z" />
    <glyph glyph-name="zero.lf" horiz-adv-x="1228" 
d="M625 -16q-87 0 -159.5 24.5t-123 65.5t-89.5 99.5t-62.5 121t-38 137t-20 140t-5.5 135.5q0 71 5 137t19.5 140.5t37 137t60.5 121.5t87 99.5t119 65t155 24.5q108 0 194 -42t141.5 -111t92.5 -164.5t52.5 -197t15.5 -212.5t-15 -211.5t-51 -195t-90 -163t-137.5 -110
t-187.5 -41.5zM621 150q72 0 126.5 33t87.5 85.5t53.5 128t28 150t7.5 160.5q0 557 -314 557q-55 0 -100.5 -18t-77 -47.5t-55.5 -73.5t-38 -91t-23 -105t-12 -110t-3 -112q0 -557 320 -557z" />
    <glyph glyph-name="one.lf" horiz-adv-x="770" 
d="M399 1413h168v-1413h-174v1053h-346v135h223q65 0 97 27.5t32 87.5v110z" />
    <glyph glyph-name="two.lf" horiz-adv-x="1167" 
d="M365 160h718v-160h-995v150q76 47 138.5 88.5t142.5 100.5t142 114t125 124t104.5 135.5t67.5 144t26 153.5q0 119 -66.5 189.5t-192.5 70.5q-74 0 -131 -27t-91 -75.5t-51 -109t-19 -132.5l-172 10q0 137 53.5 248t160.5 178.5t250 67.5q195 0 315 -112.5t120 -311.5
q0 -101 -41 -207t-106 -196t-152 -175.5t-172.5 -150.5t-173.5 -117z" />
    <glyph glyph-name="three.lf" horiz-adv-x="1183" 
d="M580 -16q-143 0 -255.5 49.5t-180.5 152t-68 244.5l168 8q0 -136 93.5 -214.5t246.5 -78.5q143 0 237 73.5t94 201.5q0 66 -25.5 114t-64 74.5t-95.5 41.5t-106 19t-110 3v141q164 -2 245 52t81 173q0 105 -73.5 166.5t-186.5 61.5q-122 0 -196 -66.5t-75 -179.5l-166 10
q0 183 123.5 291.5t308.5 108.5q117 0 215 -44.5t158 -130.5t60 -196q0 -113 -65.5 -190t-182.5 -115q151 -30 237 -118.5t86 -229.5q0 -99 -39.5 -179.5t-108.5 -133t-160 -81t-195 -28.5z" />
    <glyph glyph-name="four.lf" horiz-adv-x="1187" 
d="M909 496h230v-160h-230v-336h-174v336h-688v106l709 971h153v-917zM270 496h465v653z" />
    <glyph glyph-name="five.lf" horiz-adv-x="1183" 
d="M618 952q194 0 329.5 -139t135.5 -338q0 -132 -66.5 -245t-182 -179.5t-250.5 -66.5q-179 0 -314 116t-174 297l164 45q27 -131 110 -215t214 -84q137 0 228 99t91 235q0 135 -85.5 226.5t-223.5 91.5q-84 0 -161 -42t-128 -116l-166 43l131 733h746v-162h-606l-72 -397
q129 98 280 98z" />
    <glyph glyph-name="six.lf" horiz-adv-x="1132" 
d="M569 936q99 0 189.5 -37.5t156.5 -101.5t105 -152t39 -184q0 -97 -39 -185.5t-105 -152.5t-156.5 -101.5t-189.5 -37.5q-100 0 -191 37.5t-156.5 101.5t-104.5 152.5t-39 185.5q0 126 65 237l432 715h201l-293 -485q39 8 86 8zM569 147q131 0 224.5 92.5t93.5 221.5
q0 128 -94 219.5t-224 91.5q-133 0 -226 -91.5t-93 -219.5q0 -131 93 -222.5t226 -91.5z" />
    <glyph glyph-name="seven.lf" horiz-adv-x="1107" 
d="M47 1413h1014v-98l-670 -1315h-194l653 1251h-803v162z" />
    <glyph glyph-name="eight.lf" horiz-adv-x="1183" 
d="M592 -16q-76 0 -147 16t-133.5 50t-109 82t-73.5 117t-27 150q0 127 66 224t180 143q-80 46 -124 124.5t-44 176.5q0 111 60 195.5t153 126t201 41.5q172 0 292 -101t120 -266q0 -97 -45.5 -175.5t-124.5 -121.5q116 -50 180.5 -145t64.5 -222q0 -102 -41 -183
t-110 -130.5t-155.5 -75.5t-182.5 -26zM596 817q107 0 174.5 63.5t67.5 168.5q0 107 -68 170t-174 63q-102 0 -172 -59t-70 -166t66.5 -173.5t175.5 -66.5zM590 135q136 0 225.5 72.5t89.5 208.5q0 130 -88 207t-227 77q-140 0 -228 -76.5t-88 -205.5q0 -137 91 -210
t225 -73z" />
    <glyph glyph-name="nine.lf" horiz-adv-x="1132" 
d="M1055 952q0 -124 -66 -237l-432 -715h-201l293 485q-39 -8 -86 -8q-201 0 -345 139.5t-144 335.5q0 130 66 240t178.5 174t244.5 64q134 0 247 -64t179 -174t66 -240zM246 952q0 -128 93.5 -219.5t223.5 -91.5q133 0 226.5 91.5t93.5 219.5q0 131 -93.5 222.5
t-226.5 91.5q-130 0 -223.5 -92.5t-93.5 -221.5z" />
    <glyph glyph-name="zero.dnom" horiz-adv-x="757" 
d="M385 -10q-74 0 -131 28.5t-91.5 72t-56.5 103t-30 115.5t-8 115t8 115.5t29 116t54.5 103.5t89 72.5t126.5 28.5q82 0 144.5 -38t98.5 -102t54 -139.5t18 -158.5t-17.5 -157.5t-52.5 -137t-95.5 -100t-139.5 -37.5zM381 98q51 0 89.5 28.5t59.5 77t31 104t10 116.5
q0 63 -10 118t-31.5 103.5t-61 76.5t-93.5 28q-55 0 -94.5 -28.5t-60 -78t-29.5 -103.5t-9 -116q0 -61 9.5 -115t30.5 -103.5t62 -78.5t97 -29z" />
    <glyph glyph-name="one.dnom" horiz-adv-x="458" 
d="M215 848h109v-848h-115v623h-205v90h129q82 0 82 73v62z" />
    <glyph glyph-name="two.dnom" horiz-adv-x="714" 
d="M219 104h443v-104h-627v96q48 29 81.5 50.5t86 58t90 68t79.5 73.5t68.5 81t44 85.5t17.5 91.5q0 67 -38 108.5t-110 41.5q-83 0 -125 -57.5t-45 -145.5l-112 8q0 126 76 212.5t206 86.5q118 0 191 -68t73 -188q0 -75 -35.5 -150.5t-95.5 -139t-127 -115t-141 -93.5z" />
    <glyph glyph-name="three.dnom" horiz-adv-x="712" 
d="M346 -10q-132 0 -218.5 71t-86.5 199l111 8q0 -81 54.5 -126.5t141.5 -45.5q81 0 137 42t56 118q0 152 -234 152v77q189 0 189 125q0 67 -42 103.5t-106 36.5q-69 0 -113 -39t-45 -103l-108 8q0 111 75 176.5t187 65.5q108 0 185 -62t77 -163q0 -123 -131 -176
q82 -19 129 -74.5t47 -136.5q0 -120 -87.5 -188t-217.5 -68z" />
    <glyph glyph-name="four.dnom" horiz-adv-x="692" 
d="M522 309h137v-106h-137v-203h-114v203h-408v69l422 576h100v-539zM150 309h258v363z" />
    <glyph glyph-name="five.dnom" horiz-adv-x="724" 
d="M381 575q117 0 199 -84.5t82 -205.5q0 -120 -90 -207.5t-214 -87.5q-108 0 -190 71t-107 179l109 30q15 -75 63 -125.5t125 -50.5t131 58.5t54 134.5q0 77 -50 130.5t-131 53.5q-48 0 -92.5 -25t-72.5 -67l-109 27l80 442h455v-109h-363l-39 -215q73 51 160 51z" />
    <glyph glyph-name="six.dnom" horiz-adv-x="653" 
d="M369 557q105 -9 181.5 -91t76.5 -187q0 -117 -86.5 -203t-212.5 -86q-125 0 -212 83t-87 203q0 76 45 146l256 426h131l-197 -305q50 17 105 14zM328 100q77 0 130.5 52t53.5 127q0 74 -54 127t-130 53q-75 0 -130 -53.5t-55 -126.5q0 -74 54.5 -126.5t130.5 -52.5z" />
    <glyph glyph-name="seven.dnom" horiz-adv-x="610" 
d="M8 848h600v-64l-381 -784h-129l373 741h-463v107z" />
    <glyph glyph-name="eight.dnom" horiz-adv-x="724" 
d="M362 -10q-124 0 -211.5 65.5t-87.5 184.5q0 75 38 132t104 87q-96 61 -96 178q0 101 75 161t178 60q105 0 179.5 -61t74.5 -162q0 -56 -25 -102t-69 -74q66 -31 103 -87.5t37 -129.5q0 -120 -88 -186t-212 -66zM367 502q61 0 100 35t39 94q0 60 -39 95.5t-102 35.5
q-60 0 -101 -33.5t-41 -93.5t39.5 -96.5t104.5 -36.5zM362 90q78 0 130.5 40t52.5 116q0 73 -51.5 115t-131.5 42q-83 0 -134.5 -41.5t-51.5 -113.5q0 -77 53.5 -117.5t132.5 -40.5z" />
    <glyph glyph-name="nine.dnom" horiz-adv-x="655" 
d="M625 569q0 -77 -43 -149l-256 -420h-133l174 283q-14 -2 -41 -2q-122 0 -209.5 85t-87.5 203q0 120 87.5 204.5t209.5 84.5q124 0 211.5 -84.5t87.5 -204.5zM141 569q0 -73 55 -126.5t130 -53.5q78 0 132 53t54 127q0 75 -54 128t-132 53q-75 0 -130 -53t-55 -128z" />
    <glyph glyph-name="zero.numr" horiz-adv-x="757" 
d="M385 563q-74 0 -131 28.5t-91.5 72t-56.5 103t-30 115.5t-8 115q0 76 14 146.5t46 139t95.5 110t151.5 41.5q82 0 144.5 -38t98.5 -102t54 -140t18 -159t-17.5 -157.5t-52.5 -137t-95.5 -100t-139.5 -37.5zM381 672q51 0 89.5 28.5t59.5 77t31 103.5t10 116q0 63 -10 118
t-31.5 103.5t-61 76.5t-93.5 28q-55 0 -94.5 -28.5t-60 -78t-29.5 -103.5t-9 -116q0 -61 9.5 -114.5t30.5 -103t62 -78.5t97 -29z" />
    <glyph glyph-name="one.numr" horiz-adv-x="458" 
d="M215 1421h109v-848h-115v623h-205v90h129q82 0 82 74v61z" />
    <glyph glyph-name="two.numr" horiz-adv-x="714" 
d="M219 678h443v-105h-627v97q48 29 81.5 50.5t86 58t90 68t79.5 73.5t68.5 81t44 85.5t17.5 91.5q0 67 -38 108t-110 41q-83 0 -125 -57.5t-45 -145.5l-112 9q0 126 76 212.5t206 86.5q118 0 191 -68t73 -188q0 -75 -35.5 -150.5t-95.5 -139t-127 -115t-141 -93.5z" />
    <glyph glyph-name="three.numr" horiz-adv-x="712" 
d="M346 563q-132 0 -218.5 71t-86.5 200l111 8q0 -81 54.5 -126.5t141.5 -45.5q82 0 137.5 41.5t55.5 117.5q0 152 -234 152v78q189 0 189 125q0 67 -42 103t-106 36q-69 0 -113 -38.5t-45 -102.5l-108 8q0 111 75 176.5t187 65.5q108 0 185 -62.5t77 -163.5
q0 -123 -131 -176q82 -19 129 -74.5t47 -136.5q0 -120 -87.5 -188t-217.5 -68z" />
    <glyph glyph-name="four.numr" horiz-adv-x="692" 
d="M522 874h137v-106h-137v-203h-114v203h-408v70l422 575h100v-539zM150 874h258v363z" />
    <glyph glyph-name="five.numr" horiz-adv-x="724" 
d="M381 1141q117 0 199 -85t82 -206q0 -120 -90 -207.5t-214 -87.5q-108 0 -190 71t-107 179l109 31q15 -76 63 -126.5t125 -50.5t131 58.5t54 134.5q0 77 -50 130.5t-131 53.5q-48 0 -92.5 -25t-72.5 -67l-109 27l80 442h455v-108h-363l-39 -215q73 51 160 51z" />
    <glyph glyph-name="six.numr" horiz-adv-x="653" 
d="M369 1122q105 -9 181.5 -91t76.5 -187q0 -117 -86.5 -203t-212.5 -86q-125 0 -212 83.5t-87 203.5q0 75 45 145l256 426h131l-197 -305q50 17 105 14zM328 666q77 0 130.5 51.5t53.5 126.5q0 74 -54 127t-130 53q-75 0 -130 -53.5t-55 -126.5q0 -74 54.5 -126t130.5 -52z
" />
    <glyph glyph-name="seven.numr" horiz-adv-x="610" 
d="M8 1413h600v-63l-381 -785h-129l373 742h-463v106z" />
    <glyph glyph-name="eight.numr" horiz-adv-x="724" 
d="M362 563q-124 0 -211.5 65.5t-87.5 184.5q0 75 38 132t104 87q-96 61 -96 178q0 101 75 161.5t178 60.5q105 0 179.5 -61.5t74.5 -162.5q0 -56 -25 -102t-69 -74q66 -31 103 -87.5t37 -129.5q0 -120 -88 -186t-212 -66zM367 1075q61 0 100 35t39 94q0 60 -39 95.5
t-102 35.5q-60 0 -101 -33.5t-41 -93.5t39.5 -96.5t104.5 -36.5zM362 664q79 0 131 39.5t52 115.5q0 73 -51.5 115.5t-131.5 42.5q-83 0 -134.5 -42t-51.5 -114q0 -77 53.5 -117t132.5 -40z" />
    <glyph glyph-name="nine.numr" horiz-adv-x="655" 
d="M625 1143q0 -78 -43 -150l-256 -420h-133l174 283q-14 -2 -41 -2q-122 0 -209.5 85.5t-87.5 203.5q0 120 87.5 204.5t209.5 84.5q124 0 211.5 -84.5t87.5 -204.5zM141 1143q0 -73 55 -126.5t130 -53.5q78 0 132 53t54 127q0 75 -54 127.5t-132 52.5q-75 0 -130 -52.5
t-55 -127.5z" />
    <glyph glyph-name="caroncomb.alt" 
d="M-371 981l117 432h178l-190 -432h-105z" />
    <glyph glyph-name="brevecombcy" 
d="M-420 1147q-309 0 -309 266h121q0 -81 50.5 -122.5t137.5 -41.5q88 0 137.5 42t49.5 122h120q0 -266 -307 -266z" />
    <glyph glyph-name="descendercy" horiz-adv-x="497" 
d="M166 -238v357h168v-357h-168z" />
    <glyph glyph-name="uni03060301" 
d="M-492 1540l222 287h180l-275 -287h-127zM-408 1147q-309 0 -309 266h121q0 -81 50.5 -122.5t137.5 -41.5q88 0 137.5 42t49.5 122h121q0 -266 -308 -266z" />
    <glyph glyph-name="uni03060300" 
d="M-403 1526l-275 301h180l222 -301h-127zM-356 1147q-308 0 -308 266h121q0 -81 50 -122.5t137 -41.5q89 0 137.5 41.5t48.5 122.5h123q0 -266 -309 -266z" />
    <glyph glyph-name="uni03060309" 
d="M-424 1501v121q113 24 113 102q0 34 -22 55t-58 21q-47 0 -84 -37l-55 84q65 51 157 51q86 0 135.5 -44.5t49.5 -118.5q0 -120 -125 -154v-80h-111zM-369 1147q-307 0 -307 266h121q0 -81 49.5 -122.5t136.5 -41.5q89 0 138 41.5t49 122.5h123q0 -266 -310 -266z" />
    <glyph glyph-name="uni03060303" 
d="M-301 1548q-45 0 -81 17t-58 41.5t-41.5 49t-42 41.5t-49.5 17q-43 0 -67 -40t-24 -113h-100q0 123 52.5 191.5t142.5 68.5q42 0 76 -17t56.5 -41.5t42 -49t43 -41.5t50.5 -17q37 0 60.5 42.5t23.5 114.5h104q0 -124 -50.5 -194t-137.5 -70zM-438 1147q-307 0 -307 266
h120q0 -81 50 -122.5t137 -41.5q89 0 137.5 41.5t48.5 122.5h123q0 -266 -309 -266z" />
    <glyph glyph-name="uni03020301" 
d="M-449 1538l222 287h180l-275 -287h-127zM-672 1108l305 330l308 -330h-138l-170 182l-170 -182h-135z" />
    <glyph glyph-name="uni03020300" 
d="M-358 1526l-277 299h182l222 -299h-127zM-618 1108l305 330l307 -330h-135l-172 182l-168 -182h-137z" />
    <glyph glyph-name="uni03020309" 
d="M-381 1501v121q113 21 113 102q0 33 -22 54.5t-58 21.5q-44 0 -84 -37l-55 82q61 51 157 51q86 0 135.5 -44.5t49.5 -118.5q0 -116 -125 -154v-78h-111zM-633 1108l307 330l308 -330h-138l-170 182l-170 -182h-137z" />
    <glyph glyph-name="uni03020303" 
d="M-264 1546q-45 0 -81 17.5t-58.5 42t-41.5 49t-42 41.5t-50 16q-41 2 -65.5 -38.5t-24.5 -112.5h-98q0 123 52 191.5t143 66.5q42 1 75.5 -16t56 -41t42.5 -48.5t43.5 -41.5t50.5 -17q38 0 61 41.5t23 115.5h104q0 -125 -51 -195.5t-139 -70.5zM-707 1108l306 330
l307 -330h-135l-172 182l-168 -182h-138z" />
    <glyph glyph-name="doublestrike" horiz-adv-x="1566" 
d="M166 649v152h1237v-152h-1237zM166 317v152h1237v-152h-1237z" />
    <glyph glyph-name="strokecy" horiz-adv-x="1062" 
d="M160 303v150h743v-150h-743z" />
    <glyph glyph-name="basegreaterlessthan" horiz-adv-x="1374" 
d="M160 0h1054v-129h-1054v129z" />
    <glyph glyph-name="_global" horiz-adv-x="1517" 
 />
    <glyph glyph-name="IJacute" horiz-adv-x="1757" 
d="M213 1540l221 287h182l-276 -287h-127zM1087 1540l222 287h182l-277 -287h-127zM211 0v1413h176v-1413h-176zM1118 -16q-200 0 -322.5 123t-136.5 315l172 18q9 -132 83.5 -212.5t203.5 -80.5q152 0 215.5 89.5t63.5 273.5v741h-559v162h735v-899q0 -163 -45.5 -279
t-149 -183.5t-260.5 -67.5z" />
    <glyph glyph-name="ijacute" horiz-adv-x="1015" 
d="M168 1126l221 287h182l-276 -287h-127zM674 1126l221 287h182l-276 -287h-127zM168 0v999h170v-999h-170zM573 -430q-82 0 -165 31l45 147q63 -24 104 -24q61 0 90 36t29 113v1126h172v-1114q0 -144 -69.5 -229.5t-205.5 -85.5z" />
    </font>
</defs>
</svg>
